<svg width="245" height="92" viewBox="0 0 245 92" fill="none" xmlns="http://www.w3.org/2000/svg">
<path d="M21.184 56.664H31.936V63H12.976V29.304H21.184V56.664ZM61.399 49.176C61.399 49.944 61.351 50.744 61.255 51.576H42.679C42.807 53.24 43.335 54.52 44.263 55.416C45.223 56.28 46.391 56.712 47.767 56.712C49.815 56.712 51.239 55.848 52.039 54.12H60.775C60.327 55.88 59.511 57.464 58.327 58.872C57.175 60.28 55.719 61.384 53.959 62.184C52.199 62.984 50.231 63.384 48.055 63.384C45.431 63.384 43.095 62.824 41.047 61.704C38.999 60.584 37.399 58.984 36.247 56.904C35.095 54.824 34.519 52.392 34.519 49.608C34.519 46.824 35.079 44.392 36.199 42.312C37.351 40.232 38.951 38.632 40.999 37.512C43.047 36.392 45.399 35.832 48.055 35.832C50.647 35.832 52.951 36.376 54.967 37.464C56.983 38.552 58.551 40.104 59.671 42.12C60.823 44.136 61.399 46.488 61.399 49.176ZM52.999 47.016C52.999 45.608 52.519 44.488 51.559 43.656C50.599 42.824 49.399 42.408 47.959 42.408C46.583 42.408 45.415 42.808 44.455 43.608C43.527 44.408 42.951 45.544 42.727 47.016H52.999ZM76.2051 35.832C78.0931 35.832 79.7411 36.216 81.1491 36.984C82.5891 37.752 83.6931 38.76 84.4611 40.008V36.216H92.6691V62.952C92.6691 65.416 92.1731 67.64 91.1811 69.624C90.2211 71.64 88.7331 73.24 86.7171 74.424C84.7331 75.608 82.2531 76.2 79.2771 76.2C75.3091 76.2 72.0931 75.256 69.6291 73.368C67.1651 71.512 65.7571 68.984 65.4051 65.784H73.5171C73.7731 66.808 74.3811 67.608 75.3411 68.184C76.3011 68.792 77.4851 69.096 78.8931 69.096C80.5891 69.096 81.9331 68.6 82.9251 67.608C83.9491 66.648 84.4611 65.096 84.4611 62.952V59.16C83.6611 60.408 82.5571 61.432 81.1491 62.232C79.7411 63 78.0931 63.384 76.2051 63.384C73.9971 63.384 71.9971 62.824 70.2051 61.704C68.4131 60.552 66.9891 58.936 65.9331 56.856C64.9091 54.744 64.3971 52.312 64.3971 49.56C64.3971 46.808 64.9091 44.392 65.9331 42.312C66.9891 40.232 68.4131 38.632 70.2051 37.512C71.9971 36.392 73.9971 35.832 76.2051 35.832ZM84.4611 49.608C84.4611 47.56 83.8851 45.944 82.7331 44.76C81.6131 43.576 80.2371 42.984 78.6051 42.984C76.9731 42.984 75.5811 43.576 74.4291 44.76C73.3091 45.912 72.7491 47.512 72.7491 49.56C72.7491 51.608 73.3091 53.24 74.4291 54.456C75.5811 55.64 76.9731 56.232 78.6051 56.232C80.2371 56.232 81.6131 55.64 82.7331 54.456C83.8851 53.272 84.4611 51.656 84.4611 49.608ZM97.2753 49.56C97.2753 46.808 97.7873 44.392 98.8113 42.312C99.8673 40.232 101.291 38.632 103.083 37.512C104.875 36.392 106.875 35.832 109.083 35.832C110.971 35.832 112.619 36.216 114.027 36.984C115.467 37.752 116.571 38.76 117.339 40.008V36.216H125.547V63H117.339V59.208C116.539 60.456 115.419 61.464 113.979 62.232C112.571 63 110.923 63.384 109.035 63.384C106.859 63.384 104.875 62.824 103.083 61.704C101.291 60.552 99.8673 58.936 98.8113 56.856C97.7873 54.744 97.2753 52.312 97.2753 49.56ZM117.339 49.608C117.339 47.56 116.763 45.944 115.611 44.76C114.491 43.576 113.115 42.984 111.483 42.984C109.851 42.984 108.459 43.576 107.307 44.76C106.187 45.912 105.627 47.512 105.627 49.56C105.627 51.608 106.187 53.24 107.307 54.456C108.459 55.64 109.851 56.232 111.483 56.232C113.115 56.232 114.491 55.64 115.611 54.456C116.763 53.272 117.339 51.656 117.339 49.608ZM146.713 56.04V63H142.537C139.561 63 137.241 62.28 135.577 60.84C133.913 59.368 133.081 56.984 133.081 53.688V43.032H129.817V36.216H133.081V29.688H141.289V36.216H146.665V43.032H141.289V53.784C141.289 54.584 141.481 55.16 141.865 55.512C142.249 55.864 142.889 56.04 143.785 56.04H146.713ZM178.033 36.216V63H169.825V59.352C168.993 60.536 167.857 61.496 166.417 62.232C165.009 62.936 163.441 63.288 161.713 63.288C159.665 63.288 157.857 62.84 156.289 61.944C154.721 61.016 153.505 59.688 152.641 57.96C151.777 56.232 151.345 54.2 151.345 51.864V36.216H159.505V50.76C159.505 52.552 159.969 53.944 160.897 54.936C161.825 55.928 163.073 56.424 164.641 56.424C166.241 56.424 167.505 55.928 168.433 54.936C169.361 53.944 169.825 52.552 169.825 50.76V36.216H178.033ZM192.437 40.68C193.397 39.208 194.597 38.056 196.037 37.224C197.477 36.36 199.077 35.928 200.837 35.928V44.616H198.581C196.533 44.616 194.997 45.064 193.973 45.96C192.949 46.824 192.437 48.36 192.437 50.568V63H184.229V36.216H192.437V40.68ZM203.428 49.56C203.428 46.808 203.94 44.392 204.964 42.312C206.02 40.232 207.444 38.632 209.236 37.512C211.028 36.392 213.028 35.832 215.236 35.832C217.124 35.832 218.772 36.216 220.18 36.984C221.62 37.752 222.724 38.76 223.492 40.008V36.216H231.7V63H223.492V59.208C222.692 60.456 221.572 61.464 220.132 62.232C218.724 63 217.076 63.384 215.188 63.384C213.012 63.384 211.028 62.824 209.236 61.704C207.444 60.552 206.02 58.936 204.964 56.856C203.94 54.744 203.428 52.312 203.428 49.56ZM223.492 49.608C223.492 47.56 222.916 45.944 221.764 44.76C220.644 43.576 219.268 42.984 217.636 42.984C216.004 42.984 214.612 43.576 213.46 44.76C212.34 45.912 211.78 47.512 211.78 49.56C211.78 51.608 212.34 53.24 213.46 54.456C214.612 55.64 216.004 56.232 217.636 56.232C219.268 56.232 220.644 55.64 221.764 54.456C222.916 53.272 223.492 51.656 223.492 49.608Z" fill="#EC7E00"/>
</svg>
