<svg width="716" height="320" viewBox="0 0 716 320" fill="none" xmlns="http://www.w3.org/2000/svg">
<path d="M167.241 262.485C165.469 262.189 164.468 261.631 160.937 258.971C159.691 258.032 157.916 256.714 156.992 256.043C156.068 255.372 155.312 254.788 155.312 254.744C155.312 254.701 155.907 253.909 156.634 252.986C158.28 250.895 159.106 249.497 159.646 247.891C160.033 246.738 160.065 246.445 160.062 244.141C160.058 241.858 160.021 241.532 159.642 240.391C159.029 238.547 158.235 237.329 156.678 235.846C155.61 234.83 154.991 234.387 153.865 233.832C152.349 233.086 150.363 232.5 149.35 232.5C148.8 232.5 148.75 232.464 148.749 232.07C148.747 231.122 148.268 228.542 147.87 227.339C146.326 222.667 141.13 219.179 136.043 219.402L134.609 219.464L134.263 218.066C132.82 212.242 128.027 208.291 122.344 208.241C120.485 208.225 119.199 208.496 117.738 209.212C117.225 209.463 116.798 209.656 116.79 209.639C116.783 209.623 116.545 209.082 116.263 208.438C114.12 203.542 109.731 200.469 104.885 200.469C103.14 200.469 102.026 200.751 100.156 201.666C98.9887 202.238 98.4359 202.629 97.5675 203.501C96.3775 204.695 94.7384 206.708 92.9853 209.129L91.8872 210.645L88.8922 207.737C85.2269 204.178 82.7744 202.295 79.85 200.795C77.4012 199.54 77.4591 199.565 67.8422 195.53C63.8625 193.861 60.4247 192.376 60.2028 192.231C59.72 191.914 59.0662 190.582 59.0641 189.91C59.0631 189.645 59.8656 187.316 60.8469 184.733C62.7872 179.628 67.0503 168.102 68.7522 163.359C69.3381 161.727 70.3237 159.02 70.9428 157.344C72.8031 152.304 75.2941 145.504 75.9694 143.62C76.3184 142.647 76.7787 141.642 76.9925 141.388C77.7178 140.526 79.1147 140.225 80.23 140.691C80.5228 140.813 82.1906 141.753 83.9359 142.778C85.6812 143.803 88.0937 145.187 89.2969 145.853C102.116 152.947 104.372 154.123 106.34 154.739C108.765 155.498 109.577 155.548 119.036 155.528C127.197 155.51 127.833 155.528 127.77 155.771C127.688 156.083 124.844 160.293 123.012 162.813C122.294 163.801 121.129 165.408 120.423 166.385C119.718 167.362 118.965 168.381 118.75 168.651C118.535 168.921 118.289 169.255 118.203 169.393C118.117 169.532 117.786 170.038 117.468 170.518C116.557 171.89 116.194 173.313 116.287 175.133C116.538 179.994 120.29 184.12 125.859 185.661C127.277 186.053 130.944 186.208 132.626 185.947C137.718 185.156 143.756 181.833 147.728 177.634C148.326 177.002 149.719 175.553 150.822 174.414L152.828 172.344H156.796H160.763L162.686 173.883C164.451 175.295 167.413 177.553 177.266 184.996C179.242 186.489 181.984 188.599 183.359 189.686C185.716 191.547 189.392 194.4 197.734 200.842C208.505 209.159 218.034 216.669 218.449 217.167C219.153 218.013 219.982 219.794 220.187 220.897C220.523 222.717 219.811 225.043 218.44 226.6C218.007 227.093 217.397 227.532 216.6 227.926C215.458 228.49 215.339 228.516 213.828 228.516C212.32 228.516 212.198 228.49 211.086 227.935C210.446 227.616 209.113 226.715 208.125 225.933C207.137 225.152 204.817 223.342 202.969 221.913C201.121 220.483 198.426 218.395 196.98 217.273C195.533 216.152 193.302 214.426 192.021 213.438C183.969 207.225 181.658 205.414 180.398 204.334C178.433 202.649 177.567 202.458 176.368 203.445C175.996 203.752 175.717 204.176 175.544 204.697C175.257 205.56 175.315 206.04 175.802 206.83C176.072 207.268 183.413 213.088 194.599 221.734C196.312 223.057 198.456 224.72 199.364 225.428C200.272 226.136 201.908 227.389 202.998 228.213C205.083 229.788 205.487 230.21 206.136 231.491C206.867 232.935 207.077 233.961 206.996 235.692C206.934 237.024 206.848 237.428 206.441 238.318C204.906 241.673 201.31 242.936 197.855 241.334C196.972 240.924 196.185 240.356 192.085 237.165C190.611 236.017 188.545 234.41 187.493 233.594C186.441 232.778 183.243 230.281 180.386 228.047C172.149 221.605 169.351 219.479 168.595 219.09C167.645 218.6 166.294 218.664 165.691 219.229C164.77 220.088 164.561 221.409 165.195 222.35C165.598 222.948 165.864 223.167 170.689 226.875C172.646 228.379 174.892 230.105 175.678 230.712C176.465 231.317 178.762 233.08 180.781 234.627C187.271 239.601 188.815 240.791 189.498 241.352C190.821 242.435 191.562 244.139 191.562 246.094C191.562 248.694 190.236 250.852 187.969 251.936C187.022 252.389 186.836 252.422 185.234 252.422C183.697 252.422 183.422 252.378 182.622 252.003C181.854 251.643 178.829 249.422 171.172 243.594C170.227 242.875 168.976 241.853 168.393 241.324C166.477 239.586 165.386 239.327 164.176 240.324C163.14 241.178 163.037 242.503 163.929 243.518C164.426 244.084 164.846 244.418 170.252 248.559C172.066 249.949 173.741 251.335 173.973 251.639C175.005 252.993 175.473 255.007 175.161 256.756C174.617 259.797 172.423 262.02 169.497 262.494C168.398 262.673 168.364 262.673 167.241 262.485Z" fill="#022644" stroke="#022644"/>
<path d="M175.468 142.721C168.805 139.132 169.328 139.243 158.593 139.162C149.429 139.094 148.65 139.14 145.674 139.921C144.726 140.169 143.888 140.334 143.811 140.287C143.729 140.236 143.671 119.829 143.671 91.3153V42.4303L144.093 41.9281C144.545 41.3925 145.307 41 145.898 41C146.26 41 148.463 42.2475 152.109 44.5162C153.183 45.185 155.363 46.5194 156.953 47.4825C158.542 48.4453 161.777 50.4156 164.14 51.8606C166.503 53.3053 169.492 55.1319 170.781 55.9197C177.046 59.7472 178.726 60.7978 179.187 61.1784L179.687 61.5909L179.651 68.7566C179.631 72.6975 179.613 91.4081 179.612 110.336C179.609 137.764 179.569 144.749 179.413 144.745C179.306 144.743 177.531 143.831 175.468 142.721Z" fill="#FFC100" stroke="#FFC100"/>
<path d="M127.674 147.607C127.613 147.545 123.365 147.454 118.234 147.405C110.403 147.329 108.831 147.277 108.437 147.082C107.894 146.811 107.913 147.173 108.191 142.046C108.402 138.167 108.41 105.943 108.202 97.9597C108.063 92.6156 108.072 92.1438 108.323 91.6334C108.649 90.9681 108.827 90.8481 113.671 88.0313C115.777 86.8072 118.659 85.1225 120.078 84.2878C121.496 83.4531 124.132 81.9044 125.937 80.8466C127.742 79.7884 130.589 78.1116 132.265 77.12C136.843 74.4113 136.92 74.3725 137.331 74.56C137.683 74.72 137.683 74.7216 137.786 80.0084C137.843 82.9172 137.937 98.2106 137.994 113.994L138.098 142.691L135.845 143.816C134.607 144.434 132.639 145.565 131.473 146.329C129.517 147.611 129.292 147.719 128.569 147.719C128.138 147.719 127.736 147.668 127.674 147.607Z" fill="#F9A600" stroke="#F9A600"/>
<path d="M201.175 153.917C199.133 153.627 197.033 152.753 191.054 149.703C187.843 148.065 185.185 146.644 185.148 146.545C185.11 146.447 185.098 133.311 185.119 117.355L185.16 88.3438L186.879 89.4044C192.582 92.9238 206.63 101.389 208.675 102.54C210.378 103.498 211.178 104.039 211.368 104.363C211.619 104.79 211.65 106.372 211.796 126.219C211.882 137.987 211.954 148.621 211.955 149.85L211.957 152.085L211.374 152.328C210.435 152.721 206.819 153.613 205.144 153.865C203.437 154.122 202.689 154.132 201.175 153.917Z" fill="#022644" stroke="#022644"/>
<path d="M220.547 211.219C219.086 210.015 217.082 208.411 216.094 207.656C215.105 206.9 212.574 204.933 210.469 203.285C202.992 197.431 195.365 191.591 190.509 188.001C185.994 184.663 183.51 182.773 177.891 178.398C172.145 173.924 169.551 171.92 167.422 170.308C166.133 169.333 164.526 168.091 163.852 167.548L162.625 166.562L160.258 166.562C158.956 166.562 156.168 166.517 154.062 166.463L150.234 166.365L147.905 168.924C144.176 173.021 141.185 175.921 139.798 176.783C135.472 179.474 130.367 180.592 126.566 179.68C123.685 178.989 122.188 177.486 122.187 175.278C122.185 173.687 122.519 173.053 125.287 169.393C126.692 167.536 129.185 164.153 130.828 161.875C135.22 155.786 135.918 154.893 137.362 153.512C140.212 150.784 144.579 148.537 148.75 147.652C150.142 147.356 151.112 147.286 155.156 147.191C157.777 147.129 161.891 147.09 164.297 147.104C170.884 147.143 171.947 147.428 178.492 150.918C184.219 153.972 190.384 157.007 192.769 157.946C195.68 159.092 197.568 159.513 200.312 159.629C205.098 159.83 208.442 158.973 214.141 156.084C223.849 151.163 229.724 147.991 234.738 144.966C236.012 144.197 237.293 143.468 237.584 143.347C238.705 142.878 239.889 143.2 240.891 144.244C241.501 144.88 241.986 145.919 244.365 151.682C247.319 158.839 252.16 170.352 254.071 174.766C255.038 177 256.159 179.602 256.562 180.547C256.965 181.492 258.079 184.032 259.038 186.191C260.849 190.268 261.104 191.13 260.786 192.094C260.404 193.253 259.645 193.825 257.031 194.922C256.022 195.345 243.406 200.889 240.361 202.248C235.216 204.542 231.584 206.642 229.053 208.787C228.414 209.329 227.328 210.225 226.641 210.778C225.953 211.331 224.974 212.156 224.466 212.611C223.957 213.065 223.465 213.431 223.372 213.423C223.279 213.416 222.008 212.424 220.547 211.219Z" fill="#F78E00" stroke="#F78E00"/>
<path d="M97.5391 227.883C96.3656 227.568 95.5363 227.107 94.6522 226.28C92.7578 224.508 92.0463 221.815 92.8153 219.325C93.18 218.144 93.195 218.122 100.374 208.61C102.075 206.357 104.909 205.723 107.479 207.021C109.018 207.798 110.134 209.02 111.089 210.977C111.904 212.645 111.907 212.656 111.85 213.943C111.775 215.651 111.522 216.13 109.259 218.84C108.248 220.05 106.55 222.089 105.483 223.372C102.736 226.677 102.408 226.998 101.176 227.596C99.9463 228.193 98.9747 228.27 97.5391 227.883Z" fill="#F78E00" stroke="#F78E00"/>
<path d="M124.263 252.117C121.564 251.273 119.695 248.616 119.689 245.614C119.687 244.264 120.003 243.254 120.817 242.011C121.523 240.934 125.441 235.882 127.405 233.516C128.047 232.742 129.388 231.009 130.384 229.665C131.379 228.321 132.497 226.942 132.867 226.6C133.84 225.704 135.007 225.312 136.704 225.312C137.973 225.312 138.172 225.357 139.202 225.872C142.672 227.608 143.96 231.674 142.161 235.207C141.797 235.922 139.661 238.847 134.63 245.521C130.602 250.863 130.198 251.271 128.195 252.021C127.187 252.398 125.309 252.444 124.263 252.117Z" fill="#F78E00" stroke="#F78E00"/>
<path d="M139.878 260.155C138.268 259.817 136.587 258.412 135.809 256.753C135.442 255.971 135.391 255.665 135.391 254.297C135.391 252.817 135.419 252.683 135.92 251.759C136.211 251.222 137.336 249.674 138.42 248.318C139.504 246.963 141.568 244.371 143.007 242.558C145.608 239.281 146.235 238.671 147.404 238.286C148.336 237.98 150.058 238.148 151.111 238.648C152.21 239.17 153.476 240.486 154.017 241.669C154.366 242.431 154.426 242.782 154.435 244.13C154.446 245.639 154.422 245.751 153.868 246.875C153.328 247.971 151.644 250.242 146.746 256.484C145.303 258.322 144.723 258.938 144.057 259.339C142.727 260.138 141.212 260.434 139.878 260.155Z" fill="#F78E00" stroke="#F78E00"/>
<path d="M109.509 241.201C108.224 240.762 107.176 239.922 106.38 238.69C105.504 237.335 105.232 236.319 105.246 234.453C105.255 233.214 105.332 232.7 105.617 231.972C106.005 230.976 105.952 231.047 112.022 223.405C114.294 220.544 116.487 217.777 116.895 217.255C117.948 215.911 118.946 215.038 119.972 214.561C120.732 214.209 121.074 214.149 122.347 214.145C123.715 214.141 123.918 214.181 124.87 214.65C125.59 215.005 126.202 215.477 126.881 216.203C128.931 218.395 129.414 220.9 128.263 223.37C127.954 224.033 118.589 236.668 116.829 238.795C116.489 239.207 115.759 239.866 115.208 240.259C113.393 241.554 111.476 241.871 109.509 241.201Z" fill="#F78E00" stroke="#F78E00"/>
<path d="M311.943 173.552H326.279V182H300.999V137.072H311.943V173.552ZM342.443 145.84V154.928H357.099V163.376H342.443V173.232H359.019V182H331.499V137.072H359.019V145.84H342.443ZM395.948 151.28C395.138 149.787 393.964 148.656 392.428 147.888C390.935 147.077 389.164 146.672 387.116 146.672C383.575 146.672 380.738 147.845 378.604 150.192C376.471 152.496 375.404 155.589 375.404 159.472C375.404 163.611 376.514 166.853 378.732 169.2C380.994 171.504 384.087 172.656 388.012 172.656C390.7 172.656 392.962 171.973 394.796 170.608C396.674 169.243 398.039 167.28 398.892 164.72H385.004V156.656H408.812V166.832C408.002 169.563 406.615 172.101 404.652 174.448C402.732 176.795 400.279 178.693 397.292 180.144C394.306 181.595 390.935 182.32 387.18 182.32C382.743 182.32 378.775 181.36 375.276 179.44C371.82 177.477 369.111 174.768 367.148 171.312C365.228 167.856 364.268 163.909 364.268 159.472C364.268 155.035 365.228 151.088 367.148 147.632C369.111 144.133 371.82 141.424 375.276 139.504C378.732 137.541 382.679 136.56 387.116 136.56C392.492 136.56 397.015 137.861 400.684 140.464C404.396 143.067 406.85 146.672 408.044 151.28H395.948ZM442.842 174.064H426.074L423.386 182H411.93L428.186 137.072H440.858L457.114 182H445.53L442.842 174.064ZM440.026 165.616L434.458 149.168L428.954 165.616H440.026ZM494.382 137.072V145.84H482.478V182H471.534V145.84H459.63V137.072H494.382ZM510.626 137.072V163.952C510.626 166.64 511.288 168.709 512.61 170.16C513.933 171.611 515.874 172.336 518.434 172.336C520.994 172.336 522.957 171.611 524.322 170.16C525.688 168.709 526.37 166.64 526.37 163.952V137.072H537.314V163.888C537.314 167.899 536.461 171.291 534.754 174.064C533.048 176.837 530.744 178.928 527.842 180.336C524.984 181.744 521.784 182.448 518.242 182.448C514.701 182.448 511.522 181.765 508.706 180.4C505.933 178.992 503.736 176.901 502.114 174.128C500.493 171.312 499.682 167.899 499.682 163.888V137.072H510.626ZM567.911 182L558.567 165.04H555.943V182H544.999V137.072H563.367C566.909 137.072 569.917 137.691 572.391 138.928C574.909 140.165 576.786 141.872 578.023 144.048C579.261 146.181 579.879 148.571 579.879 151.216C579.879 154.203 579.026 156.869 577.319 159.216C575.655 161.563 573.181 163.227 569.895 164.208L580.263 182H567.911ZM555.943 157.296H562.727C564.733 157.296 566.226 156.805 567.207 155.824C568.231 154.843 568.743 153.456 568.743 151.664C568.743 149.957 568.231 148.613 567.207 147.632C566.226 146.651 564.733 146.16 562.727 146.16H555.943V157.296ZM614.717 174.064H597.949L595.261 182H583.805L600.061 137.072H612.733L628.989 182H617.405L614.717 174.064ZM611.901 165.616L606.333 149.168L600.829 165.616H611.901Z" fill="#EC7E00"/>
</svg>
