<svg id="svg" version="1.1" xmlns="http://www.w3.org/2000/svg" xmlns:xlink="http://www.w3.org/1999/xlink" width="400" height="400" viewBox="0, 0, 400,400"><g id="svgg"><path id="path0" d="M198.369 131.700 C 198.116 132.528,198.146 133.200,198.435 133.200 C 198.636 133.200,198.800 133.014,198.800 132.787 C 198.800 132.560,199.205 132.211,199.700 132.012 C 200.565 131.665,200.557 131.650,199.500 131.625 C 198.895 131.611,198.386 131.645,198.369 131.700 M207.233 135.633 C 207.692 136.092,208.174 136.360,208.304 136.229 C 208.435 136.099,208.195 135.729,207.771 135.409 C 206.621 134.539,206.281 134.681,207.233 135.633 M209.647 136.771 C 209.272 137.003,209.358 137.148,209.966 137.307 C 210.425 137.427,210.800 137.373,210.800 137.186 C 210.800 136.641,210.204 136.427,209.647 136.771 M211.483 137.996 C 211.597 138.433,211.836 138.701,212.013 138.592 C 212.190 138.482,212.629 138.686,212.987 139.044 C 213.345 139.402,213.722 139.611,213.825 139.508 C 214.049 139.284,212.024 137.200,211.583 137.200 C 211.413 137.200,211.369 137.558,211.483 137.996 M183.095 139.846 C 182.840 140.258,183.432 141.514,183.728 141.188 C 183.822 141.085,183.773 140.652,183.619 140.227 C 183.464 139.801,183.229 139.630,183.095 139.846 M217.083 141.174 C 218.149 142.171,218.906 142.244,218.729 141.333 C 218.652 140.936,218.115 140.603,217.400 140.508 L 216.200 140.349 217.083 141.174 M179.794 141.717 C 179.478 142.491,179.724 142.969,180.321 142.742 C 180.526 142.664,180.556 142.240,180.389 141.800 C 180.106 141.054,180.066 141.048,179.794 141.717 M178.353 142.300 C 178.327 142.465,178.334 142.757,178.369 142.949 C 178.404 143.141,178.170 143.197,177.849 143.074 C 177.529 142.951,177.161 143.124,177.033 143.458 C 176.677 144.387,176.726 144.417,177.800 143.927 C 178.350 143.677,178.800 143.140,178.800 142.736 C 178.800 142.027,178.450 141.686,178.353 142.300 M174.938 144.217 C 174.808 144.557,174.813 144.947,174.951 145.084 C 175.088 145.221,175.200 145.113,175.200 144.843 C 175.200 144.573,175.378 144.463,175.595 144.597 C 175.822 144.737,175.889 144.577,175.753 144.221 C 175.452 143.437,175.238 143.436,174.938 144.217 M231.430 147.952 C 231.094 148.496,231.921 149.316,232.560 149.071 C 232.975 148.912,233.200 149.040,233.200 149.436 C 233.200 149.772,233.380 149.936,233.600 149.800 C 233.820 149.664,234.000 149.397,234.000 149.206 C 234.000 148.736,231.653 147.591,231.430 147.952 M234.400 149.557 C 234.400 149.753,234.849 150.026,235.398 150.164 C 235.946 150.301,236.358 150.546,236.313 150.707 C 236.101 151.457,237.283 152.877,237.737 152.418 C 238.088 152.063,238.029 151.854,237.492 151.551 C 237.102 151.331,236.879 150.996,236.996 150.807 C 237.113 150.618,236.639 150.179,235.943 149.831 C 234.469 149.096,234.400 149.084,234.400 149.557 M163.300 150.665 C 162.604 150.946,162.673 151.600,163.400 151.600 C 163.730 151.600,164.000 151.330,164.000 151.000 C 164.000 150.670,163.955 150.414,163.900 150.432 C 163.845 150.449,163.575 150.554,163.300 150.665 M238.654 151.913 C 238.543 152.092,238.596 152.470,238.771 152.753 C 239.019 153.154,239.141 153.131,239.327 152.646 C 239.579 151.990,238.998 151.357,238.654 151.913 M242.800 154.312 C 242.800 154.484,243.361 154.836,244.046 155.095 C 245.268 155.556,245.279 155.550,244.584 154.783 C 243.879 154.003,242.800 153.719,242.800 154.312 M246.813 155.830 C 246.787 156.673,248.575 157.986,249.206 157.588 C 249.702 157.274,249.678 157.211,249.064 157.206 C 248.659 157.203,247.990 156.795,247.577 156.300 C 247.164 155.805,246.821 155.594,246.813 155.830 M151.455 157.000 C 151.329 157.330,151.399 157.600,151.613 157.600 C 151.826 157.600,152.000 157.409,152.000 157.176 C 152.000 156.943,152.208 156.881,152.462 157.038 C 152.748 157.215,152.815 157.148,152.638 156.862 C 152.244 156.224,151.730 156.284,151.455 157.000 M249.901 157.680 C 249.593 158.483,250.107 159.229,250.711 158.855 C 251.092 158.620,251.082 158.391,250.664 157.820 C 250.217 157.208,250.091 157.185,249.901 157.680 M253.017 159.972 C 252.744 160.414,253.375 160.892,253.744 160.522 C 254.125 160.142,254.054 159.600,253.624 159.600 C 253.417 159.600,253.144 159.768,253.017 159.972 M144.800 161.000 C 144.800 161.330,144.980 161.600,145.200 161.600 C 145.420 161.600,145.600 161.330,145.600 161.000 C 145.600 160.670,145.420 160.400,145.200 160.400 C 144.980 160.400,144.800 160.670,144.800 161.000 M141.900 161.757 C 141.169 162.312,140.984 162.800,141.504 162.800 C 141.671 162.800,142.032 162.440,142.307 162.000 C 142.889 161.068,142.844 161.040,141.900 161.757 M256.000 161.600 C 256.000 161.820,256.251 162.000,256.557 162.000 C 256.864 162.000,257.218 162.270,257.345 162.600 C 257.471 162.930,257.851 163.200,258.187 163.200 C 258.524 163.200,258.800 162.930,258.800 162.600 C 258.800 162.267,258.444 162.000,258.000 162.000 C 257.560 162.000,257.200 161.820,257.200 161.600 C 257.200 161.380,256.930 161.200,256.600 161.200 C 256.270 161.200,256.000 161.380,256.000 161.600 M139.600 163.829 C 139.600 164.986,140.427 166.000,141.371 166.000 C 141.717 166.000,142.000 166.180,142.000 166.400 C 142.000 166.620,142.360 166.800,142.800 166.800 C 143.240 166.800,143.600 166.980,143.600 167.200 C 143.600 167.420,143.870 167.600,144.200 167.600 C 144.530 167.600,144.800 167.497,144.800 167.371 C 144.800 166.902,143.635 166.000,143.029 166.000 C 142.683 166.000,142.400 165.799,142.400 165.553 C 142.400 165.304,142.047 165.199,141.600 165.316 C 140.916 165.495,140.800 165.328,140.800 164.163 C 140.800 163.218,140.616 162.800,140.200 162.800 C 139.822 162.800,139.600 163.181,139.600 163.829 M259.036 163.800 C 258.898 164.350,258.616 164.800,258.409 164.800 C 257.847 164.800,254.400 166.947,254.400 167.297 C 254.400 167.690,256.292 167.693,256.467 167.300 C 256.634 166.924,258.764 165.625,259.700 165.329 C 260.153 165.185,260.400 164.701,260.400 163.953 C 260.400 162.510,259.388 162.396,259.036 163.800 M136.667 167.067 C 136.520 167.213,136.400 168.257,136.400 169.387 C 136.400 170.516,136.184 171.656,135.920 171.920 C 135.547 172.293,135.547 172.400,135.920 172.400 C 136.229 172.400,136.400 173.111,136.400 174.400 C 136.400 175.500,136.220 176.400,136.000 176.400 C 135.780 176.400,135.600 176.760,135.600 177.200 C 135.600 177.640,135.773 178.000,135.984 178.000 C 136.227 178.000,136.377 188.467,136.392 206.268 C 136.414 233.740,136.511 236.073,137.593 235.404 C 137.760 235.301,138.414 235.663,139.048 236.208 C 139.682 236.753,140.425 237.199,140.700 237.200 C 140.975 237.200,141.200 237.399,141.200 237.643 C 141.200 237.886,141.457 237.987,141.771 237.867 C 142.085 237.746,142.557 237.907,142.820 238.224 C 143.083 238.541,143.463 238.800,143.666 238.800 C 143.868 238.800,144.420 239.160,144.892 239.600 C 145.364 240.040,146.066 240.400,146.452 240.400 C 146.837 240.400,147.264 240.580,147.400 240.800 C 147.536 241.020,147.924 241.200,148.262 241.200 C 148.600 241.200,149.354 241.539,149.938 241.953 C 151.618 243.145,153.977 244.400,154.537 244.400 C 154.819 244.400,155.401 244.728,155.831 245.128 C 156.261 245.529,157.191 246.058,157.897 246.304 C 158.604 246.551,159.580 247.123,160.066 247.576 C 160.553 248.029,161.367 248.400,161.875 248.400 C 162.384 248.400,162.800 248.610,162.800 248.867 C 162.800 249.123,162.915 249.218,163.056 249.077 C 163.277 248.856,165.419 249.819,166.000 250.400 C 166.462 250.862,169.721 252.400,170.238 252.400 C 170.547 252.400,170.800 252.552,170.800 252.737 C 170.800 252.923,171.655 253.505,172.700 254.032 C 173.745 254.558,174.690 255.082,174.800 255.195 C 175.330 255.738,176.876 256.400,177.618 256.400 C 178.074 256.400,178.336 256.580,178.200 256.800 C 178.059 257.028,178.404 257.200,179.000 257.200 C 179.576 257.200,179.953 257.353,179.837 257.540 C 179.721 257.728,180.343 258.117,181.219 258.406 C 182.095 258.695,183.007 259.168,183.247 259.457 C 183.487 259.745,184.699 260.474,185.941 261.076 C 187.184 261.678,188.260 262.312,188.333 262.485 C 188.407 262.658,188.767 262.804,189.133 262.809 C 189.500 262.814,190.250 263.170,190.800 263.600 C 191.350 264.030,192.295 264.386,192.900 264.391 C 193.505 264.396,194.000 264.580,194.000 264.800 C 194.000 265.020,194.360 265.200,194.800 265.200 C 195.240 265.200,195.600 265.380,195.600 265.600 C 195.600 265.820,196.140 266.000,196.800 266.000 L 198.000 266.000 198.088 239.500 C 198.137 224.925,198.192 211.020,198.212 208.600 C 198.294 198.593,197.869 197.200,194.739 197.200 C 194.332 197.200,194.000 197.048,194.000 196.863 C 194.000 196.677,193.145 196.092,192.100 195.563 C 191.055 195.033,190.140 194.465,190.067 194.300 C 189.993 194.135,189.588 194.000,189.167 194.000 C 188.745 194.000,188.400 193.820,188.400 193.600 C 188.400 193.380,188.040 193.200,187.600 193.200 C 187.160 193.200,186.800 193.041,186.800 192.847 C 186.800 192.652,186.485 192.393,186.100 192.271 C 185.715 192.149,184.950 191.791,184.400 191.475 C 183.850 191.159,182.590 190.491,181.600 189.991 C 175.599 186.959,173.385 185.766,173.267 185.500 C 173.193 185.335,172.788 185.200,172.367 185.200 C 171.945 185.200,171.600 185.062,171.600 184.894 C 171.600 184.432,168.253 182.952,166.976 182.850 C 166.633 182.822,166.452 182.639,166.574 182.442 C 166.769 182.126,165.959 181.586,165.375 181.643 C 165.255 181.655,164.729 181.383,164.204 181.040 C 162.079 179.647,160.333 178.800,159.588 178.800 C 159.155 178.800,158.800 178.648,158.800 178.463 C 158.800 178.277,157.945 177.692,156.900 177.163 C 155.855 176.633,154.940 176.065,154.867 175.900 C 154.793 175.735,154.388 175.600,153.967 175.600 C 153.545 175.600,153.200 175.420,153.200 175.200 C 153.200 174.980,153.065 174.831,152.900 174.870 C 152.485 174.966,150.312 173.916,149.681 173.315 C 149.396 173.042,148.496 172.530,147.681 172.176 C 146.867 171.822,145.887 171.368,145.505 171.166 C 145.123 170.965,144.538 170.800,144.205 170.800 C 143.872 170.800,143.600 170.620,143.600 170.400 C 143.600 170.180,143.240 170.000,142.800 170.000 C 142.360 170.000,142.000 169.820,142.000 169.600 C 142.000 169.380,141.640 169.200,141.200 169.200 C 140.760 169.200,140.400 169.020,140.400 168.800 C 140.400 168.580,140.122 168.400,139.783 168.400 C 139.444 168.400,138.780 168.040,138.308 167.600 C 137.389 166.744,137.088 166.646,136.667 167.067 M262.400 167.082 C 262.400 167.273,261.998 167.460,261.506 167.497 C 261.014 167.534,260.549 167.752,260.473 167.982 C 260.396 168.212,259.988 168.400,259.567 168.400 C 259.145 168.400,258.800 168.580,258.800 168.800 C 258.800 169.020,258.455 169.200,258.033 169.200 C 257.612 169.200,257.207 169.341,257.133 169.512 C 257.060 169.684,254.210 171.218,250.800 172.920 C 243.881 176.376,242.262 177.262,242.067 177.700 C 241.993 177.865,241.588 178.000,241.167 178.000 C 240.745 178.000,240.400 178.180,240.400 178.400 C 240.400 178.620,240.040 178.800,239.600 178.800 C 239.160 178.800,238.800 178.959,238.800 179.153 C 238.800 179.348,238.485 179.607,238.100 179.729 C 237.715 179.851,236.950 180.216,236.400 180.540 C 235.850 180.864,234.050 181.777,232.400 182.569 C 228.832 184.281,227.049 185.290,226.867 185.700 C 226.793 185.865,226.388 186.000,225.967 186.000 C 225.545 186.000,225.200 186.180,225.200 186.400 C 225.200 186.620,224.855 186.800,224.433 186.800 C 224.012 186.800,223.607 186.941,223.533 187.113 C 223.460 187.285,221.330 188.464,218.800 189.734 C 213.865 192.210,212.259 193.076,210.650 194.130 C 210.088 194.499,209.367 194.800,209.047 194.800 C 208.728 194.800,208.407 194.941,208.333 195.114 C 208.260 195.286,206.820 196.104,205.134 196.931 C 203.448 197.759,201.872 198.672,201.632 198.961 C 201.322 199.334,201.225 209.249,201.298 233.044 L 201.400 266.600 202.355 266.735 C 202.880 266.809,203.420 266.719,203.555 266.535 C 203.944 266.003,205.532 265.200,206.195 265.200 C 206.528 265.200,206.800 265.020,206.800 264.800 C 206.800 264.580,207.160 264.400,207.600 264.400 C 208.040 264.400,208.400 264.220,208.400 264.000 C 208.400 263.780,208.745 263.600,209.167 263.600 C 209.588 263.600,209.993 263.464,210.067 263.298 C 210.140 263.132,211.415 262.385,212.900 261.638 C 214.385 260.891,215.600 260.127,215.600 259.940 C 215.600 259.753,215.834 259.600,216.120 259.600 C 216.856 259.600,218.793 258.659,218.797 258.300 C 218.799 258.135,219.160 258.000,219.600 258.000 C 220.040 258.000,220.400 257.820,220.400 257.600 C 220.400 257.380,220.760 257.200,221.200 257.200 C 221.640 257.200,222.000 257.020,222.000 256.800 C 222.000 256.580,222.360 256.400,222.800 256.400 C 223.240 256.400,223.600 256.220,223.600 256.000 C 223.600 255.780,223.960 255.600,224.400 255.600 C 224.840 255.600,225.200 255.420,225.200 255.200 C 225.200 254.980,225.545 254.800,225.967 254.800 C 226.388 254.800,226.793 254.665,226.867 254.500 C 226.940 254.335,228.080 253.641,229.400 252.957 C 233.462 250.853,235.391 249.809,235.600 249.600 C 236.078 249.122,237.639 248.400,238.195 248.400 C 238.528 248.400,238.800 248.220,238.800 248.000 C 238.800 247.780,239.160 247.600,239.600 247.600 C 240.040 247.600,240.400 247.420,240.400 247.200 C 240.400 246.980,240.745 246.800,241.167 246.800 C 241.588 246.800,241.993 246.663,242.067 246.496 C 242.140 246.329,243.775 245.403,245.700 244.438 C 247.625 243.474,249.200 242.530,249.200 242.342 C 249.200 242.154,249.560 242.000,250.000 242.000 C 250.440 242.000,250.800 241.820,250.800 241.600 C 250.800 241.380,251.160 241.200,251.600 241.200 C 252.040 241.200,252.400 241.020,252.400 240.800 C 252.400 240.580,252.760 240.400,253.200 240.400 C 253.640 240.400,254.000 240.220,254.000 240.000 C 254.000 239.780,254.360 239.600,254.800 239.600 C 255.240 239.600,255.600 239.420,255.600 239.200 C 255.600 238.980,255.960 238.800,256.400 238.800 C 256.840 238.800,257.200 238.620,257.200 238.400 C 257.200 238.180,257.560 238.000,258.000 238.000 C 258.440 238.000,258.800 237.864,258.800 237.698 C 258.800 237.531,259.385 237.143,260.100 236.835 C 260.815 236.527,261.896 235.930,262.502 235.508 L 263.605 234.742 263.502 200.904 C 263.422 174.263,263.294 167.031,262.900 166.900 C 262.625 166.808,262.400 166.890,262.400 167.082 M252.961 167.756 C 252.816 168.136,252.465 168.357,252.181 168.248 C 251.898 168.139,251.567 168.309,251.446 168.625 C 251.324 168.941,250.949 169.200,250.613 169.200 C 250.276 169.200,250.000 169.380,250.000 169.600 C 250.000 169.820,249.730 170.000,249.400 170.000 C 249.070 170.000,248.800 170.188,248.800 170.418 C 248.800 170.647,248.575 170.806,248.300 170.770 C 247.287 170.639,246.759 170.810,246.997 171.194 C 247.369 171.796,248.542 171.477,250.348 170.282 C 251.247 169.687,252.180 169.200,252.420 169.200 C 253.251 169.200,254.146 167.986,253.667 167.507 C 253.346 167.186,253.154 167.253,252.961 167.756 M147.816 169.627 C 147.961 169.861,148.182 169.951,148.308 169.826 C 148.433 169.701,148.865 169.897,149.268 170.261 C 150.126 171.038,150.267 170.610,149.429 169.771 C 148.768 169.111,147.423 168.990,147.816 169.627 M152.800 171.754 C 152.800 172.273,154.789 173.142,155.041 172.734 C 155.216 172.451,155.146 172.386,154.859 172.564 C 154.599 172.724,154.289 172.575,154.154 172.225 C 153.951 171.695,152.800 171.295,152.800 171.754 M244.629 172.209 C 243.721 172.896,244.136 173.562,245.095 172.957 C 245.825 172.497,246.254 171.593,245.733 171.613 C 245.550 171.620,245.053 171.888,244.629 172.209 M156.170 173.551 C 156.722 174.444,160.400 175.809,160.400 175.122 C 160.400 174.898,160.113 174.824,159.763 174.959 C 159.342 175.120,159.057 174.940,158.924 174.429 C 158.812 174.002,158.488 173.745,158.201 173.855 C 157.915 173.965,157.562 173.862,157.417 173.627 C 157.272 173.392,156.883 173.200,156.553 173.200 C 156.223 173.200,156.051 173.358,156.170 173.551 M241.800 174.000 C 241.140 174.408,240.285 174.755,239.900 174.771 C 239.515 174.787,239.200 174.974,239.200 175.187 C 239.200 175.401,238.932 175.472,238.603 175.346 C 238.263 175.215,237.901 175.392,237.761 175.758 C 237.625 176.111,237.138 176.400,236.677 176.400 C 236.041 176.400,235.952 176.512,236.305 176.865 C 236.796 177.356,243.600 174.257,243.600 173.542 C 243.600 173.048,243.159 173.160,241.800 174.000 M162.003 176.725 C 162.007 177.091,164.088 178.046,164.338 177.796 C 164.445 177.688,164.323 177.600,164.067 177.600 C 163.810 177.600,163.600 177.368,163.600 177.085 C 163.600 176.802,163.240 176.543,162.800 176.510 C 162.360 176.477,162.001 176.574,162.003 176.725 M234.800 177.647 C 234.800 177.893,234.449 178.002,234.018 177.889 C 233.482 177.749,233.027 178.004,232.569 178.704 C 231.931 179.678,231.934 179.710,232.650 179.417 C 233.063 179.248,233.715 179.019,234.100 178.908 C 234.485 178.797,234.800 178.548,234.800 178.353 C 234.800 178.159,235.160 178.000,235.600 178.000 C 236.040 178.000,236.400 177.820,236.400 177.600 C 236.400 177.380,236.040 177.200,235.600 177.200 C 235.160 177.200,234.800 177.401,234.800 177.647 M167.800 180.000 C 167.936 180.220,168.386 180.400,168.800 180.400 C 169.214 180.400,169.664 180.580,169.800 180.800 C 170.088 181.267,170.801 181.338,170.797 180.900 C 170.793 180.535,168.851 179.600,168.097 179.600 C 167.798 179.600,167.664 179.780,167.800 180.000 M229.660 180.242 C 229.362 180.578,229.236 180.969,229.379 181.112 C 229.699 181.433,230.896 180.713,231.110 180.071 C 231.335 179.396,230.300 179.518,229.660 180.242 M171.600 181.432 C 171.600 181.774,172.873 182.770,173.333 182.787 C 173.517 182.794,173.592 182.575,173.500 182.300 C 173.408 182.025,173.168 181.797,172.967 181.794 C 172.765 181.791,172.375 181.645,172.100 181.470 C 171.825 181.296,171.600 181.279,171.600 181.432 M227.200 181.667 C 227.200 181.850,226.941 182.000,226.624 182.000 C 226.307 182.000,225.943 182.169,225.815 182.376 C 225.419 183.016,227.198 182.665,227.818 181.980 C 228.333 181.412,228.331 181.333,227.802 181.333 C 227.471 181.333,227.200 181.483,227.200 181.667 M175.400 183.200 C 175.264 183.420,175.351 183.600,175.593 183.600 C 175.835 183.600,176.420 183.960,176.892 184.400 C 177.364 184.840,177.931 185.200,178.151 185.200 C 178.371 185.200,178.157 184.833,177.675 184.384 C 177.194 183.936,176.800 183.396,176.800 183.184 C 176.800 182.677,175.716 182.689,175.400 183.200 M223.782 183.170 C 223.905 183.369,223.779 183.612,223.502 183.711 C 223.226 183.810,223.139 184.039,223.310 184.221 C 223.480 184.403,223.899 184.273,224.241 183.931 C 224.803 183.369,224.800 183.285,224.210 183.059 C 223.852 182.922,223.659 182.972,223.782 183.170 M220.008 185.189 C 219.686 185.635,219.013 186.000,218.512 186.000 C 217.941 186.000,217.600 186.240,217.600 186.643 C 217.600 187.050,217.380 187.201,217.000 187.055 C 216.670 186.929,216.400 186.999,216.400 187.213 C 216.400 187.805,217.441 187.674,217.989 187.013 C 218.257 186.690,218.594 186.463,218.738 186.510 C 219.228 186.667,220.888 185.265,220.740 184.821 C 220.658 184.574,220.334 184.736,220.008 185.189 M183.200 187.361 C 183.200 188.040,183.853 188.564,184.130 188.107 C 184.232 187.938,184.065 187.568,183.758 187.284 C 183.300 186.861,183.200 186.874,183.200 187.361 M212.860 189.042 C 212.131 189.866,212.600 190.257,213.381 189.476 C 213.721 189.136,214.000 188.754,214.000 188.629 C 214.000 188.209,213.406 188.424,212.860 189.042 M211.276 189.849 C 210.988 190.162,210.613 190.332,210.443 190.226 C 210.273 190.121,210.133 190.288,210.133 190.596 C 210.133 191.210,211.325 190.768,211.818 189.971 C 212.230 189.304,211.856 189.220,211.276 189.849 M200.000 194.967 C 200.000 195.315,200.285 195.600,200.633 195.600 C 201.340 195.600,201.217 194.739,200.475 194.492 C 200.214 194.405,200.000 194.618,200.000 194.967 " stroke="none" fill="#f6aa08" fill-rule="evenodd"></path><path id="path1" d="M198.800 95.200 C 198.800 95.420,198.519 95.600,198.176 95.600 C 197.833 95.600,197.667 95.784,197.806 96.010 C 197.945 96.235,197.911 96.394,197.730 96.363 C 196.841 96.208,196.073 96.472,195.292 97.200 C 194.820 97.640,194.156 98.000,193.817 98.000 C 193.478 98.000,193.199 98.135,193.197 98.300 C 193.193 98.652,191.262 99.600,190.547 99.600 C 190.276 99.600,189.940 99.960,189.800 100.400 C 189.660 100.840,189.368 101.200,189.149 101.200 C 188.931 101.200,188.864 101.020,189.000 100.800 C 189.452 100.069,188.705 100.387,187.964 101.241 C 187.563 101.704,186.794 102.109,186.256 102.141 C 185.717 102.174,185.360 102.335,185.462 102.500 C 185.564 102.665,185.187 102.800,184.624 102.800 C 183.948 102.800,183.600 103.020,183.600 103.447 C 183.600 103.897,183.356 104.030,182.799 103.884 C 182.359 103.769,182.100 103.838,182.223 104.037 C 182.346 104.237,182.078 104.400,181.627 104.400 C 181.176 104.400,180.582 104.760,180.307 105.200 C 180.032 105.640,179.660 106.000,179.480 106.000 C 179.300 106.000,179.288 105.775,179.453 105.500 C 179.660 105.156,179.544 105.170,179.081 105.545 C 178.711 105.845,178.525 106.278,178.666 106.507 C 178.819 106.754,178.729 106.803,178.444 106.627 C 178.181 106.464,177.529 106.617,176.996 106.966 C 176.464 107.314,175.795 107.600,175.510 107.600 C 175.225 107.600,174.768 107.960,174.493 108.400 C 174.218 108.840,173.579 109.200,173.072 109.200 C 172.565 109.200,171.764 109.560,171.292 110.000 C 170.820 110.440,170.058 110.800,169.600 110.800 C 169.142 110.800,168.380 111.160,167.908 111.600 C 167.127 112.328,166.359 112.592,165.470 112.437 C 165.289 112.406,165.255 112.565,165.394 112.790 C 165.542 113.029,165.221 113.200,164.624 113.200 C 163.831 113.200,163.599 113.403,163.594 114.100 C 163.589 114.812,163.510 114.877,163.215 114.410 C 162.901 113.914,162.671 113.977,161.757 114.810 C 161.160 115.355,160.809 115.562,160.977 115.270 C 161.231 114.832,161.139 114.831,160.442 115.267 C 159.979 115.556,159.600 115.929,159.600 116.096 C 159.600 116.263,159.259 116.400,158.843 116.400 C 158.426 116.400,157.981 116.672,157.854 117.004 C 157.727 117.336,157.482 117.577,157.311 117.540 C 156.682 117.404,155.600 118.102,155.600 118.643 C 155.600 118.949,155.465 119.170,155.300 119.134 C 154.764 119.017,152.607 119.713,152.364 120.082 C 152.234 120.279,151.694 120.468,151.164 120.501 C 150.634 120.535,149.909 120.886,149.553 121.281 C 149.197 121.676,148.432 122.000,147.853 122.000 C 147.274 122.000,146.800 122.180,146.800 122.400 C 146.800 122.620,146.540 122.800,146.223 122.800 C 145.905 122.800,145.394 123.159,145.087 123.597 C 144.780 124.036,144.414 124.280,144.274 124.140 C 144.133 124.000,143.905 124.181,143.767 124.543 C 143.616 124.935,143.065 125.200,142.400 125.200 C 141.758 125.200,141.184 125.465,141.046 125.825 C 140.914 126.169,140.637 126.346,140.430 126.219 C 140.224 126.091,139.942 126.170,139.804 126.393 C 139.666 126.617,139.203 126.800,138.776 126.800 C 138.349 126.800,138.000 126.980,138.000 127.200 C 138.000 127.420,137.722 127.600,137.383 127.600 C 137.044 127.600,136.380 127.960,135.908 128.400 C 135.127 129.128,134.359 129.392,133.470 129.237 C 133.289 129.206,133.255 129.365,133.394 129.590 C 133.542 129.829,133.221 130.000,132.624 130.000 C 132.061 130.000,131.600 130.180,131.600 130.400 C 131.600 130.620,131.240 130.800,130.800 130.800 C 130.360 130.800,130.000 130.980,130.000 131.200 C 130.000 131.420,129.787 131.600,129.526 131.600 C 129.265 131.600,128.606 132.005,128.061 132.500 C 127.517 132.995,127.226 133.133,127.416 132.807 C 127.606 132.481,127.251 132.616,126.627 133.107 C 126.003 133.598,125.246 134.000,124.946 134.000 C 124.646 134.000,124.400 134.180,124.400 134.400 C 124.400 134.620,124.040 134.800,123.600 134.800 C 123.160 134.800,122.794 135.025,122.787 135.300 C 122.780 135.575,122.155 136.090,121.398 136.444 C 120.641 136.798,120.133 136.888,120.270 136.644 C 120.406 136.400,120.275 136.425,119.979 136.700 C 119.682 136.975,119.116 137.200,118.720 137.200 C 118.324 137.200,118.000 137.380,118.000 137.600 C 118.000 137.820,117.706 138.000,117.347 138.000 C 116.988 138.000,116.382 138.360,116.000 138.800 C 115.618 139.240,114.845 139.638,114.282 139.685 C 113.719 139.732,113.345 139.912,113.452 140.085 C 113.560 140.258,113.299 140.400,112.873 140.400 C 112.447 140.400,111.879 140.664,111.611 140.987 C 111.343 141.310,111.006 141.535,110.862 141.487 C 109.979 141.193,106.801 143.875,106.801 144.914 C 106.800 145.884,106.898 145.976,107.558 145.622 C 108.362 145.192,108.840 145.537,109.325 146.900 C 109.463 147.285,109.851 147.600,110.187 147.600 C 110.524 147.600,110.800 147.780,110.800 148.000 C 110.800 148.220,111.160 148.400,111.600 148.400 C 112.040 148.400,112.400 148.580,112.400 148.800 C 112.400 149.020,112.900 149.200,113.512 149.200 C 114.165 149.200,114.861 149.530,115.200 150.000 C 115.517 150.440,116.097 150.800,116.488 150.800 C 116.880 150.800,117.200 150.980,117.200 151.200 C 117.200 151.420,117.453 151.600,117.762 151.600 C 118.428 151.600,121.741 153.268,121.933 153.700 C 122.007 153.865,122.412 154.000,122.833 154.000 C 123.255 154.000,123.600 154.152,123.600 154.337 C 123.600 154.523,124.455 155.108,125.500 155.637 C 126.545 156.167,127.460 156.735,127.533 156.900 C 127.607 157.065,128.012 157.200,128.433 157.200 C 128.855 157.200,129.200 157.380,129.200 157.600 C 129.200 157.820,129.560 158.000,130.000 158.000 C 130.440 158.000,130.800 158.180,130.800 158.400 C 130.800 158.620,131.160 158.800,131.600 158.800 C 132.040 158.800,132.400 158.980,132.400 159.200 C 132.400 159.420,132.816 159.600,133.325 159.600 C 133.833 159.600,134.598 159.920,135.025 160.311 C 135.990 161.196,138.000 161.417,138.000 160.638 C 138.000 160.334,138.279 159.978,138.621 159.847 C 138.977 159.711,139.137 159.778,138.997 160.005 C 138.863 160.222,138.943 160.400,139.176 160.400 C 139.409 160.400,139.600 160.130,139.600 159.800 C 139.600 158.426,141.178 157.459,142.100 158.267 C 142.832 158.909,142.905 158.916,142.692 158.330 C 142.424 157.593,143.880 156.400,145.048 156.400 C 145.656 156.400,145.647 156.486,144.962 157.257 C 144.203 158.110,144.203 158.111,145.097 157.562 C 145.683 157.202,145.916 156.766,145.770 156.306 C 145.510 155.487,146.381 155.341,147.120 156.080 C 147.493 156.453,147.707 156.453,148.080 156.080 C 148.453 155.707,148.367 155.600,147.693 155.600 C 147.066 155.600,146.893 155.424,147.068 154.968 C 147.213 154.588,147.608 154.413,148.055 154.530 C 148.465 154.637,148.800 154.606,148.800 154.460 C 148.800 154.314,149.385 153.956,150.100 153.664 C 152.376 152.734,153.200 152.274,153.200 151.932 C 153.200 151.750,153.560 151.600,154.000 151.600 C 154.440 151.600,154.800 151.420,154.800 151.200 C 154.800 150.980,155.160 150.800,155.600 150.800 C 156.040 150.800,156.400 150.620,156.400 150.400 C 156.400 150.180,156.745 150.000,157.167 150.000 C 157.588 150.000,158.009 149.775,158.102 149.500 C 158.233 149.111,158.418 149.123,158.940 149.553 C 159.536 150.045,159.598 150.001,159.505 149.153 C 159.439 148.552,159.589 148.238,159.911 148.304 C 160.192 148.361,160.527 148.136,160.654 147.804 C 160.781 147.472,161.091 147.199,161.343 147.198 C 161.594 147.197,163.026 146.567,164.524 145.798 C 167.341 144.353,168.238 144.123,168.467 144.787 C 168.552 145.034,168.818 145.036,169.200 144.793 C 169.712 144.468,169.697 144.411,169.100 144.406 C 168.715 144.403,168.400 144.136,168.400 143.813 C 168.400 143.474,168.637 143.316,168.960 143.440 C 169.267 143.558,169.638 143.462,169.783 143.227 C 169.928 142.992,170.397 142.800,170.824 142.800 C 171.251 142.800,171.600 142.536,171.600 142.213 C 171.600 141.855,171.835 141.715,172.200 141.855 C 172.530 141.982,172.800 141.886,172.800 141.643 C 172.800 141.399,173.166 141.200,173.613 141.200 C 174.059 141.200,174.521 140.950,174.638 140.644 C 174.762 140.323,175.178 140.174,175.626 140.291 C 176.052 140.402,176.400 140.292,176.400 140.047 C 176.400 139.801,176.651 139.600,176.957 139.600 C 177.264 139.600,177.622 139.319,177.754 138.975 C 177.886 138.631,178.162 138.453,178.367 138.580 C 178.818 138.858,180.800 138.008,180.800 137.536 C 180.800 137.351,181.160 137.200,181.600 137.200 C 182.040 137.200,182.400 137.020,182.400 136.800 C 182.400 136.580,182.670 136.400,183.000 136.400 C 183.330 136.400,183.600 136.580,183.600 136.800 C 183.600 137.434,184.388 137.268,185.491 136.400 C 186.214 135.831,186.325 135.600,185.874 135.600 C 185.525 135.600,185.064 135.914,184.850 136.297 C 184.635 136.680,184.325 136.858,184.159 136.692 C 183.823 136.357,185.328 134.800,185.989 134.800 C 186.506 134.800,188.108 133.926,188.450 133.457 C 188.588 133.269,188.816 133.303,188.958 133.533 C 189.101 133.763,188.898 134.136,188.508 134.363 C 188.119 134.590,188.023 134.781,188.297 134.788 C 188.570 134.795,189.018 134.440,189.293 134.000 C 189.568 133.560,189.940 133.200,190.120 133.200 C 190.300 133.200,190.319 133.408,190.162 133.662 C 189.979 133.957,190.053 134.015,190.365 133.821 C 190.634 133.655,190.764 133.284,190.654 132.997 C 190.366 132.245,192.757 131.284,193.187 131.979 C 193.408 132.337,193.580 132.356,193.774 132.043 C 193.924 131.799,193.857 131.600,193.624 131.600 C 193.391 131.600,193.200 131.445,193.200 131.255 C 193.200 131.065,193.664 130.961,194.231 131.023 C 194.999 131.108,195.204 130.987,195.035 130.547 C 194.911 130.223,194.973 130.059,195.172 130.183 C 195.372 130.306,195.807 130.136,196.139 129.804 C 196.471 129.472,197.011 129.200,197.338 129.200 C 197.665 129.200,198.001 128.996,198.084 128.748 C 198.283 128.152,202.048 128.230,202.423 128.838 C 202.581 129.093,202.897 129.187,203.125 129.046 C 203.353 128.905,203.600 129.107,203.675 129.494 C 203.750 129.882,204.078 130.218,204.405 130.242 C 205.784 130.342,206.800 130.938,206.800 131.647 C 206.800 132.241,207.096 132.400,208.200 132.400 C 208.970 132.400,209.600 132.580,209.600 132.800 C 209.600 133.020,209.830 133.200,210.112 133.200 C 210.393 133.200,210.883 133.560,211.200 134.000 C 211.776 134.800,212.667 135.156,212.200 134.400 C 212.064 134.180,212.244 134.000,212.600 134.000 C 212.956 134.000,213.136 134.180,213.000 134.400 C 212.864 134.620,212.991 134.800,213.281 134.800 C 213.572 134.800,214.151 135.253,214.567 135.807 C 215.060 136.465,215.568 136.737,216.028 136.591 C 216.416 136.468,216.848 136.555,216.990 136.784 C 217.131 137.013,217.597 137.200,218.024 137.200 C 218.451 137.200,218.800 137.459,218.800 137.776 C 218.800 138.093,219.008 138.481,219.262 138.638 C 219.573 138.830,219.617 138.740,219.397 138.362 C 219.218 138.053,219.505 138.169,220.035 138.619 C 221.781 140.101,222.571 140.629,222.253 140.100 C 222.052 139.765,222.224 139.600,222.776 139.600 C 223.229 139.600,223.600 139.780,223.600 140.000 C 223.600 140.220,223.870 140.400,224.200 140.400 C 224.530 140.400,224.800 140.580,224.800 140.800 C 224.800 141.020,225.250 141.200,225.800 141.200 C 226.350 141.200,226.800 141.396,226.800 141.636 C 226.800 142.339,228.521 143.572,229.524 143.587 C 230.050 143.594,230.338 143.776,230.194 144.010 C 230.055 144.235,230.089 144.394,230.270 144.363 C 232.481 143.979,234.084 144.447,233.898 145.423 C 233.754 146.176,233.847 146.391,234.251 146.236 C 234.553 146.120,234.803 146.244,234.806 146.513 C 234.810 146.840,234.930 146.814,235.170 146.435 C 235.472 145.958,235.630 145.973,236.192 146.535 C 236.558 146.901,236.732 147.200,236.580 147.200 C 236.427 147.200,236.526 147.470,236.800 147.800 C 237.074 148.130,237.478 148.400,237.698 148.400 C 237.939 148.400,237.918 148.183,237.645 147.855 C 237.279 147.414,237.384 147.346,238.197 147.501 C 239.197 147.693,239.620 148.400,238.733 148.400 C 238.477 148.400,238.371 148.505,238.499 148.632 C 238.627 148.760,239.133 148.650,239.624 148.387 C 240.433 147.954,240.496 147.988,240.296 148.754 C 240.175 149.219,240.238 149.700,240.438 149.823 C 240.637 149.946,240.800 149.857,240.800 149.624 C 240.800 149.391,241.010 149.200,241.267 149.200 C 241.523 149.200,241.615 149.318,241.470 149.463 C 241.160 149.773,241.930 150.800,242.473 150.800 C 242.679 150.800,242.736 150.620,242.600 150.400 C 242.164 149.694,243.205 149.973,244.092 150.800 C 244.564 151.240,245.296 151.600,245.718 151.600 C 246.261 151.600,246.413 151.789,246.237 152.248 C 246.046 152.747,246.174 152.848,246.794 152.686 C 247.237 152.570,247.700 152.638,247.823 152.838 C 247.946 153.037,248.353 153.200,248.727 153.200 C 249.101 153.200,249.632 153.560,249.907 154.000 C 250.182 154.440,250.771 154.800,251.216 154.800 C 251.682 154.800,252.179 155.182,252.388 155.700 C 252.587 156.195,252.761 156.444,252.775 156.254 C 252.789 156.064,253.237 156.194,253.770 156.544 C 254.503 157.024,254.796 157.060,254.970 156.690 C 255.150 156.307,255.251 156.309,255.433 156.700 C 255.562 156.975,256.022 157.200,256.457 157.200 C 256.892 157.200,257.148 157.361,257.026 157.558 C 256.904 157.755,257.173 158.340,257.625 158.858 C 258.425 159.777,258.434 159.778,258.012 158.907 C 257.598 158.052,257.677 158.065,259.879 159.207 C 262.188 160.405,266.000 160.899,266.000 160.000 C 266.000 159.780,266.281 159.600,266.624 159.600 C 266.967 159.600,267.159 159.457,267.051 159.283 C 266.944 159.109,267.199 158.940,267.619 158.909 C 268.038 158.877,269.183 158.300,270.163 157.626 C 271.143 156.951,272.227 156.400,272.572 156.400 C 272.917 156.400,273.200 156.220,273.200 156.000 C 273.200 155.780,273.560 155.600,274.000 155.600 C 274.440 155.600,274.800 155.420,274.800 155.200 C 274.800 154.980,274.984 154.800,275.209 154.800 C 275.433 154.800,276.323 154.333,277.185 153.762 C 278.077 153.172,278.963 152.854,279.239 153.024 C 279.547 153.215,279.620 153.156,279.438 152.862 C 279.251 152.559,279.505 152.400,280.176 152.400 C 280.739 152.400,281.200 152.220,281.200 152.000 C 281.200 151.780,281.520 151.600,281.912 151.600 C 282.303 151.600,282.883 151.240,283.200 150.800 C 283.517 150.360,284.001 150.000,284.276 150.000 C 284.765 150.000,286.748 148.977,288.557 147.791 C 289.056 147.464,289.613 147.333,289.796 147.499 C 289.979 147.664,290.021 147.611,289.890 147.380 C 289.759 147.149,290.019 146.731,290.468 146.451 C 290.918 146.169,291.165 146.133,291.018 146.370 C 290.872 146.607,290.915 146.800,291.112 146.800 C 291.310 146.800,291.681 146.340,291.937 145.777 C 292.194 145.215,292.583 144.866,292.802 145.001 C 293.417 145.382,293.272 144.015,292.629 143.371 C 291.828 142.570,291.502 142.660,291.800 143.600 C 291.946 144.059,291.872 144.400,291.627 144.400 C 291.392 144.400,291.200 144.248,291.200 144.061 C 291.200 143.517,289.750 142.000,289.229 142.000 C 288.967 142.000,288.840 141.858,288.948 141.685 C 289.055 141.512,288.669 141.331,288.091 141.283 C 287.512 141.235,286.535 140.713,285.919 140.122 C 285.303 139.532,284.394 138.988,283.899 138.913 C 283.405 138.838,282.940 138.602,282.867 138.388 C 282.793 138.175,282.468 138.000,282.143 138.000 C 281.799 138.000,281.672 137.808,281.838 137.538 C 282.007 137.264,281.949 137.185,281.694 137.342 C 281.458 137.488,280.993 137.336,280.661 137.004 C 280.329 136.672,279.672 136.400,279.202 136.400 C 278.203 136.400,276.975 135.794,275.850 134.746 C 275.409 134.336,274.673 134.000,274.213 134.000 C 273.753 134.000,273.117 133.640,272.800 133.200 C 272.483 132.760,271.939 132.400,271.592 132.400 C 271.244 132.400,270.789 132.235,270.580 132.034 C 270.371 131.832,269.750 131.607,269.200 131.534 C 268.650 131.460,268.200 131.190,268.200 130.933 C 268.200 130.677,268.036 130.317,267.836 130.133 C 267.624 129.940,267.592 130.010,267.759 130.300 C 267.918 130.575,267.857 130.800,267.624 130.800 C 267.391 130.800,267.200 130.609,267.200 130.376 C 267.200 130.143,266.992 130.081,266.738 130.238 C 266.443 130.421,266.385 130.347,266.578 130.035 C 266.771 129.724,266.575 129.466,266.040 129.326 C 265.578 129.206,265.200 128.948,265.200 128.753 C 265.200 128.559,264.840 128.400,264.400 128.400 C 263.960 128.400,263.600 128.220,263.600 128.000 C 263.600 127.780,263.139 127.600,262.576 127.600 C 261.934 127.600,261.654 127.436,261.825 127.160 C 262.005 126.869,261.793 126.882,261.200 127.200 C 260.607 127.518,260.395 127.531,260.575 127.240 C 260.741 126.972,260.510 126.800,259.986 126.800 C 259.462 126.800,259.043 126.487,258.916 126.000 C 258.747 125.353,258.370 125.200,256.953 125.200 C 255.678 125.200,255.200 125.040,255.200 124.613 C 255.200 124.229,254.969 124.114,254.534 124.281 C 254.048 124.467,253.958 124.392,254.200 124.000 C 254.444 123.606,254.351 123.533,253.850 123.725 C 253.423 123.889,253.082 123.758,252.933 123.370 C 252.803 123.031,252.459 122.845,252.169 122.957 C 251.879 123.068,251.533 122.818,251.400 122.400 C 251.265 121.976,250.921 121.732,250.621 121.847 C 250.325 121.961,249.814 121.669,249.484 121.199 C 249.051 120.581,248.827 120.490,248.674 120.872 C 248.558 121.162,248.449 120.995,248.432 120.500 C 248.413 119.965,248.147 119.600,247.776 119.600 C 247.433 119.600,247.264 119.780,247.400 120.000 C 247.536 120.220,247.383 120.400,247.061 120.400 C 246.672 120.400,246.545 120.131,246.684 119.600 C 246.806 119.135,246.696 118.800,246.423 118.800 C 246.164 118.800,246.064 118.980,246.200 119.200 C 246.336 119.420,246.156 119.600,245.800 119.600 C 245.444 119.600,245.242 119.456,245.350 119.281 C 245.868 118.443,244.830 117.805,244.244 118.602 C 243.572 119.515,242.840 118.549,243.423 117.519 C 243.659 117.102,243.611 117.099,243.179 117.500 C 242.403 118.220,242.000 118.117,242.000 117.200 C 242.000 116.760,241.820 116.400,241.600 116.400 C 241.380 116.400,241.200 116.580,241.200 116.800 C 241.200 117.020,240.918 117.200,240.573 117.200 C 240.128 117.200,240.020 116.968,240.200 116.400 C 240.396 115.781,240.272 115.600,239.651 115.600 C 239.209 115.600,238.724 115.401,238.574 115.157 C 238.379 114.842,238.212 114.858,237.994 115.210 C 237.778 115.559,237.607 115.453,237.417 114.853 C 237.264 114.370,236.811 114.000,236.373 114.000 C 235.948 114.000,235.600 113.820,235.600 113.600 C 235.600 113.380,235.354 113.200,235.054 113.200 C 234.754 113.200,234.034 112.827,233.454 112.371 C 232.874 111.915,232.400 111.735,232.400 111.971 C 232.400 112.207,232.220 112.400,232.000 112.400 C 231.780 112.400,231.600 112.040,231.600 111.600 C 231.600 111.160,231.420 110.800,231.200 110.800 C 230.980 110.800,230.800 110.980,230.800 111.200 C 230.800 111.420,230.620 111.600,230.400 111.600 C 230.180 111.600,230.000 111.240,230.000 110.800 C 230.000 109.946,229.416 109.726,228.988 110.420 C 228.827 110.680,228.457 110.527,228.017 110.020 C 227.626 109.569,227.092 109.200,226.829 109.200 C 226.567 109.200,226.454 109.037,226.577 108.837 C 226.700 108.638,226.441 108.569,226.001 108.684 C 225.444 108.830,225.200 108.697,225.200 108.247 C 225.200 107.873,224.872 107.600,224.424 107.600 C 223.997 107.600,223.536 107.420,223.400 107.200 C 223.264 106.980,222.973 106.800,222.753 106.800 C 222.533 106.800,222.464 106.980,222.600 107.200 C 223.018 107.876,222.132 107.643,221.549 106.923 C 221.176 106.463,221.160 106.343,221.500 106.547 C 221.775 106.712,222.000 106.692,222.000 106.503 C 222.000 106.313,221.361 106.140,220.581 106.118 C 219.625 106.091,218.894 105.771,218.343 105.139 C 217.892 104.623,217.293 104.248,217.010 104.306 C 216.728 104.365,216.373 104.005,216.221 103.506 C 216.042 102.914,215.871 102.783,215.730 103.128 C 215.573 103.514,215.358 103.433,214.935 102.828 C 214.616 102.373,214.110 102.000,213.811 102.000 C 213.511 102.000,213.207 101.828,213.133 101.618 C 213.060 101.407,212.325 101.190,211.500 101.136 C 210.405 101.063,210.000 100.856,210.000 100.368 C 210.000 99.914,209.665 99.700,208.955 99.700 C 208.379 99.700,207.771 99.477,207.603 99.205 C 207.365 98.820,207.248 98.831,207.080 99.255 C 206.955 99.569,206.850 99.418,206.832 98.900 C 206.814 98.405,206.609 98.000,206.376 98.000 C 206.143 98.000,206.064 98.180,206.200 98.400 C 206.336 98.620,206.257 98.800,206.024 98.800 C 205.791 98.800,205.600 98.620,205.600 98.400 C 205.600 98.180,205.169 98.000,204.643 98.000 C 204.116 98.000,203.587 97.744,203.467 97.430 C 203.347 97.117,202.607 96.556,201.824 96.185 C 201.041 95.813,200.400 95.349,200.400 95.154 C 200.400 94.959,200.040 94.800,199.600 94.800 C 199.160 94.800,198.800 94.980,198.800 95.200 M178.999 139.201 C 178.845 139.451,178.332 139.812,177.859 140.003 C 177.361 140.204,177.252 140.355,177.600 140.362 C 178.336 140.377,179.829 139.296,179.511 138.978 C 179.384 138.851,179.154 138.951,178.999 139.201 M102.267 150.267 C 102.120 150.413,102.000 173.993,102.000 202.667 L 102.000 254.800 102.900 254.809 C 103.395 254.814,104.250 255.170,104.800 255.600 C 105.350 256.030,106.070 256.386,106.400 256.392 C 106.730 256.397,107.540 256.869,108.200 257.440 C 108.860 258.012,110.075 258.774,110.900 259.134 C 111.725 259.494,112.400 259.926,112.400 260.094 C 112.400 260.262,112.760 260.400,113.200 260.400 C 113.640 260.400,114.000 260.580,114.000 260.800 C 114.000 261.020,114.540 261.200,115.200 261.200 C 115.860 261.200,116.400 261.380,116.400 261.600 C 116.400 261.820,116.681 262.000,117.024 262.000 C 117.393 262.000,117.531 262.188,117.362 262.462 C 117.193 262.736,117.251 262.815,117.506 262.658 C 117.742 262.512,118.207 262.664,118.539 262.996 C 118.871 263.328,119.426 263.600,119.771 263.600 C 120.117 263.600,120.400 263.799,120.400 264.043 C 120.400 264.286,120.664 264.384,120.987 264.260 C 121.310 264.136,121.678 264.202,121.804 264.407 C 121.931 264.611,122.701 265.093,123.517 265.476 C 124.333 265.860,125.342 266.488,125.761 266.873 C 126.179 267.258,126.653 267.491,126.815 267.391 C 126.977 267.291,127.332 267.477,127.604 267.804 C 127.876 268.132,128.402 268.400,128.774 268.400 C 129.145 268.400,129.836 268.760,130.308 269.200 C 130.780 269.640,131.558 270.000,132.036 270.000 C 132.515 270.000,133.218 270.360,133.600 270.800 C 133.982 271.240,134.755 271.638,135.318 271.685 C 135.881 271.732,136.255 271.912,136.148 272.085 C 136.040 272.258,136.233 272.400,136.576 272.400 C 136.919 272.400,137.200 272.580,137.200 272.800 C 137.200 273.020,137.560 273.200,138.000 273.200 C 138.440 273.200,138.800 273.380,138.800 273.600 C 138.800 273.820,139.205 274.004,139.700 274.009 C 140.195 274.014,141.050 274.370,141.600 274.800 C 142.150 275.230,142.984 275.586,143.453 275.591 C 143.966 275.596,144.390 275.920,144.516 276.400 C 144.633 276.847,145.062 277.200,145.487 277.200 C 145.906 277.200,146.636 277.560,147.108 278.000 C 147.580 278.440,148.345 278.800,148.807 278.800 C 149.340 278.800,149.543 278.969,149.362 279.262 C 149.173 279.567,149.254 279.614,149.599 279.401 C 149.926 279.199,150.316 279.344,150.641 279.789 C 150.928 280.180,151.425 280.399,151.748 280.275 C 152.070 280.152,152.433 280.309,152.554 280.625 C 152.676 280.941,153.141 281.200,153.587 281.200 C 154.034 281.200,154.760 281.560,155.200 282.000 C 155.640 282.440,156.270 282.800,156.600 282.800 C 156.930 282.800,157.200 282.941,157.200 283.112 C 157.200 283.284,157.695 283.651,158.300 283.928 C 160.328 284.856,161.200 285.388,161.200 285.695 C 161.200 285.863,161.539 286.000,161.954 286.000 C 162.800 286.000,164.884 286.983,164.613 287.254 C 164.517 287.350,164.903 287.467,165.472 287.514 C 166.041 287.561,166.818 287.960,167.200 288.400 C 167.582 288.840,168.188 289.200,168.547 289.200 C 168.906 289.200,169.200 289.380,169.200 289.600 C 169.200 289.820,169.391 290.000,169.624 290.000 C 169.857 290.000,169.916 289.775,169.755 289.500 C 169.594 289.225,169.861 289.350,170.349 289.778 C 170.837 290.206,171.615 290.614,172.079 290.685 C 172.542 290.756,173.119 291.053,173.361 291.345 C 174.098 292.238,176.657 293.608,177.003 293.295 C 177.182 293.133,177.199 293.225,177.041 293.500 C 176.863 293.809,176.991 294.000,177.376 294.000 C 177.719 294.000,178.000 294.180,178.000 294.400 C 178.000 294.620,178.360 294.800,178.800 294.800 C 179.240 294.800,179.600 294.980,179.600 295.200 C 179.600 295.420,180.061 295.600,180.624 295.600 C 181.295 295.600,181.549 295.759,181.362 296.062 C 181.194 296.334,181.251 296.416,181.502 296.261 C 182.071 295.909,183.256 296.386,182.968 296.852 C 182.843 297.054,182.889 297.194,183.070 297.163 C 184.131 296.978,185.612 297.257,185.400 297.600 C 185.264 297.820,185.523 298.000,185.976 298.000 C 186.429 298.000,186.800 298.180,186.800 298.400 C 186.800 298.620,187.081 298.800,187.424 298.800 C 187.767 298.800,187.959 298.943,187.851 299.117 C 187.744 299.291,188.029 299.462,188.485 299.496 C 188.942 299.531,189.965 300.075,190.758 300.706 C 192.106 301.779,193.381 302.485,194.115 302.565 C 194.288 302.584,194.562 302.815,194.724 303.078 C 195.038 303.586,195.876 303.580,196.700 303.065 C 197.348 302.660,197.348 300.927,196.700 300.664 C 196.312 300.506,196.322 300.375,196.745 300.079 C 197.323 299.674,197.217 288.199,196.627 287.244 C 196.476 287.000,196.542 286.800,196.773 286.800 C 197.055 286.800,197.171 284.054,197.127 278.446 C 197.069 271.085,196.986 270.103,196.431 270.195 C 195.736 270.309,193.600 269.203,193.600 268.729 C 193.600 268.289,191.892 266.775,191.658 267.008 C 191.548 267.118,191.805 267.471,192.229 267.791 C 192.712 268.156,192.803 268.379,192.474 268.387 C 191.618 268.408,190.358 267.591,190.612 267.180 C 190.742 266.971,190.567 266.800,190.224 266.800 C 189.881 266.800,189.600 266.636,189.600 266.435 C 189.600 266.235,189.145 266.120,188.590 266.181 C 188.034 266.242,187.449 266.091,187.290 265.846 C 187.130 265.601,186.730 265.400,186.400 265.400 C 186.061 265.400,185.848 265.108,185.911 264.730 C 185.971 264.362,185.832 263.943,185.601 263.800 C 185.369 263.657,185.230 263.768,185.290 264.047 C 185.351 264.325,185.085 264.621,184.700 264.706 C 184.265 264.801,184.000 264.620,184.000 264.229 C 184.000 263.867,183.661 263.600,183.200 263.600 C 182.760 263.600,182.400 263.409,182.400 263.176 C 182.400 262.943,182.250 262.845,182.067 262.959 C 181.636 263.225,179.172 261.529,178.412 260.441 C 178.088 259.978,177.503 259.600,177.112 259.600 C 176.720 259.600,176.400 259.420,176.400 259.200 C 176.400 258.980,175.900 258.800,175.288 258.800 C 174.635 258.800,173.939 258.470,173.600 258.000 C 172.977 257.136,172.158 256.876,172.653 257.700 C 172.867 258.057,172.764 258.047,172.294 257.666 C 171.932 257.372,171.447 257.247,171.218 257.389 C 170.988 257.531,170.800 257.456,170.800 257.222 C 170.800 256.989,170.080 256.486,169.200 256.104 C 168.200 255.671,167.600 255.147,167.600 254.706 C 167.600 254.318,167.409 254.000,167.176 254.000 C 166.943 254.000,166.880 254.225,167.035 254.500 C 167.261 254.900,167.210 254.900,166.779 254.500 C 166.482 254.225,165.826 254.000,165.320 254.000 C 164.814 254.000,164.400 253.820,164.400 253.600 C 164.400 253.380,164.204 253.200,163.964 253.200 C 163.724 253.200,163.171 252.795,162.734 252.300 C 162.297 251.805,162.077 251.670,162.246 252.000 C 162.511 252.516,162.459 252.523,161.879 252.053 C 161.508 251.752,160.888 251.583,160.502 251.677 C 159.781 251.852,158.282 250.652,158.700 250.233 C 158.828 250.105,158.543 250.000,158.067 250.000 C 157.590 250.000,157.200 249.820,157.200 249.600 C 157.200 249.380,156.840 249.200,156.400 249.200 C 155.960 249.200,155.599 249.065,155.597 248.900 C 155.593 248.553,153.666 247.600,152.967 247.600 C 152.706 247.600,152.394 247.222,152.274 246.760 C 152.153 246.298,151.882 246.026,151.672 246.155 C 151.462 246.285,151.068 246.123,150.796 245.796 C 150.247 245.134,149.410 244.970,149.800 245.600 C 149.936 245.820,149.857 246.000,149.624 246.000 C 149.391 246.000,149.200 245.640,149.200 245.200 C 149.200 244.667,148.933 244.400,148.400 244.400 C 147.960 244.400,147.600 244.220,147.600 244.000 C 147.600 243.780,147.251 243.600,146.824 243.600 C 146.397 243.600,145.928 243.408,145.783 243.173 C 145.638 242.938,145.282 242.836,144.992 242.948 C 144.703 243.059,143.956 242.711,143.333 242.175 C 142.710 241.639,141.975 241.201,141.700 241.200 C 141.425 241.200,141.200 241.020,141.200 240.800 C 141.200 240.580,140.840 240.400,140.400 240.400 C 139.960 240.400,139.600 240.220,139.600 240.000 C 139.600 239.780,139.240 239.600,138.800 239.600 C 138.360 239.600,138.000 239.420,138.000 239.200 C 138.000 238.980,137.640 238.800,137.200 238.800 C 136.760 238.800,136.400 238.620,136.400 238.400 C 136.400 238.180,136.040 238.000,135.600 238.000 C 135.160 238.000,134.800 237.820,134.800 237.600 C 134.800 237.380,134.440 237.200,134.000 237.200 C 133.439 237.200,133.198 236.931,133.194 236.300 C 133.190 235.658,133.091 235.552,132.851 235.931 C 132.248 236.882,132.051 233.918,132.211 226.319 C 132.296 222.294,132.411 212.880,132.467 205.400 C 132.549 194.472,132.614 193.057,132.800 198.200 C 132.981 203.225,133.049 201.657,133.115 190.900 C 133.166 182.727,133.051 177.200,132.831 177.200 C 132.627 177.200,132.492 176.407,132.529 175.437 C 132.567 174.468,132.733 173.759,132.899 173.861 C 133.064 173.963,133.200 173.857,133.200 173.624 C 133.200 173.391,133.044 173.200,132.853 173.200 C 132.436 173.200,131.974 170.132,132.273 169.353 C 132.389 169.051,132.645 168.904,132.842 169.026 C 133.039 169.148,133.200 168.686,133.200 168.000 C 133.200 167.195,133.044 166.849,132.760 167.025 C 132.443 167.221,132.439 167.075,132.746 166.501 C 133.222 165.611,132.989 165.200,132.009 165.200 C 131.647 165.200,130.964 164.840,130.492 164.400 C 130.020 163.960,129.356 163.600,129.017 163.600 C 128.678 163.600,128.400 163.420,128.400 163.200 C 128.400 162.980,128.135 162.800,127.812 162.800 C 127.489 162.800,126.583 162.440,125.800 162.000 C 125.017 161.560,124.122 161.200,123.813 161.200 C 123.503 161.200,122.667 160.668,121.956 160.019 C 121.245 159.369,120.534 158.917,120.377 159.014 C 120.219 159.112,119.868 158.923,119.596 158.596 C 119.324 158.268,118.854 158.000,118.551 158.000 C 118.248 158.000,118.000 157.820,118.000 157.600 C 118.000 157.380,117.539 157.200,116.976 157.200 C 116.305 157.200,116.051 157.041,116.238 156.738 C 116.406 156.466,116.349 156.384,116.098 156.539 C 115.594 156.851,114.329 156.438,114.573 156.043 C 114.666 155.893,114.281 155.732,113.718 155.685 C 113.155 155.638,112.382 155.240,112.000 154.800 C 111.618 154.360,111.012 154.000,110.653 154.000 C 110.294 154.000,110.000 153.801,110.000 153.557 C 110.000 153.314,109.743 153.213,109.429 153.333 C 109.115 153.454,108.648 153.299,108.391 152.989 C 108.134 152.679,107.806 152.441,107.662 152.460 C 106.683 152.589,106.065 152.290,105.884 151.600 C 105.744 151.065,105.338 150.800,104.661 150.800 C 104.103 150.800,103.536 150.620,103.400 150.400 C 103.115 149.938,102.650 149.883,102.267 150.267 M296.400 150.400 C 296.400 150.620,295.860 150.800,295.200 150.800 C 294.540 150.800,294.000 150.980,294.000 151.200 C 294.000 151.420,293.752 151.600,293.449 151.600 C 293.146 151.600,292.676 151.868,292.404 152.196 C 292.132 152.523,291.784 152.713,291.630 152.618 C 291.476 152.523,290.843 152.881,290.223 153.414 C 289.603 153.947,288.911 154.269,288.686 154.130 C 288.451 153.984,288.398 154.073,288.562 154.338 C 288.797 154.719,288.233 155.029,287.900 154.702 C 287.845 154.647,287.232 155.007,286.538 155.502 C 285.844 155.996,284.899 156.400,284.438 156.400 C 283.977 156.400,283.600 156.580,283.600 156.800 C 283.600 157.020,283.240 157.200,282.800 157.200 C 282.360 157.200,282.000 157.380,282.000 157.600 C 282.000 157.820,281.640 158.000,281.200 158.000 C 280.760 158.000,280.400 158.152,280.400 158.337 C 280.400 158.523,279.590 159.063,278.600 159.537 C 277.610 160.012,275.990 160.788,275.000 161.263 C 274.010 161.737,273.200 162.277,273.200 162.463 C 273.200 162.648,272.840 162.800,272.400 162.800 C 271.960 162.800,271.599 162.935,271.597 163.100 C 271.593 163.448,269.666 164.400,268.964 164.400 C 268.059 164.400,268.006 166.448,268.011 201.423 L 268.016 236.531 267.135 237.469 C 266.575 238.066,265.989 238.323,265.527 238.177 C 265.021 238.016,264.800 238.151,264.800 238.620 C 264.800 239.089,264.565 239.232,264.026 239.091 C 263.581 238.975,263.162 239.122,263.041 239.437 C 262.925 239.739,262.555 239.881,262.217 239.751 C 261.880 239.622,261.722 239.310,261.866 239.058 C 262.014 238.801,261.971 238.744,261.769 238.928 C 261.572 239.109,261.408 239.559,261.405 239.928 C 261.402 240.345,261.134 240.555,260.700 240.482 C 260.315 240.418,260.000 240.599,260.000 240.885 C 260.000 241.513,257.785 242.562,257.209 242.206 C 256.984 242.067,256.800 242.217,256.800 242.541 C 256.800 242.864,256.035 243.514,255.100 243.984 C 254.165 244.454,253.130 244.999,252.800 245.194 C 252.470 245.389,251.615 245.784,250.900 246.072 C 250.185 246.360,249.600 246.731,249.600 246.898 C 249.600 247.064,249.240 247.200,248.800 247.200 C 248.360 247.200,247.999 247.335,247.997 247.500 C 247.993 247.859,246.056 248.800,245.320 248.800 C 245.034 248.800,244.800 248.980,244.800 249.200 C 244.800 249.420,244.459 249.600,244.043 249.600 C 243.626 249.600,243.174 249.890,243.038 250.245 C 242.838 250.765,242.676 250.795,242.200 250.400 C 241.875 250.130,241.725 249.722,241.866 249.493 C 242.008 249.264,241.940 249.190,241.715 249.329 C 241.491 249.467,241.394 250.035,241.500 250.590 C 241.613 251.182,241.508 251.600,241.247 251.600 C 241.001 251.600,240.800 251.420,240.800 251.200 C 240.800 250.980,240.620 250.800,240.400 250.800 C 240.180 250.800,240.000 251.091,240.000 251.447 C 240.000 251.896,239.756 252.030,239.200 251.884 C 238.741 251.764,238.399 251.872,238.397 252.137 C 238.393 252.748,236.497 253.612,235.771 253.333 C 235.422 253.200,235.200 253.365,235.200 253.757 C 235.200 254.111,234.930 254.400,234.600 254.400 C 234.270 254.400,233.999 254.535,233.997 254.700 C 233.993 255.059,232.056 256.000,231.320 256.000 C 231.034 256.000,230.800 256.191,230.800 256.424 C 230.800 256.657,230.631 256.743,230.425 256.615 C 230.218 256.488,229.880 256.685,229.674 257.053 C 229.458 257.439,229.038 257.623,228.683 257.487 C 228.338 257.355,227.970 257.501,227.848 257.819 C 227.728 258.131,227.377 258.289,227.067 258.170 C 226.757 258.051,226.397 258.231,226.267 258.570 C 226.131 258.925,225.770 259.087,225.417 258.951 C 225.080 258.822,224.921 258.527,225.064 258.296 C 225.212 258.057,225.133 257.995,224.879 258.151 C 224.635 258.302,224.536 258.690,224.660 259.013 C 224.823 259.437,224.595 259.600,223.843 259.600 C 223.183 259.600,222.800 259.820,222.800 260.200 C 222.800 260.920,222.011 261.016,221.975 260.300 C 221.961 260.025,221.792 260.191,221.599 260.669 C 221.337 261.318,221.024 261.479,220.362 261.306 C 219.751 261.146,219.564 261.218,219.761 261.537 C 219.949 261.842,219.697 262.000,219.024 262.000 C 218.461 262.000,218.000 262.180,218.000 262.400 C 218.000 262.620,217.742 262.800,217.427 262.800 C 217.112 262.800,216.743 263.151,216.606 263.580 C 216.470 264.008,216.132 264.272,215.854 264.165 C 215.577 264.059,215.018 264.338,214.613 264.786 C 214.208 265.234,213.544 265.600,213.138 265.600 C 212.732 265.600,212.400 265.780,212.400 266.000 C 212.400 266.220,212.265 266.376,212.100 266.346 C 211.306 266.205,209.241 266.947,209.316 267.347 C 209.364 267.609,209.002 267.744,208.456 267.667 C 207.857 267.583,207.610 267.693,207.780 267.967 C 208.149 268.565,207.087 268.513,206.399 267.900 C 205.930 267.481,205.916 267.504,206.316 268.037 C 206.871 268.778,206.579 269.200,205.510 269.200 C 205.015 269.200,204.854 269.027,205.045 268.700 C 205.206 268.425,204.951 268.539,204.478 268.953 C 204.006 269.368,203.710 269.855,203.822 270.035 C 204.139 270.548,203.557 272.421,203.157 272.174 C 202.961 272.052,202.800 272.683,202.800 273.576 C 202.800 274.469,202.980 275.200,203.200 275.200 C 203.443 275.200,203.600 277.000,203.600 279.800 C 203.600 282.600,203.443 284.400,203.200 284.400 C 202.690 284.400,202.657 293.882,203.167 294.067 C 203.832 294.308,203.845 301.600,203.182 302.020 C 202.677 302.339,202.679 302.397,203.200 302.456 C 205.131 302.678,205.949 302.641,205.763 302.340 C 205.647 302.153,205.743 301.978,205.976 301.950 C 206.209 301.923,206.572 301.877,206.783 301.850 C 206.993 301.822,207.457 301.440,207.812 301.000 C 208.168 300.560,208.345 300.425,208.206 300.700 C 207.725 301.650,208.883 301.196,210.005 299.995 C 210.757 299.190,211.198 298.958,211.333 299.295 C 211.494 299.694,211.543 299.695,211.568 299.300 C 211.586 299.025,211.945 298.800,212.367 298.800 C 212.788 298.800,213.199 298.603,213.279 298.363 C 213.359 298.123,213.897 297.898,214.474 297.863 C 215.051 297.828,215.440 297.665,215.338 297.500 C 215.236 297.335,215.613 297.200,216.176 297.200 C 216.739 297.200,217.200 297.020,217.200 296.800 C 217.200 296.580,217.464 296.400,217.786 296.400 C 218.108 296.400,218.543 296.079,218.753 295.688 C 218.963 295.296,219.511 294.947,219.971 294.912 C 220.431 294.877,221.091 294.566,221.436 294.221 C 221.782 293.875,222.258 293.712,222.494 293.858 C 222.749 294.015,222.807 293.936,222.638 293.662 C 222.481 293.408,222.554 293.200,222.800 293.200 C 223.046 293.200,223.120 292.975,222.965 292.700 C 222.752 292.323,222.804 292.312,223.174 292.653 C 223.843 293.269,226.143 292.151,225.839 291.357 C 225.642 290.843,226.612 290.617,228.696 290.692 C 228.968 290.702,229.115 290.586,229.022 290.435 C 228.928 290.284,229.219 289.931,229.668 289.651 C 230.118 289.369,230.365 289.333,230.218 289.570 C 230.072 289.807,230.143 290.000,230.376 290.000 C 230.609 290.000,230.800 289.820,230.800 289.600 C 230.800 289.380,231.160 289.200,231.600 289.200 C 232.040 289.200,232.400 289.020,232.400 288.800 C 232.400 288.580,232.636 288.400,232.925 288.400 C 233.213 288.400,233.863 288.015,234.369 287.543 C 235.612 286.385,238.845 284.781,239.331 285.081 C 239.550 285.216,239.597 285.119,239.438 284.862 C 239.251 284.559,239.505 284.400,240.176 284.400 C 240.739 284.400,241.200 284.220,241.200 284.000 C 241.200 283.780,241.425 283.600,241.700 283.600 C 241.975 283.599,242.729 283.144,243.375 282.588 C 244.022 282.032,245.012 281.464,245.575 281.325 C 246.139 281.186,246.885 280.747,247.234 280.350 C 247.736 279.780,247.977 279.731,248.384 280.114 C 248.789 280.496,248.939 280.492,249.083 280.100 C 249.184 279.825,249.465 279.600,249.708 279.600 C 249.950 279.600,250.594 279.195,251.139 278.700 C 251.683 278.205,251.975 278.070,251.788 278.400 C 251.466 278.966,252.315 278.485,253.200 277.600 C 253.662 277.138,255.231 276.400,255.752 276.400 C 256.061 276.400,256.417 276.133,256.542 275.807 C 256.672 275.469,257.035 275.315,257.385 275.450 C 257.778 275.600,258.000 275.458,258.000 275.055 C 258.000 274.706,258.229 274.513,258.514 274.622 C 258.797 274.731,259.441 274.435,259.945 273.966 C 260.449 273.496,261.280 273.086,261.792 273.056 C 262.304 273.025,262.640 272.865,262.538 272.700 C 262.436 272.535,262.813 272.400,263.376 272.400 C 263.939 272.400,264.400 272.220,264.400 272.000 C 264.400 271.780,264.739 271.600,265.153 271.600 C 265.570 271.600,266.000 271.243,266.116 270.800 C 266.231 270.360,266.533 270.000,266.786 270.000 C 267.049 270.000,267.117 270.211,266.943 270.493 C 266.775 270.764,267.149 270.584,267.773 270.093 C 268.397 269.602,269.071 269.200,269.271 269.200 C 269.470 269.200,270.020 268.840,270.492 268.400 C 270.964 267.960,271.767 267.600,272.275 267.600 C 272.784 267.600,273.200 267.420,273.200 267.200 C 273.200 266.980,273.560 266.800,274.000 266.800 C 274.716 266.800,274.987 266.384,274.847 265.500 C 274.806 265.238,276.812 265.003,277.730 265.163 C 277.911 265.194,277.957 265.054,277.832 264.852 C 277.544 264.386,278.729 263.909,279.298 264.261 C 279.534 264.406,279.608 264.336,279.464 264.104 C 279.153 263.600,280.294 263.087,280.898 263.461 C 281.132 263.605,281.219 263.554,281.091 263.347 C 280.963 263.139,281.430 262.733,282.129 262.445 C 285.008 261.255,285.852 260.789,286.883 259.819 C 287.478 259.258,288.402 258.800,288.936 258.800 C 289.570 258.800,289.979 258.523,290.116 258.000 C 290.271 257.409,290.662 257.200,291.616 257.200 C 292.429 257.200,293.176 256.889,293.636 256.359 C 294.037 255.896,294.806 255.491,295.344 255.459 C 295.883 255.426,296.240 255.265,296.138 255.100 C 296.036 254.935,296.386 254.800,296.917 254.800 C 297.831 254.800,297.881 254.672,297.891 252.300 C 297.901 250.065,297.870 249.970,297.608 251.400 C 297.423 252.404,297.321 250.915,297.333 247.400 C 297.352 242.051,297.364 241.970,297.600 245.600 C 297.736 247.690,297.838 233.830,297.827 214.800 L 297.808 180.200 297.600 208.800 L 297.392 237.400 297.343 197.400 C 297.317 175.400,297.435 157.940,297.607 158.600 C 297.810 159.375,297.899 158.406,297.861 155.862 C 297.828 153.697,297.647 151.829,297.458 151.712 C 297.269 151.596,297.337 151.363,297.609 151.195 C 297.880 151.027,297.979 150.689,297.828 150.445 C 297.486 149.891,296.400 149.857,296.400 150.400 M297.761 172.800 C 297.761 176.210,297.822 177.605,297.897 175.900 C 297.972 174.195,297.972 171.405,297.897 169.700 C 297.822 167.995,297.761 169.390,297.761 172.800 M132.697 187.083 C 132.620 188.578,132.556 187.460,132.555 184.600 C 132.555 181.740,132.618 180.518,132.696 181.883 C 132.774 183.249,132.774 185.589,132.697 187.083 M132.944 217.600 C 132.944 219.690,133.012 220.545,133.094 219.500 C 133.176 218.455,133.176 216.745,133.094 215.700 C 133.012 214.655,132.944 215.510,132.944 217.600 M203.491 289.100 C 203.405 289.925,203.334 289.250,203.334 287.600 C 203.334 285.950,203.405 285.275,203.491 286.100 C 203.578 286.925,203.578 288.275,203.491 289.100 " stroke="none" fill="#ececeb" fill-rule="evenodd"></path><path id="path2" d="M180.904 137.819 C 180.589 138.161,180.553 138.448,180.807 138.604 C 181.026 138.740,181.317 138.562,181.452 138.208 C 181.783 137.347,181.514 137.157,180.904 137.819 M177.824 139.413 C 177.388 139.742,177.269 140.000,177.552 140.000 C 177.830 140.000,178.327 139.730,178.657 139.400 C 179.424 138.633,178.842 138.642,177.824 139.413 M293.371 144.400 C 293.371 144.840,293.513 145.200,293.686 145.200 C 293.859 145.200,294.000 144.840,294.000 144.400 C 294.000 143.960,293.859 143.600,293.686 143.600 C 293.513 143.600,293.371 143.960,293.371 144.400 M166.596 145.607 C 166.458 145.830,166.204 145.926,166.031 145.819 C 165.859 145.713,165.376 145.887,164.959 146.208 C 164.224 146.771,164.227 146.786,165.048 146.678 C 166.019 146.551,168.046 145.253,167.324 145.221 C 167.062 145.209,166.734 145.383,166.596 145.607 M161.055 148.200 C 160.798 148.870,161.412 149.029,161.804 148.393 C 161.942 148.170,162.210 148.083,162.400 148.200 C 162.590 148.317,162.858 148.230,162.996 148.007 C 163.140 147.773,162.829 147.600,162.266 147.600 C 161.727 147.600,161.182 147.870,161.055 148.200 M258.400 159.600 C 258.400 159.820,258.771 160.000,259.224 160.000 C 259.677 160.000,259.936 159.820,259.800 159.600 C 259.664 159.380,259.293 159.200,258.976 159.200 C 258.659 159.200,258.400 159.380,258.400 159.600 M140.162 161.662 C 139.790 162.264,140.249 162.502,141.200 162.200 C 141.673 162.050,141.952 161.818,141.819 161.685 C 141.401 161.268,140.414 161.254,140.162 161.662 M139.084 164.000 C 138.969 164.439,139.038 164.900,139.238 165.023 C 139.437 165.146,139.600 164.787,139.600 164.224 C 139.600 162.998,139.372 162.899,139.084 164.000 M266.890 202.249 C 266.889 230.000,266.792 236.158,266.356 236.427 C 266.063 236.608,265.957 236.891,266.121 237.054 C 266.926 237.859,267.700 235.986,267.741 233.136 C 267.924 220.206,267.528 168.400,267.246 168.400 C 267.043 168.400,266.891 182.863,266.890 202.249 M263.600 238.065 C 261.712 239.155,261.283 239.600,262.120 239.600 C 262.494 239.600,262.800 239.420,262.800 239.200 C 262.800 238.980,263.078 238.800,263.417 238.800 C 263.756 238.800,264.420 238.440,264.892 238.000 C 265.977 236.990,265.413 237.018,263.600 238.065 M254.000 243.200 C 254.000 243.420,254.270 243.600,254.600 243.600 C 254.930 243.600,255.200 243.420,255.200 243.200 C 255.200 242.980,254.930 242.800,254.600 242.800 C 254.270 242.800,254.000 242.980,254.000 243.200 M252.604 243.993 C 252.466 244.217,252.003 244.400,251.576 244.400 C 251.149 244.400,250.799 244.535,250.797 244.700 C 250.793 245.059,248.856 246.000,248.120 246.000 C 247.834 246.000,247.600 246.137,247.600 246.305 C 247.600 246.612,246.728 247.144,244.700 248.072 C 243.503 248.620,243.245 249.200,244.200 249.200 C 244.530 249.200,244.800 249.020,244.800 248.800 C 244.800 248.580,245.070 248.400,245.400 248.400 C 245.730 248.400,246.000 248.220,246.000 248.000 C 246.000 247.780,246.360 247.600,246.800 247.600 C 247.240 247.600,247.600 247.420,247.600 247.200 C 247.600 246.980,248.050 246.800,248.600 246.800 C 249.150 246.800,249.600 246.620,249.600 246.400 C 249.600 246.180,249.870 246.000,250.200 246.000 C 250.530 246.000,250.800 245.820,250.800 245.600 C 250.800 245.380,251.115 245.194,251.500 245.187 C 252.434 245.170,253.759 244.145,253.252 243.832 C 253.034 243.697,252.742 243.770,252.604 243.993 M241.800 249.600 C 241.664 249.820,241.823 250.000,242.153 250.000 C 242.483 250.000,242.864 249.820,243.000 249.600 C 243.136 249.380,242.977 249.200,242.647 249.200 C 242.317 249.200,241.936 249.380,241.800 249.600 M232.400 254.400 C 232.400 254.620,232.670 254.800,233.000 254.800 C 233.330 254.800,233.600 254.620,233.600 254.400 C 233.600 254.180,233.330 254.000,233.000 254.000 C 232.670 254.000,232.400 254.180,232.400 254.400 M229.400 256.000 C 229.264 256.220,228.803 256.400,228.376 256.400 C 227.949 256.400,227.600 256.559,227.600 256.753 C 227.600 256.948,227.195 257.230,226.700 257.380 C 226.100 257.563,225.978 257.727,226.335 257.872 C 226.629 257.992,227.070 257.890,227.315 257.645 C 227.560 257.400,228.084 257.200,228.480 257.200 C 228.876 257.200,229.200 257.020,229.200 256.800 C 229.200 256.580,229.470 256.400,229.800 256.400 C 230.130 256.400,230.400 256.220,230.400 256.000 C 230.400 255.780,230.231 255.600,230.024 255.600 C 229.817 255.600,229.536 255.780,229.400 256.000 M222.826 259.369 C 222.439 259.835,222.502 259.898,223.177 259.722 C 223.630 259.604,224.000 259.348,224.000 259.153 C 224.000 258.614,223.354 258.732,222.826 259.369 M196.720 266.480 C 197.093 266.853,197.307 266.853,197.680 266.480 C 198.053 266.107,197.947 266.000,197.200 266.000 C 196.453 266.000,196.347 266.107,196.720 266.480 M202.800 303.286 C 202.800 303.459,203.160 303.600,203.600 303.600 C 204.040 303.600,204.400 303.459,204.400 303.286 C 204.400 303.113,204.040 302.971,203.600 302.971 C 203.160 302.971,202.800 303.113,202.800 303.286 " stroke="none" fill="#dcd4cc" fill-rule="evenodd"></path><path id="path3" d="M199.700 132.038 C 199.205 132.223,198.800 132.560,198.800 132.787 C 198.800 133.014,198.260 133.200,197.600 133.200 C 196.940 133.200,196.400 133.391,196.400 133.624 C 196.400 133.857,196.240 133.949,196.045 133.828 C 195.850 133.707,195.468 133.877,195.196 134.204 C 194.924 134.532,194.364 134.800,193.951 134.800 C 193.538 134.800,193.200 134.980,193.200 135.200 C 193.200 135.420,192.840 135.600,192.400 135.600 C 191.960 135.600,191.600 135.780,191.600 136.000 C 191.600 136.220,191.352 136.400,191.049 136.400 C 190.746 136.400,190.283 136.659,190.020 136.976 C 189.757 137.293,189.303 137.461,189.011 137.349 C 188.720 137.237,188.362 137.338,188.217 137.573 C 188.072 137.808,187.738 137.997,187.476 137.994 C 187.190 137.990,187.239 137.833,187.600 137.600 C 187.930 137.387,188.051 137.209,187.869 137.206 C 187.363 137.197,185.200 139.475,185.200 140.018 C 185.200 140.377,185.043 140.368,184.581 139.984 C 184.084 139.572,184.064 139.399,184.481 139.105 C 184.881 138.823,184.863 138.778,184.400 138.909 C 184.054 139.006,183.807 139.528,183.816 140.139 C 183.824 140.723,183.689 141.200,183.516 141.200 C 183.342 141.200,183.200 141.036,183.200 140.835 C 183.200 140.634,182.615 140.499,181.900 140.535 C 180.760 140.592,180.602 140.735,180.616 141.700 C 180.625 142.339,180.416 142.800,180.116 142.800 C 179.832 142.800,179.600 142.620,179.600 142.400 C 179.600 142.180,179.420 142.000,179.200 142.000 C 178.980 142.000,178.800 142.331,178.800 142.736 C 178.800 143.140,178.350 143.677,177.800 143.927 C 177.044 144.272,176.800 144.269,176.800 143.915 C 176.800 143.658,176.530 143.796,176.199 144.224 C 175.607 144.989,175.601 144.988,175.811 144.200 C 175.984 143.553,175.933 143.574,175.548 144.307 C 175.206 144.957,174.850 145.143,174.286 144.964 C 173.762 144.798,173.592 144.864,173.776 145.162 C 173.948 145.440,173.598 145.700,172.852 145.850 C 172.192 145.982,171.548 146.358,171.422 146.686 C 171.291 147.028,170.929 147.182,170.576 147.046 C 170.190 146.898,170.060 146.973,170.229 147.247 C 170.410 147.540,170.217 147.596,169.648 147.415 C 169.061 147.229,168.721 147.340,168.555 147.772 C 168.423 148.118,167.974 148.400,167.557 148.400 C 167.141 148.400,166.800 148.551,166.800 148.736 C 166.800 148.921,166.102 149.302,165.250 149.584 C 164.037 149.984,163.743 150.259,163.897 150.848 C 164.120 151.700,162.990 151.935,162.683 151.100 C 162.541 150.713,162.376 150.726,161.950 151.159 C 161.614 151.500,161.593 151.608,161.895 151.438 C 162.241 151.243,162.310 151.370,162.122 151.859 C 161.957 152.290,161.792 152.375,161.693 152.080 C 161.496 151.488,160.518 151.446,160.326 152.022 C 160.249 152.254,159.829 152.499,159.393 152.567 C 158.912 152.642,158.646 152.948,158.718 153.345 C 158.857 154.125,158.367 154.194,157.626 153.500 C 157.188 153.090,157.130 153.162,157.308 153.900 C 157.535 154.842,157.014 155.166,156.665 154.300 C 156.538 153.986,156.451 154.047,156.432 154.463 C 156.410 154.923,156.156 155.061,155.600 154.916 C 155.153 154.799,154.800 154.904,154.800 155.153 C 154.800 155.399,154.506 155.600,154.146 155.600 C 153.786 155.600,153.086 156.038,152.589 156.574 C 151.975 157.236,151.417 157.477,150.843 157.327 C 150.357 157.200,150.000 157.296,150.000 157.553 C 150.000 157.799,149.640 158.000,149.200 158.000 C 148.646 158.000,148.390 158.277,148.368 158.900 C 148.351 159.395,148.246 159.575,148.135 159.300 C 147.786 158.434,146.682 158.705,146.916 159.600 C 147.031 160.039,146.962 160.500,146.762 160.623 C 146.563 160.746,146.400 160.547,146.400 160.181 C 146.400 159.703,146.202 159.596,145.700 159.803 C 145.315 159.961,144.685 160.181,144.300 160.292 C 143.915 160.403,143.597 160.877,143.594 161.347 C 143.591 161.816,143.456 162.020,143.294 161.800 C 142.938 161.316,141.855 161.042,142.144 161.509 C 142.539 162.149,141.764 162.768,140.863 162.532 C 140.231 162.367,140.030 162.098,140.201 161.647 C 140.405 161.112,140.356 161.092,139.924 161.527 C 139.492 161.961,139.523 162.145,140.100 162.571 C 140.500 162.867,140.800 163.610,140.800 164.307 C 140.800 165.328,140.929 165.491,141.600 165.316 C 142.047 165.199,142.400 165.304,142.400 165.553 C 142.400 165.799,142.678 166.000,143.018 166.000 C 143.358 166.000,144.056 166.405,144.568 166.900 C 146.371 168.642,147.217 169.200,148.058 169.200 C 148.524 169.200,149.238 169.583,149.643 170.050 C 150.049 170.518,150.835 170.900,151.390 170.900 C 151.946 170.900,152.400 171.058,152.400 171.250 C 152.400 171.442,152.760 171.600,153.200 171.600 C 153.640 171.600,154.000 171.768,154.000 171.973 C 154.000 172.178,154.573 172.753,155.272 173.251 C 155.972 173.750,156.411 173.942,156.249 173.679 C 156.069 173.388,156.189 173.200,156.553 173.200 C 156.883 173.200,157.272 173.392,157.417 173.627 C 157.562 173.862,157.933 173.958,158.240 173.840 C 158.549 173.721,158.800 173.867,158.800 174.164 C 158.800 174.460,159.105 174.949,159.477 175.251 C 159.937 175.624,160.057 175.640,159.853 175.300 C 159.688 175.025,159.743 174.800,159.976 174.800 C 160.209 174.800,160.403 175.205,160.406 175.700 C 160.411 176.361,160.504 176.455,160.758 176.055 C 160.983 175.700,161.155 175.664,161.252 175.951 C 161.333 176.194,161.895 176.434,162.500 176.484 C 163.105 176.534,163.607 176.760,163.615 176.987 C 163.640 177.671,166.738 179.600,167.811 179.600 C 168.717 179.600,170.293 180.248,170.800 180.829 C 171.007 181.067,172.408 181.705,172.855 181.765 C 172.995 181.784,173.456 182.228,173.879 182.750 C 174.576 183.611,174.737 183.649,175.577 183.150 C 176.252 182.750,176.550 182.726,176.673 183.062 C 177.047 184.088,179.092 185.822,180.010 185.891 C 180.548 185.931,181.051 186.152,181.127 186.382 C 181.204 186.612,181.532 186.800,181.857 186.800 C 182.182 186.800,182.336 186.980,182.200 187.200 C 182.064 187.420,182.233 187.600,182.576 187.600 C 182.919 187.600,183.200 187.413,183.200 187.184 C 183.200 186.944,183.436 186.987,183.758 187.284 C 184.065 187.568,184.234 187.935,184.134 188.100 C 184.035 188.265,184.233 188.400,184.576 188.400 C 184.919 188.400,185.201 188.535,185.203 188.700 C 185.207 189.059,187.144 190.000,187.880 190.000 C 188.166 190.000,188.400 190.180,188.400 190.400 C 188.400 190.620,188.940 190.800,189.600 190.800 C 190.260 190.800,190.800 190.962,190.800 191.160 C 190.800 191.722,193.651 193.266,194.258 193.033 C 194.568 192.914,194.800 193.086,194.800 193.436 C 194.800 193.772,194.957 193.950,195.148 193.832 C 195.339 193.714,196.014 194.064,196.648 194.611 C 197.282 195.157,198.019 195.521,198.287 195.420 C 198.555 195.318,198.881 195.407,199.011 195.617 C 199.420 196.279,200.000 196.034,200.000 195.200 C 200.000 194.316,200.588 194.134,201.047 194.876 C 201.209 195.138,201.130 195.423,200.871 195.510 C 200.612 195.596,200.400 195.833,200.400 196.037 C 200.400 196.240,200.760 196.182,201.200 195.907 C 201.640 195.632,202.000 195.170,202.000 194.880 C 202.000 194.590,202.180 194.464,202.400 194.600 C 202.620 194.736,202.800 194.657,202.800 194.424 C 202.800 194.191,203.160 194.000,203.600 194.000 C 204.040 194.000,204.400 193.820,204.400 193.600 C 204.400 193.380,204.749 193.200,205.176 193.200 C 205.603 193.200,206.064 193.020,206.200 192.800 C 206.336 192.580,206.943 192.400,207.548 192.400 C 208.792 192.400,210.559 190.981,210.147 190.314 C 209.992 190.063,210.060 189.990,210.306 190.142 C 210.542 190.288,211.020 190.123,211.368 189.775 C 211.789 189.354,212.000 189.306,212.000 189.633 C 212.000 189.902,212.370 189.696,212.823 189.174 C 213.496 188.397,213.709 188.329,213.998 188.797 C 214.284 189.259,214.574 189.136,215.506 188.161 C 216.141 187.497,216.872 187.024,217.130 187.110 C 217.389 187.196,217.600 186.982,217.600 186.633 C 217.600 186.254,217.941 186.000,218.453 186.000 C 218.922 186.000,219.642 185.612,220.053 185.139 C 220.633 184.471,220.800 184.418,220.800 184.905 C 220.800 185.251,220.575 185.624,220.300 185.735 C 219.923 185.887,219.920 185.945,220.286 185.968 C 220.920 186.010,221.708 184.525,221.389 183.892 C 221.252 183.621,221.398 183.714,221.712 184.097 C 222.255 184.759,222.328 184.757,223.135 184.057 C 223.603 183.651,223.854 183.178,223.693 183.005 C 223.532 182.833,223.797 182.898,224.283 183.151 C 225.031 183.540,225.233 183.486,225.597 182.805 C 225.834 182.362,226.292 182.000,226.614 182.000 C 226.936 182.000,227.200 181.798,227.200 181.551 C 227.200 181.258,227.436 181.293,227.877 181.651 C 228.337 182.024,228.457 182.040,228.253 181.700 C 228.073 181.399,228.166 181.200,228.488 181.200 C 228.783 181.200,229.283 180.840,229.600 180.400 C 230.234 179.520,231.200 179.325,231.200 180.078 C 231.200 180.340,231.658 179.935,232.218 179.178 C 232.888 178.272,233.504 177.843,234.018 177.925 C 234.448 177.994,234.800 177.859,234.800 177.625 C 234.800 177.391,235.171 177.200,235.624 177.200 C 236.077 177.200,236.336 177.020,236.200 176.800 C 236.064 176.580,236.304 176.400,236.734 176.400 C 237.163 176.400,237.625 176.111,237.761 175.758 C 237.901 175.392,238.263 175.215,238.603 175.346 C 238.932 175.472,239.200 175.401,239.200 175.187 C 239.200 174.974,239.453 174.800,239.762 174.800 C 240.495 174.800,243.581 173.197,244.575 172.300 C 245.832 171.166,246.591 171.577,245.500 172.801 C 245.103 173.246,245.165 173.242,245.800 172.781 C 246.840 172.026,247.194 171.514,246.950 171.119 C 246.753 170.801,247.350 170.647,248.300 170.770 C 248.575 170.806,248.800 170.647,248.800 170.418 C 248.800 170.188,249.070 170.000,249.400 170.000 C 249.730 170.000,250.000 169.820,250.000 169.600 C 250.000 169.380,250.276 169.200,250.613 169.200 C 250.949 169.200,251.328 168.931,251.454 168.602 C 251.581 168.274,251.857 168.112,252.069 168.242 C 252.280 168.373,252.698 168.147,252.998 167.740 C 253.511 167.044,253.559 167.041,253.814 167.700 C 254.169 168.616,254.921 168.612,254.630 167.695 C 254.423 167.041,257.321 164.800,258.374 164.800 C 258.701 164.800,259.200 163.856,259.200 163.236 C 259.200 163.071,258.795 162.951,258.300 162.968 C 257.706 162.989,257.416 162.780,257.447 162.351 C 257.480 161.893,257.261 161.764,256.701 161.910 C 256.039 162.083,255.954 161.974,256.185 161.249 C 256.470 160.348,255.713 160.174,255.106 161.000 C 254.936 161.231,254.810 161.131,254.806 160.762 C 254.799 160.064,253.463 158.670,253.125 159.009 C 253.009 159.125,252.686 158.945,252.408 158.610 C 251.875 157.968,250.594 157.743,250.974 158.358 C 251.096 158.555,250.926 158.819,250.598 158.946 C 250.020 159.167,249.828 158.774,249.976 157.673 C 250.031 157.270,249.862 157.246,249.256 157.570 C 248.597 157.923,248.298 157.794,247.459 156.797 C 246.905 156.138,246.069 155.600,245.602 155.600 C 245.135 155.600,244.836 155.465,244.938 155.300 C 245.040 155.135,244.683 154.974,244.144 154.941 C 243.606 154.909,242.837 154.504,242.436 154.041 C 242.034 153.579,241.432 153.200,241.096 153.200 C 240.760 153.200,240.363 152.885,240.214 152.500 C 239.961 151.848,239.904 151.853,239.371 152.576 C 239.057 153.004,238.800 153.139,238.800 152.876 C 238.800 152.614,238.845 152.342,238.900 152.271 C 239.105 152.008,237.638 150.800,237.129 150.813 C 236.798 150.821,236.891 151.045,237.379 151.414 C 237.946 151.844,238.037 152.123,237.716 152.444 C 237.283 152.877,236.110 151.425,236.313 150.707 C 236.358 150.546,235.946 150.301,235.398 150.164 C 234.849 150.026,234.400 149.731,234.400 149.508 C 234.400 149.275,234.145 149.314,233.800 149.600 C 233.311 150.006,233.200 149.985,233.200 149.486 C 233.200 149.087,232.942 148.942,232.455 149.070 C 232.002 149.188,231.612 149.009,231.460 148.611 C 231.295 148.182,231.366 148.055,231.666 148.241 C 231.948 148.415,232.014 148.346,231.838 148.062 C 231.681 147.808,231.103 147.600,230.553 147.600 C 229.891 147.600,229.651 147.442,229.842 147.132 C 230.036 146.818,229.914 146.747,229.470 146.918 C 229.067 147.072,228.847 146.985,228.905 146.695 C 228.957 146.433,228.571 146.154,228.046 146.075 C 227.521 145.995,226.722 145.586,226.270 145.165 C 225.769 144.698,224.874 144.400,223.971 144.400 C 222.786 144.400,222.439 144.222,222.220 143.500 C 222.054 142.955,221.865 142.797,221.740 143.100 C 221.626 143.375,221.368 143.600,221.167 143.600 C 220.965 143.600,220.845 143.375,220.900 143.100 C 220.958 142.811,220.687 142.654,220.260 142.727 C 219.853 142.796,219.626 142.682,219.755 142.472 C 219.885 142.262,219.723 141.868,219.396 141.596 C 218.982 141.253,218.800 141.239,218.800 141.551 C 218.800 141.798,218.622 142.000,218.405 142.000 C 217.835 142.000,216.400 140.701,216.400 140.185 C 216.400 139.945,215.680 139.364,214.800 138.894 C 213.235 138.059,212.722 138.162,213.680 139.120 C 214.014 139.454,214.024 139.600,213.713 139.600 C 213.468 139.600,213.207 139.434,213.133 139.230 C 213.060 139.026,212.730 138.801,212.400 138.730 C 212.070 138.659,211.692 138.330,211.560 138.000 C 211.428 137.670,211.113 137.378,210.860 137.350 C 210.607 137.322,210.085 137.275,209.700 137.244 C 209.099 137.196,209.085 137.133,209.600 136.800 C 210.064 136.500,209.937 136.411,209.044 136.406 C 208.408 136.403,207.688 136.128,207.444 135.795 C 207.200 135.463,206.551 135.105,206.001 134.999 C 205.452 134.894,204.942 134.626,204.868 134.404 C 204.794 134.182,204.253 133.997,203.667 133.994 C 202.831 133.989,202.730 133.904,203.200 133.600 C 203.655 133.306,203.482 133.211,202.487 133.206 C 201.576 133.202,201.086 132.971,200.887 132.451 C 200.663 131.866,200.402 131.775,199.700 132.038 M254.000 159.933 C 254.000 160.454,253.524 160.801,253.138 160.561 C 252.724 160.306,253.081 159.600,253.624 159.600 C 253.831 159.600,254.000 159.750,254.000 159.933 M145.600 161.000 C 145.600 161.330,145.420 161.600,145.200 161.600 C 144.980 161.600,144.800 161.330,144.800 161.000 C 144.800 160.670,144.980 160.400,145.200 160.400 C 145.420 160.400,145.600 160.670,145.600 161.000 M135.600 174.400 C 135.600 175.500,135.780 176.400,136.000 176.400 C 136.220 176.400,136.400 175.500,136.400 174.400 C 136.400 173.300,136.220 172.400,136.000 172.400 C 135.780 172.400,135.600 173.300,135.600 174.400 " stroke="none" fill="#f8dc14" fill-rule="evenodd"></path><path id="path4" d="M203.319 97.242 C 203.579 97.659,204.109 98.000,204.496 98.000 C 205.501 98.000,205.370 97.744,204.023 97.071 C 202.900 96.511,202.868 96.519,203.319 97.242 M218.800 105.600 C 218.800 105.820,219.136 106.000,219.546 106.000 C 219.956 106.000,220.776 106.381,221.367 106.846 C 221.958 107.311,222.526 107.607,222.629 107.504 C 222.858 107.275,219.778 105.200,219.209 105.200 C 218.984 105.200,218.800 105.380,218.800 105.600 M240.000 116.800 C 240.000 117.020,240.270 117.200,240.600 117.200 C 240.930 117.200,241.200 117.020,241.200 116.800 C 241.200 116.580,240.930 116.400,240.600 116.400 C 240.270 116.400,240.000 116.580,240.000 116.800 M242.000 117.643 C 242.000 117.886,242.252 117.989,242.561 117.870 C 242.906 117.738,243.208 117.988,243.347 118.521 C 243.526 119.205,243.677 119.283,244.065 118.895 C 244.454 118.506,244.394 118.280,243.779 117.814 C 242.848 117.111,242.000 117.029,242.000 117.643 M252.860 123.180 C 253.032 123.696,253.581 123.788,253.630 123.310 C 253.647 123.151,253.444 122.948,253.180 122.860 C 252.916 122.772,252.772 122.916,252.860 123.180 M254.158 124.068 C 253.964 124.383,254.087 124.452,254.534 124.281 C 254.969 124.114,255.200 124.229,255.200 124.613 C 255.200 124.972,255.587 125.200,256.200 125.200 C 257.518 125.200,257.461 124.989,255.939 124.229 C 254.431 123.477,254.518 123.485,254.158 124.068 M204.400 130.353 C 204.400 130.548,204.805 130.815,205.300 130.948 C 206.833 131.359,207.050 131.221,205.854 130.598 C 204.519 129.901,204.400 129.881,204.400 130.353 M188.400 133.576 C 188.400 133.809,188.141 134.000,187.824 134.000 C 187.507 134.000,187.146 134.164,187.022 134.365 C 186.737 134.825,187.565 134.703,188.551 134.140 C 189.052 133.854,189.152 133.618,188.851 133.432 C 188.603 133.278,188.400 133.343,188.400 133.576 M185.200 135.200 C 185.200 135.420,185.470 135.600,185.800 135.600 C 186.130 135.600,186.400 135.420,186.400 135.200 C 186.400 134.980,186.130 134.800,185.800 134.800 C 185.470 134.800,185.200 134.980,185.200 135.200 M276.400 135.166 C 276.400 135.532,278.429 136.504,278.677 136.257 C 278.772 136.161,278.299 135.808,277.625 135.472 C 276.951 135.136,276.400 134.999,276.400 135.166 M182.400 137.049 C 182.400 137.580,182.509 137.608,183.000 137.200 C 183.330 136.926,183.600 136.634,183.600 136.551 C 183.600 136.468,183.330 136.400,183.000 136.400 C 182.670 136.400,182.400 136.692,182.400 137.049 M176.400 140.133 C 176.400 140.766,175.206 140.864,175.188 140.233 C 175.181 139.995,174.992 140.115,174.768 140.500 C 174.544 140.885,174.009 141.200,173.580 141.200 C 173.151 141.200,172.800 141.399,172.800 141.643 C 172.800 141.886,172.530 141.982,172.200 141.855 C 171.835 141.715,171.600 141.855,171.600 142.213 C 171.600 142.536,171.251 142.800,170.824 142.800 C 170.397 142.800,169.936 142.980,169.800 143.200 C 169.387 143.868,170.426 143.649,171.853 142.767 C 172.594 142.309,173.200 142.052,173.200 142.196 C 173.200 142.340,173.483 142.174,173.829 141.829 C 174.174 141.483,174.858 141.200,175.349 141.200 C 176.234 141.200,177.200 140.532,177.200 139.920 C 177.200 139.744,177.020 139.600,176.800 139.600 C 176.580 139.600,176.400 139.840,176.400 140.133 M222.400 140.000 C 223.176 140.501,223.600 140.501,223.600 140.000 C 223.600 139.780,223.195 139.603,222.700 139.606 C 221.972 139.611,221.915 139.686,222.400 140.000 M290.000 142.225 C 290.000 142.353,290.254 142.711,290.564 143.021 C 290.875 143.332,291.210 143.814,291.310 144.093 C 291.409 144.372,291.609 144.491,291.755 144.357 C 292.160 143.984,291.673 143.038,290.792 142.488 C 290.357 142.216,290.000 142.098,290.000 142.225 M168.276 144.032 C 168.154 144.499,167.876 144.771,167.659 144.636 C 167.442 144.502,166.034 145.023,164.532 145.794 C 163.029 146.565,161.594 147.197,161.343 147.198 C 161.091 147.199,160.781 147.472,160.654 147.804 C 160.527 148.136,160.215 148.361,159.961 148.304 C 159.708 148.247,159.417 148.425,159.317 148.700 C 159.200 149.018,159.509 149.200,160.167 149.200 C 160.735 149.200,161.179 149.065,161.153 148.900 C 161.000 147.935,161.327 147.600,162.424 147.600 C 163.247 147.600,163.554 147.449,163.362 147.138 C 163.179 146.843,163.253 146.785,163.565 146.978 C 163.846 147.152,164.258 147.000,164.538 146.618 C 164.804 146.253,165.287 145.909,165.611 145.853 C 167.390 145.546,169.632 144.124,169.071 143.659 C 168.608 143.275,168.455 143.346,168.276 144.032 M106.178 144.035 C 106.031 144.274,106.110 144.670,106.355 144.915 C 106.682 145.242,106.800 145.126,106.800 144.480 C 106.800 143.514,106.592 143.365,106.178 144.035 M231.600 144.571 C 231.600 144.665,232.140 145.011,232.800 145.340 C 233.925 145.901,234.000 145.891,234.000 145.169 C 234.000 144.581,233.717 144.400,232.800 144.400 C 232.140 144.400,231.600 144.477,231.600 144.571 M292.188 145.220 C 291.807 145.835,292.328 146.232,292.842 145.718 C 293.129 145.431,293.136 145.207,292.862 145.039 C 292.639 144.900,292.335 144.982,292.188 145.220 M107.600 145.608 C 107.082 145.936,107.091 145.989,107.667 145.994 C 108.033 145.997,108.414 146.225,108.512 146.500 C 108.610 146.775,108.839 146.861,109.021 146.690 C 109.582 146.166,108.282 145.177,107.600 145.608 M238.000 148.000 C 238.000 148.220,238.270 148.400,238.600 148.400 C 238.930 148.400,239.200 148.220,239.200 148.000 C 239.200 147.780,238.930 147.600,238.600 147.600 C 238.270 147.600,238.000 147.780,238.000 148.000 M243.200 150.800 C 244.513 151.827,245.194 151.827,244.092 150.800 C 243.620 150.360,243.001 150.004,242.717 150.009 C 242.433 150.014,242.650 150.370,243.200 150.800 M154.800 151.200 C 154.800 151.420,154.522 151.600,154.183 151.600 C 153.844 151.600,153.212 151.930,152.779 152.333 C 152.164 152.906,152.124 153.067,152.596 153.067 C 152.928 153.067,153.200 152.917,153.200 152.733 C 153.200 152.550,153.442 152.400,153.738 152.400 C 154.034 152.400,154.602 152.040,155.000 151.600 C 155.411 151.146,155.524 150.800,155.262 150.800 C 155.008 150.800,154.800 150.980,154.800 151.200 M245.277 152.030 C 245.356 152.267,245.591 152.460,245.800 152.460 C 246.009 152.460,246.245 152.267,246.323 152.030 C 246.402 151.793,246.167 151.600,245.800 151.600 C 245.433 151.600,245.198 151.793,245.277 152.030 M150.200 153.600 C 150.064 153.820,150.223 154.000,150.553 154.000 C 150.883 154.000,151.264 153.820,151.400 153.600 C 151.536 153.380,151.377 153.200,151.047 153.200 C 150.717 153.200,150.336 153.380,150.200 153.600 M248.400 153.386 C 248.400 153.488,248.756 153.762,249.191 153.995 C 249.836 154.341,249.939 154.306,249.748 153.809 C 249.541 153.269,248.400 152.911,248.400 153.386 M148.800 154.321 C 148.800 154.575,148.515 154.665,148.150 154.526 C 147.760 154.376,147.353 154.540,147.131 154.938 C 146.927 155.302,146.499 155.600,146.180 155.600 C 145.861 155.600,145.600 155.780,145.600 156.000 C 145.600 156.220,145.990 156.400,146.467 156.400 C 146.943 156.400,147.222 156.289,147.086 156.152 C 146.728 155.795,147.922 154.705,148.369 154.981 C 148.802 155.248,149.401 154.468,149.040 154.107 C 148.908 153.975,148.800 154.071,148.800 154.321 M143.200 157.200 C 142.390 157.834,142.333 157.984,142.900 157.991 C 143.285 157.996,143.600 157.820,143.600 157.600 C 143.600 157.380,143.960 157.200,144.400 157.200 C 144.840 157.200,145.200 157.020,145.200 156.800 C 145.200 156.166,144.288 156.349,143.200 157.200 M140.300 158.436 C 139.569 159.234,139.333 160.212,139.966 159.821 C 140.167 159.697,140.423 159.821,140.534 160.098 C 140.656 160.401,140.749 160.322,140.768 159.900 C 140.786 159.515,141.083 159.200,141.429 159.200 C 141.802 159.200,142.006 158.928,141.929 158.533 C 141.746 157.585,141.113 157.548,140.300 158.436 M297.200 197.400 C 297.200 219.363,297.276 237.257,297.369 237.164 C 297.661 236.872,297.768 158.035,297.477 157.743 C 297.325 157.591,297.200 175.437,297.200 197.400 M257.868 158.632 C 257.988 158.944,258.386 159.200,258.754 159.200 C 259.121 159.200,259.834 159.488,260.337 159.841 C 260.840 160.193,261.333 160.400,261.432 160.301 C 261.532 160.202,260.721 159.658,259.631 159.092 C 258.293 158.398,257.720 158.248,257.868 158.632 M262.197 160.794 C 262.456 161.215,263.795 161.138,264.256 160.677 C 264.409 160.525,263.953 160.400,263.243 160.400 C 262.497 160.400,262.056 160.566,262.197 160.794 M266.953 165.676 C 266.791 165.938,266.870 166.223,267.129 166.310 C 267.388 166.396,267.600 166.642,267.600 166.857 C 267.600 167.072,267.420 167.136,267.200 167.000 C 266.980 166.864,266.800 167.123,266.800 167.576 C 266.800 168.029,266.980 168.400,267.200 168.400 C 267.462 168.400,267.630 179.025,267.688 199.300 C 267.736 216.295,267.826 227.770,267.889 224.800 C 267.951 221.830,268.046 207.205,268.101 192.300 C 268.199 165.370,268.130 163.771,266.953 165.676 M132.273 169.353 C 131.974 170.132,132.436 173.200,132.853 173.200 C 133.313 173.200,133.303 169.311,132.842 169.026 C 132.645 168.904,132.389 169.051,132.273 169.353 M132.529 175.437 C 132.492 176.407,132.627 177.200,132.831 177.200 C 133.271 177.200,133.333 174.130,132.899 173.861 C 132.733 173.759,132.567 174.468,132.529 175.437 M132.555 184.600 C 132.556 187.460,132.620 188.578,132.697 187.083 C 132.774 185.589,132.774 183.249,132.696 181.883 C 132.618 180.518,132.555 181.740,132.555 184.600 M266.934 188.800 C 266.934 190.450,267.005 191.125,267.091 190.300 C 267.178 189.475,267.178 188.125,267.091 187.300 C 267.005 186.475,266.934 187.150,266.934 188.800 M132.383 205.433 C 132.373 212.895,132.296 222.294,132.211 226.319 C 132.050 233.951,132.247 236.875,132.859 235.931 C 133.217 235.377,132.971 192.438,132.607 192.074 C 132.493 191.960,132.392 197.972,132.383 205.433 M266.893 208.800 C 266.893 209.570,266.975 209.885,267.076 209.500 C 267.176 209.115,267.176 208.485,267.076 208.100 C 266.975 207.715,266.893 208.030,266.893 208.800 M266.937 214.600 C 266.939 216.360,267.009 217.030,267.093 216.089 C 267.178 215.149,267.177 213.709,267.091 212.889 C 267.005 212.070,266.936 212.840,266.937 214.600 M267.575 235.596 C 267.470 236.195,266.945 236.810,266.261 237.137 C 265.425 237.536,265.240 237.800,265.566 238.126 C 266.254 238.814,268.114 236.774,267.911 235.556 L 267.751 234.600 267.575 235.596 M260.617 239.972 C 260.344 240.414,260.975 240.892,261.344 240.522 C 261.725 240.142,261.654 239.600,261.224 239.600 C 261.017 239.600,260.744 239.768,260.617 239.972 M259.600 240.800 C 259.600 241.020,259.317 241.200,258.971 241.200 C 258.626 241.200,258.073 241.470,257.743 241.800 C 257.012 242.531,257.474 242.570,258.917 241.900 C 259.821 241.480,260.457 240.400,259.800 240.400 C 259.690 240.400,259.600 240.580,259.600 240.800 M297.321 247.400 C 297.310 250.480,297.413 252.280,297.550 251.400 C 297.688 250.520,297.697 248.000,297.571 245.800 C 297.349 241.912,297.342 241.956,297.321 247.400 M255.900 242.676 C 255.515 242.776,255.200 243.025,255.200 243.229 C 255.200 243.433,254.720 243.600,254.133 243.600 C 253.547 243.600,253.184 243.717,253.327 243.860 C 253.682 244.215,252.365 245.172,251.500 245.187 C 251.115 245.194,250.800 245.380,250.800 245.600 C 250.800 245.820,250.500 246.000,250.133 246.000 C 249.767 246.000,249.587 246.120,249.734 246.267 C 249.975 246.508,251.164 246.084,252.800 245.173 C 253.130 244.990,254.165 244.454,255.100 243.984 C 256.035 243.514,256.800 242.965,256.800 242.764 C 256.800 242.564,256.755 242.421,256.700 242.446 C 256.645 242.472,256.285 242.575,255.900 242.676 M247.600 247.200 C 247.600 247.420,247.240 247.600,246.800 247.600 C 246.360 247.600,246.000 247.780,246.000 248.000 C 246.000 248.220,245.685 248.397,245.300 248.394 C 244.702 248.389,244.687 248.331,245.200 248.000 C 245.561 247.767,245.610 247.610,245.324 247.606 C 244.563 247.596,244.289 248.383,244.963 248.641 C 245.603 248.887,248.000 248.010,248.000 247.530 C 248.000 247.379,248.405 247.178,248.900 247.082 C 249.672 246.934,249.643 246.901,248.700 246.854 C 248.095 246.825,247.600 246.980,247.600 247.200 M242.715 249.662 C 242.338 250.052,242.192 250.471,242.390 250.594 C 242.588 250.716,242.897 250.563,243.075 250.253 C 243.254 249.943,243.760 249.617,244.200 249.528 L 245.000 249.368 244.200 249.160 C 243.731 249.038,243.117 249.246,242.715 249.662 M240.694 250.239 C 240.374 250.560,240.793 251.600,241.243 251.600 C 241.439 251.600,241.600 251.240,241.600 250.800 C 241.600 250.020,241.176 249.758,240.694 250.239 M159.446 251.375 C 159.567 251.691,159.920 251.852,160.231 251.733 C 160.906 251.474,160.587 250.800,159.789 250.800 C 159.463 250.800,159.318 251.043,159.446 251.375 M238.000 252.000 C 238.000 252.220,237.629 252.400,237.176 252.400 C 236.723 252.400,236.464 252.580,236.600 252.800 C 236.736 253.020,236.627 253.200,236.357 253.200 C 236.087 253.200,235.955 253.288,236.062 253.396 C 236.399 253.733,238.394 252.626,238.397 252.100 C 238.399 251.825,238.310 251.600,238.200 251.600 C 238.090 251.600,238.000 251.780,238.000 252.000 M163.200 252.800 C 163.200 253.020,163.470 253.200,163.800 253.200 C 164.130 253.200,164.400 253.380,164.400 253.600 C 164.400 253.820,164.771 254.000,165.224 254.000 C 165.680 254.000,165.935 253.819,165.796 253.593 C 165.658 253.370,165.398 253.278,165.218 253.389 C 165.038 253.500,164.668 253.323,164.396 252.996 C 163.830 252.314,163.200 252.211,163.200 252.800 M233.907 254.000 C 233.632 254.440,233.091 254.800,232.704 254.800 C 232.317 254.800,232.000 254.980,232.000 255.200 C 232.000 255.420,231.809 255.600,231.576 255.600 C 231.343 255.600,231.288 255.375,231.453 255.100 C 231.657 254.760,231.537 254.776,231.077 255.149 C 230.705 255.451,230.414 255.991,230.432 256.349 C 230.452 256.764,230.536 256.818,230.665 256.500 C 230.776 256.225,231.086 256.000,231.354 256.000 C 232.063 256.000,233.993 255.051,233.997 254.700 C 233.999 254.535,234.270 254.400,234.600 254.400 C 234.930 254.400,235.200 254.130,235.200 253.800 C 235.200 252.948,234.496 253.057,233.907 254.000 M167.603 255.100 C 167.607 255.488,169.679 256.455,169.942 256.192 C 170.206 255.927,168.739 254.829,168.100 254.813 C 167.825 254.806,167.601 254.935,167.603 255.100 M170.654 256.998 C 170.781 257.326,171.053 257.491,171.259 257.363 C 171.466 257.236,171.861 257.282,172.136 257.466 C 172.412 257.650,172.294 257.485,171.875 257.100 C 170.940 256.243,170.346 256.193,170.654 256.998 M228.884 257.015 C 228.460 257.496,228.470 257.600,228.941 257.600 C 229.257 257.600,229.618 257.330,229.745 257.000 C 230.036 256.241,229.560 256.249,228.884 257.015 M290.200 257.600 C 290.064 257.820,290.223 258.000,290.553 258.000 C 290.883 258.000,291.264 257.820,291.400 257.600 C 291.536 257.380,291.377 257.200,291.047 257.200 C 290.717 257.200,290.336 257.380,290.200 257.600 M220.617 260.772 C 220.344 261.214,220.975 261.692,221.344 261.322 C 221.725 260.942,221.654 260.400,221.224 260.400 C 221.017 260.400,220.744 260.568,220.617 260.772 M178.800 261.055 C 178.800 261.394,181.784 263.133,182.067 262.959 C 182.250 262.845,182.400 262.943,182.400 263.176 C 182.400 263.409,182.670 263.600,183.000 263.600 C 184.004 263.600,183.671 262.899,182.400 262.336 C 181.740 262.044,181.200 261.689,181.200 261.548 C 181.200 261.406,180.660 261.212,180.000 261.115 C 179.340 261.018,178.800 260.991,178.800 261.055 M215.000 263.600 C 214.340 264.008,213.525 264.355,213.188 264.371 C 212.852 264.387,212.317 264.760,212.000 265.200 C 211.683 265.640,211.087 266.000,210.675 266.000 C 210.263 266.000,209.469 266.360,208.909 266.800 C 208.350 267.240,208.096 267.600,208.346 267.600 C 209.039 267.600,209.409 267.427,209.316 267.147 C 209.233 266.898,211.514 266.242,212.100 266.346 C 212.265 266.376,212.400 266.220,212.400 266.000 C 212.400 265.780,212.732 265.600,213.138 265.600 C 213.544 265.600,214.208 265.234,214.613 264.786 C 215.018 264.338,215.571 264.057,215.842 264.161 C 216.112 264.265,216.439 264.076,216.567 263.742 C 217.024 262.551,216.739 262.526,215.000 263.600 M184.000 264.200 C 184.000 265.018,184.983 264.957,185.632 264.100 C 186.082 263.504,186.078 263.475,185.601 263.900 C 184.931 264.497,184.251 264.565,184.600 264.000 C 184.736 263.780,184.657 263.600,184.424 263.600 C 184.191 263.600,184.000 263.870,184.000 264.200 M185.815 264.775 C 185.533 265.232,186.266 265.730,186.766 265.421 C 186.967 265.297,187.202 265.407,187.289 265.666 C 187.422 266.065,189.200 266.507,189.200 266.141 C 189.200 265.756,186.006 264.467,185.815 264.775 M275.120 265.680 C 275.493 266.053,275.707 266.053,276.080 265.680 C 276.453 265.307,276.347 265.200,275.600 265.200 C 274.853 265.200,274.747 265.307,275.120 265.680 M190.795 267.203 C 190.428 267.430,190.530 267.641,191.168 267.983 C 192.381 268.632,192.983 268.334,192.058 267.543 C 191.621 267.169,191.085 267.024,190.795 267.203 M206.637 268.223 C 206.222 268.526,205.749 268.692,205.586 268.592 C 205.424 268.491,205.070 268.675,204.800 269.000 C 204.530 269.325,204.122 269.475,203.893 269.334 C 203.664 269.192,203.593 269.265,203.736 269.496 C 203.879 269.727,203.726 270.019,203.398 270.146 C 202.748 270.395,202.580 271.817,203.157 272.174 C 203.354 272.295,203.633 271.924,203.777 271.349 C 204.057 270.232,204.897 269.200,205.526 269.200 C 206.218 269.200,208.067 268.089,207.725 267.877 C 207.542 267.764,207.052 267.919,206.637 268.223 M193.600 268.714 C 193.600 268.886,194.140 269.346,194.800 269.736 C 195.460 270.126,196.000 270.323,196.000 270.174 C 196.000 270.024,196.315 270.149,196.700 270.451 C 197.333 270.947,197.348 270.933,196.858 270.308 C 196.060 269.291,193.600 268.087,193.600 268.714 M202.842 279.800 C 202.793 282.773,202.914 284.400,203.183 284.400 C 203.448 284.400,203.600 282.725,203.600 279.800 C 203.600 277.270,203.447 275.200,203.259 275.200 C 203.072 275.200,202.884 277.270,202.842 279.800 M196.893 276.800 C 196.893 277.570,196.975 277.885,197.076 277.500 C 197.176 277.115,197.176 276.485,197.076 276.100 C 196.975 275.715,196.893 276.030,196.893 276.800 M244.500 281.688 C 244.005 281.927,243.600 282.261,243.600 282.430 C 243.600 282.600,244.140 282.469,244.800 282.140 C 245.948 281.568,246.340 281.169,245.700 281.227 C 245.535 281.242,244.995 281.449,244.500 281.688 M203.334 287.600 C 203.334 289.250,203.405 289.925,203.491 289.100 C 203.578 288.275,203.578 286.925,203.491 286.100 C 203.405 285.275,203.334 285.950,203.334 287.600 M196.893 290.400 C 196.893 291.170,196.975 291.485,197.076 291.100 C 197.176 290.715,197.176 290.085,197.076 289.700 C 196.975 289.315,196.893 289.630,196.893 290.400 M225.800 291.200 C 225.936 291.420,226.296 291.600,226.600 291.600 C 226.904 291.600,227.264 291.420,227.400 291.200 C 227.541 290.972,227.196 290.800,226.600 290.800 C 226.004 290.800,225.659 290.972,225.800 291.200 M202.800 298.033 C 202.800 301.082,202.922 302.026,203.300 301.900 C 203.575 301.808,203.782 301.523,203.760 301.267 C 203.738 301.010,203.693 299.270,203.660 297.400 C 203.573 292.485,202.800 293.054,202.800 298.033 " stroke="none" fill="#e0e0d4" fill-rule="evenodd"></path></g></svg>