<svg width="158" height="256" viewBox="0 0 158 256" fill="none" xmlns="http://www.w3.org/2000/svg">
<rect x="0.75" y="0.75" width="156.5" height="254.5" rx="6.25" stroke="#EC7E00" stroke-opacity="0.25" stroke-width="1.5"/>
<path d="M32.8889 147.868C32.8889 146.759 33.1289 145.772 33.6089 144.908C34.0889 144.033 34.7556 143.356 35.6089 142.876C36.4729 142.385 37.4489 142.14 38.5369 142.14C39.8703 142.14 41.0116 142.492 41.9609 143.196C42.9103 143.9 43.5449 144.86 43.8649 146.076H40.8569C40.6329 145.607 40.3129 145.249 39.8969 145.004C39.4916 144.759 39.0276 144.636 38.5049 144.636C37.6623 144.636 36.9796 144.929 36.4569 145.516C35.9343 146.103 35.6729 146.887 35.6729 147.868C35.6729 148.849 35.9343 149.633 36.4569 150.22C36.9796 150.807 37.6623 151.1 38.5049 151.1C39.0276 151.1 39.4916 150.977 39.8969 150.732C40.3129 150.487 40.6329 150.129 40.8569 149.66H43.8649C43.5449 150.876 42.9103 151.836 41.9609 152.54C41.0116 153.233 39.8703 153.58 38.5369 153.58C37.4489 153.58 36.4729 153.34 35.6089 152.86C34.7556 152.369 34.0889 151.692 33.6089 150.828C33.1289 149.964 32.8889 148.977 32.8889 147.868ZM49.9044 153.628C49.0298 153.628 48.2404 153.441 47.5364 153.068C46.8431 152.695 46.2938 152.161 45.8884 151.468C45.4938 150.775 45.2964 149.964 45.2964 149.036C45.2964 148.119 45.4991 147.313 45.9044 146.62C46.3098 145.916 46.8644 145.377 47.5684 145.004C48.2724 144.631 49.0618 144.444 49.9364 144.444C50.8111 144.444 51.6004 144.631 52.3044 145.004C53.0084 145.377 53.5631 145.916 53.9684 146.62C54.3738 147.313 54.5764 148.119 54.5764 149.036C54.5764 149.953 54.3684 150.764 53.9524 151.468C53.5471 152.161 52.9871 152.695 52.2724 153.068C51.5684 153.441 50.7791 153.628 49.9044 153.628ZM49.9044 151.26C50.4271 151.26 50.8698 151.068 51.2324 150.684C51.6058 150.3 51.7924 149.751 51.7924 149.036C51.7924 148.321 51.6111 147.772 51.2484 147.388C50.8964 147.004 50.4591 146.812 49.9364 146.812C49.4031 146.812 48.9604 147.004 48.6084 147.388C48.2564 147.761 48.0804 148.311 48.0804 149.036C48.0804 149.751 48.2511 150.3 48.5924 150.684C48.9444 151.068 49.3818 151.26 49.9044 151.26ZM61.7679 144.476C62.8133 144.476 63.6453 144.817 64.2639 145.5C64.8933 146.172 65.2079 147.1 65.2079 148.284V153.5H62.4879V148.652C62.4879 148.055 62.3333 147.591 62.0239 147.26C61.7146 146.929 61.2986 146.764 60.7759 146.764C60.2533 146.764 59.8373 146.929 59.5279 147.26C59.2186 147.591 59.0639 148.055 59.0639 148.652V153.5H56.3279V144.572H59.0639V145.756C59.3413 145.361 59.7146 145.052 60.1839 144.828C60.6533 144.593 61.1813 144.476 61.7679 144.476ZM72.3852 151.18V153.5H70.9932C70.0012 153.5 69.2279 153.26 68.6732 152.78C68.1185 152.289 67.8412 151.495 67.8412 150.396V146.844H66.7532V144.572H67.8412V142.396H70.5772V144.572H72.3692V146.844H70.5772V150.428C70.5772 150.695 70.6412 150.887 70.7692 151.004C70.8972 151.121 71.1105 151.18 71.4092 151.18H72.3852ZM76.9452 146.06C77.2652 145.569 77.6652 145.185 78.1452 144.908C78.6252 144.62 79.1585 144.476 79.7452 144.476V147.372H78.9932C78.3105 147.372 77.7985 147.521 77.4572 147.82C77.1159 148.108 76.9452 148.62 76.9452 149.356V153.5H74.2092V144.572H76.9452V146.06ZM80.8089 149.02C80.8089 148.103 80.9796 147.297 81.3209 146.604C81.6729 145.911 82.1476 145.377 82.7449 145.004C83.3423 144.631 84.0089 144.444 84.7449 144.444C85.3743 144.444 85.9236 144.572 86.3929 144.828C86.8729 145.084 87.2409 145.42 87.4969 145.836V144.572H90.2329V153.5H87.4969V152.236C87.2303 152.652 86.8569 152.988 86.3769 153.244C85.9076 153.5 85.3583 153.628 84.7289 153.628C84.0036 153.628 83.3423 153.441 82.7449 153.068C82.1476 152.684 81.6729 152.145 81.3209 151.452C80.9796 150.748 80.8089 149.937 80.8089 149.02ZM87.4969 149.036C87.4969 148.353 87.3049 147.815 86.9209 147.42C86.5476 147.025 86.0889 146.828 85.5449 146.828C85.0009 146.828 84.5369 147.025 84.1529 147.42C83.7796 147.804 83.5929 148.337 83.5929 149.02C83.5929 149.703 83.7796 150.247 84.1529 150.652C84.5369 151.047 85.0009 151.244 85.5449 151.244C86.0889 151.244 86.5476 151.047 86.9209 150.652C87.3049 150.257 87.4969 149.719 87.4969 149.036ZM91.9683 149.036C91.9683 148.108 92.155 147.297 92.5283 146.604C92.9123 145.911 93.4403 145.377 94.1123 145.004C94.795 144.631 95.5736 144.444 96.4483 144.444C97.5683 144.444 98.5016 144.737 99.2483 145.324C100.006 145.911 100.502 146.737 100.736 147.804H97.8243C97.579 147.121 97.1043 146.78 96.4003 146.78C95.899 146.78 95.499 146.977 95.2003 147.372C94.9016 147.756 94.7523 148.311 94.7523 149.036C94.7523 149.761 94.9016 150.321 95.2003 150.716C95.499 151.1 95.899 151.292 96.4003 151.292C97.1043 151.292 97.579 150.951 97.8243 150.268H100.736C100.502 151.313 100.006 152.135 99.2483 152.732C98.491 153.329 97.5576 153.628 96.4483 153.628C95.5736 153.628 94.795 153.441 94.1123 153.068C93.4403 152.695 92.9123 152.161 92.5283 151.468C92.155 150.775 91.9683 149.964 91.9683 149.036ZM107.476 151.18V153.5H106.084C105.092 153.5 104.318 153.26 103.764 152.78C103.209 152.289 102.932 151.495 102.932 150.396V146.844H101.844V144.572H102.932V142.396H105.668V144.572H107.46V146.844H105.668V150.428C105.668 150.695 105.732 150.887 105.86 151.004C105.988 151.121 106.201 151.18 106.5 151.18H107.476ZM113.364 153.628C112.489 153.628 111.7 153.441 110.996 153.068C110.302 152.695 109.753 152.161 109.348 151.468C108.953 150.775 108.756 149.964 108.756 149.036C108.756 148.119 108.958 147.313 109.364 146.62C109.769 145.916 110.324 145.377 111.028 145.004C111.732 144.631 112.521 144.444 113.396 144.444C114.27 144.444 115.06 144.631 115.764 145.004C116.468 145.377 117.022 145.916 117.428 146.62C117.833 147.313 118.036 148.119 118.036 149.036C118.036 149.953 117.828 150.764 117.412 151.468C117.006 152.161 116.446 152.695 115.732 153.068C115.028 153.441 114.238 153.628 113.364 153.628ZM113.364 151.26C113.886 151.26 114.329 151.068 114.692 150.684C115.065 150.3 115.252 149.751 115.252 149.036C115.252 148.321 115.07 147.772 114.708 147.388C114.356 147.004 113.918 146.812 113.396 146.812C112.862 146.812 112.42 147.004 112.068 147.388C111.716 147.761 111.54 148.311 111.54 149.036C111.54 149.751 111.71 150.3 112.052 150.684C112.404 151.068 112.841 151.26 113.364 151.26ZM122.523 146.06C122.843 145.569 123.243 145.185 123.723 144.908C124.203 144.62 124.737 144.476 125.323 144.476V147.372H124.571C123.889 147.372 123.377 147.521 123.035 147.82C122.694 148.108 122.523 148.62 122.523 149.356V153.5H119.787V144.572H122.523V146.06Z" fill="black"/>
<path d="M22.2909 171.53V178.5H21.3809V171.53H22.2909ZM34.6079 173.02L32.8979 178.5H31.9579L30.6379 174.15L29.3179 178.5H28.3779L26.6579 173.02H27.5879L28.8479 177.62L30.2079 173.02H31.1379L32.4679 177.63L33.7079 173.02H34.6079ZM35.571 175.74C35.571 175.18 35.6844 174.69 35.911 174.27C36.1377 173.843 36.4477 173.513 36.841 173.28C37.241 173.047 37.6844 172.93 38.171 172.93C38.651 172.93 39.0677 173.033 39.421 173.24C39.7744 173.447 40.0377 173.707 40.211 174.02V173.02H41.131V178.5H40.211V177.48C40.031 177.8 39.761 178.067 39.401 178.28C39.0477 178.487 38.6344 178.59 38.161 178.59C37.6744 178.59 37.2344 178.47 36.841 178.23C36.4477 177.99 36.1377 177.653 35.911 177.22C35.6844 176.787 35.571 176.293 35.571 175.74ZM40.211 175.75C40.211 175.337 40.1277 174.977 39.961 174.67C39.7944 174.363 39.5677 174.13 39.281 173.97C39.001 173.803 38.691 173.72 38.351 173.72C38.011 173.72 37.701 173.8 37.421 173.96C37.141 174.12 36.9177 174.353 36.751 174.66C36.5844 174.967 36.501 175.327 36.501 175.74C36.501 176.16 36.5844 176.527 36.751 176.84C36.9177 177.147 37.141 177.383 37.421 177.55C37.701 177.71 38.011 177.79 38.351 177.79C38.691 177.79 39.001 177.71 39.281 177.55C39.5677 177.383 39.7944 177.147 39.961 176.84C40.1277 176.527 40.211 176.163 40.211 175.75ZM45.7388 172.92C46.4055 172.92 46.9455 173.123 47.3588 173.53C47.7722 173.93 47.9788 174.51 47.9788 175.27V178.5H47.0788V175.4C47.0788 174.853 46.9422 174.437 46.6688 174.15C46.3955 173.857 46.0222 173.71 45.5488 173.71C45.0688 173.71 44.6855 173.86 44.3988 174.16C44.1188 174.46 43.9788 174.897 43.9788 175.47V178.5H43.0688V173.02H43.9788V173.8C44.1588 173.52 44.4022 173.303 44.7088 173.15C45.0222 172.997 45.3655 172.92 45.7388 172.92ZM50.9753 173.77V177C50.9753 177.267 51.032 177.457 51.1453 177.57C51.2586 177.677 51.4553 177.73 51.7353 177.73H52.4053V178.5H51.5853C51.0786 178.5 50.6986 178.383 50.4453 178.15C50.192 177.917 50.0653 177.533 50.0653 177V173.77H49.3553V173.02H50.0653V171.64H50.9753V173.02H52.4053V173.77H50.9753ZM58.0839 173.77V177C58.0839 177.267 58.1406 177.457 58.2539 177.57C58.3672 177.677 58.5639 177.73 58.8439 177.73H59.5139V178.5H58.6939C58.1872 178.5 57.8072 178.383 57.5539 178.15C57.3006 177.917 57.1739 177.533 57.1739 177V173.77H56.4639V173.02H57.1739V171.64H58.0839V173.02H59.5139V173.77H58.0839ZM63.4065 178.59C62.8932 178.59 62.4265 178.473 62.0065 178.24C61.5932 178.007 61.2665 177.677 61.0265 177.25C60.7932 176.817 60.6765 176.317 60.6765 175.75C60.6765 175.19 60.7965 174.697 61.0365 174.27C61.2832 173.837 61.6165 173.507 62.0365 173.28C62.4565 173.047 62.9265 172.93 63.4465 172.93C63.9665 172.93 64.4365 173.047 64.8565 173.28C65.2765 173.507 65.6065 173.833 65.8465 174.26C66.0932 174.687 66.2165 175.183 66.2165 175.75C66.2165 176.317 66.0898 176.817 65.8365 177.25C65.5898 177.677 65.2532 178.007 64.8265 178.24C64.3998 178.473 63.9265 178.59 63.4065 178.59ZM63.4065 177.79C63.7332 177.79 64.0398 177.713 64.3265 177.56C64.6132 177.407 64.8432 177.177 65.0165 176.87C65.1965 176.563 65.2865 176.19 65.2865 175.75C65.2865 175.31 65.1998 174.937 65.0265 174.63C64.8532 174.323 64.6265 174.097 64.3465 173.95C64.0665 173.797 63.7632 173.72 63.4365 173.72C63.1032 173.72 62.7965 173.797 62.5165 173.95C62.2432 174.097 62.0232 174.323 61.8565 174.63C61.6898 174.937 61.6065 175.31 61.6065 175.75C61.6065 176.197 61.6865 176.573 61.8465 176.88C62.0132 177.187 62.2332 177.417 62.5065 177.57C62.7798 177.717 63.0798 177.79 63.4065 177.79ZM73.109 173.77H71.959V178.5H71.049V173.77H70.339V173.02H71.049V172.63C71.049 172.017 71.2057 171.57 71.519 171.29C71.839 171.003 72.349 170.86 73.049 170.86V171.62C72.649 171.62 72.3657 171.7 72.199 171.86C72.039 172.013 71.959 172.27 71.959 172.63V173.02H73.109V173.77ZM75.04 172.13C74.8667 172.13 74.72 172.07 74.6 171.95C74.48 171.83 74.42 171.683 74.42 171.51C74.42 171.337 74.48 171.19 74.6 171.07C74.72 170.95 74.8667 170.89 75.04 170.89C75.2067 170.89 75.3467 170.95 75.46 171.07C75.58 171.19 75.64 171.337 75.64 171.51C75.64 171.683 75.58 171.83 75.46 171.95C75.3467 172.07 75.2067 172.13 75.04 172.13ZM75.48 173.02V178.5H74.57V173.02H75.48ZM80.1009 172.92C80.7676 172.92 81.3076 173.123 81.7209 173.53C82.1343 173.93 82.3409 174.51 82.3409 175.27V178.5H81.4409V175.4C81.4409 174.853 81.3043 174.437 81.0309 174.15C80.7576 173.857 80.3843 173.71 79.9109 173.71C79.4309 173.71 79.0476 173.86 78.7609 174.16C78.4809 174.46 78.3409 174.897 78.3409 175.47V178.5H77.4309V173.02H78.3409V173.8C78.5209 173.52 78.7643 173.303 79.0709 173.15C79.3843 172.997 79.7276 172.92 80.1009 172.92ZM83.8874 175.74C83.8874 175.18 84.0008 174.69 84.2274 174.27C84.4541 173.843 84.7641 173.513 85.1574 173.28C85.5574 173.047 86.0041 172.93 86.4974 172.93C86.9241 172.93 87.3208 173.03 87.6874 173.23C88.0541 173.423 88.3341 173.68 88.5274 174V171.1H89.4474V178.5H88.5274V177.47C88.3474 177.797 88.0808 178.067 87.7274 178.28C87.3741 178.487 86.9608 178.59 86.4874 178.59C86.0008 178.59 85.5574 178.47 85.1574 178.23C84.7641 177.99 84.4541 177.653 84.2274 177.22C84.0008 176.787 83.8874 176.293 83.8874 175.74ZM88.5274 175.75C88.5274 175.337 88.4441 174.977 88.2774 174.67C88.1108 174.363 87.8841 174.13 87.5974 173.97C87.3174 173.803 87.0074 173.72 86.6674 173.72C86.3274 173.72 86.0174 173.8 85.7374 173.96C85.4574 174.12 85.2341 174.353 85.0674 174.66C84.9008 174.967 84.8174 175.327 84.8174 175.74C84.8174 176.16 84.9008 176.527 85.0674 176.84C85.2341 177.147 85.4574 177.383 85.7374 177.55C86.0174 177.71 86.3274 177.79 86.6674 177.79C87.0074 177.79 87.3174 177.71 87.5974 177.55C87.8841 177.383 88.1108 177.147 88.2774 176.84C88.4441 176.527 88.5274 176.163 88.5274 175.75ZM95.3613 174.03C95.5413 173.717 95.8079 173.457 96.1613 173.25C96.5213 173.037 96.9379 172.93 97.4113 172.93C97.8979 172.93 98.3379 173.047 98.7313 173.28C99.1313 173.513 99.4446 173.843 99.6713 174.27C99.8979 174.69 100.011 175.18 100.011 175.74C100.011 176.293 99.8979 176.787 99.6713 177.22C99.4446 177.653 99.1313 177.99 98.7313 178.23C98.3379 178.47 97.8979 178.59 97.4113 178.59C96.9446 178.59 96.5313 178.487 96.1713 178.28C95.8179 178.067 95.5479 177.803 95.3613 177.49V181.1H94.4513V173.02H95.3613V174.03ZM99.0813 175.74C99.0813 175.327 98.9979 174.967 98.8313 174.66C98.6646 174.353 98.4379 174.12 98.1513 173.96C97.8713 173.8 97.5613 173.72 97.2213 173.72C96.8879 173.72 96.5779 173.803 96.2913 173.97C96.0113 174.13 95.7846 174.367 95.6113 174.68C95.4446 174.987 95.3613 175.343 95.3613 175.75C95.3613 176.163 95.4446 176.527 95.6113 176.84C95.7846 177.147 96.0113 177.383 96.2913 177.55C96.5779 177.71 96.8879 177.79 97.2213 177.79C97.5613 177.79 97.8713 177.71 98.1513 177.55C98.4379 177.383 98.6646 177.147 98.8313 176.84C98.9979 176.527 99.0813 176.16 99.0813 175.74ZM102.519 173.91C102.679 173.597 102.906 173.353 103.199 173.18C103.499 173.007 103.862 172.92 104.289 172.92V173.86H104.049C103.029 173.86 102.519 174.413 102.519 175.52V178.5H101.609V173.02H102.519V173.91ZM108.13 178.59C107.616 178.59 107.15 178.473 106.73 178.24C106.316 178.007 105.99 177.677 105.75 177.25C105.516 176.817 105.4 176.317 105.4 175.75C105.4 175.19 105.52 174.697 105.76 174.27C106.006 173.837 106.34 173.507 106.76 173.28C107.18 173.047 107.65 172.93 108.17 172.93C108.69 172.93 109.16 173.047 109.58 173.28C110 173.507 110.33 173.833 110.57 174.26C110.816 174.687 110.94 175.183 110.94 175.75C110.94 176.317 110.813 176.817 110.56 177.25C110.313 177.677 109.976 178.007 109.55 178.24C109.123 178.473 108.65 178.59 108.13 178.59ZM108.13 177.79C108.456 177.79 108.763 177.713 109.05 177.56C109.336 177.407 109.566 177.177 109.74 176.87C109.92 176.563 110.01 176.19 110.01 175.75C110.01 175.31 109.923 174.937 109.75 174.63C109.576 174.323 109.35 174.097 109.07 173.95C108.79 173.797 108.486 173.72 108.16 173.72C107.826 173.72 107.52 173.797 107.24 173.95C106.966 174.097 106.746 174.323 106.58 174.63C106.413 174.937 106.33 175.31 106.33 175.75C106.33 176.197 106.41 176.573 106.57 176.88C106.736 177.187 106.956 177.417 107.23 177.57C107.503 177.717 107.803 177.79 108.13 177.79ZM113.026 172.13C112.853 172.13 112.706 172.07 112.586 171.95C112.473 171.83 112.416 171.683 112.416 171.51C112.416 171.337 112.473 171.19 112.586 171.07C112.706 170.95 112.853 170.89 113.026 170.89C113.199 170.89 113.343 170.95 113.456 171.07C113.576 171.19 113.636 171.337 113.636 171.51C113.636 171.683 113.576 171.83 113.456 171.95C113.343 172.07 113.199 172.13 113.026 172.13ZM113.476 179.69C113.476 180.177 113.353 180.533 113.106 180.76C112.859 180.987 112.499 181.1 112.026 181.1H111.496V180.33H111.876C112.129 180.33 112.306 180.28 112.406 180.18C112.513 180.08 112.566 179.91 112.566 179.67V173.02H113.476V179.69ZM120.416 175.55C120.416 175.723 120.406 175.907 120.386 176.1H116.006C116.04 176.64 116.223 177.063 116.556 177.37C116.896 177.67 117.306 177.82 117.786 177.82C118.18 177.82 118.506 177.73 118.766 177.55C119.033 177.363 119.22 177.117 119.326 176.81H120.306C120.16 177.337 119.866 177.767 119.426 178.1C118.986 178.427 118.44 178.59 117.786 178.59C117.266 178.59 116.8 178.473 116.386 178.24C115.98 178.007 115.66 177.677 115.426 177.25C115.193 176.817 115.076 176.317 115.076 175.75C115.076 175.183 115.19 174.687 115.416 174.26C115.643 173.833 115.96 173.507 116.366 173.28C116.78 173.047 117.253 172.93 117.786 172.93C118.306 172.93 118.766 173.043 119.166 173.27C119.566 173.497 119.873 173.81 120.086 174.21C120.306 174.603 120.416 175.05 120.416 175.55ZM119.476 175.36C119.476 175.013 119.4 174.717 119.246 174.47C119.093 174.217 118.883 174.027 118.616 173.9C118.356 173.767 118.066 173.7 117.746 173.7C117.286 173.7 116.893 173.847 116.566 174.14C116.246 174.433 116.063 174.84 116.016 175.36H119.476ZM121.678 175.75C121.678 175.183 121.791 174.69 122.018 174.27C122.244 173.843 122.558 173.513 122.958 173.28C123.364 173.047 123.828 172.93 124.348 172.93C125.021 172.93 125.574 173.093 126.008 173.42C126.448 173.747 126.738 174.2 126.878 174.78H125.898C125.804 174.447 125.621 174.183 125.348 173.99C125.081 173.797 124.748 173.7 124.348 173.7C123.828 173.7 123.408 173.88 123.088 174.24C122.768 174.593 122.608 175.097 122.608 175.75C122.608 176.41 122.768 176.92 123.088 177.28C123.408 177.64 123.828 177.82 124.348 177.82C124.748 177.82 125.081 177.727 125.348 177.54C125.614 177.353 125.798 177.087 125.898 176.74H126.878C126.731 177.3 126.438 177.75 125.998 178.09C125.558 178.423 125.008 178.59 124.348 178.59C123.828 178.59 123.364 178.473 122.958 178.24C122.558 178.007 122.244 177.677 122.018 177.25C121.791 176.823 121.678 176.323 121.678 175.75ZM129.602 173.77V177C129.602 177.267 129.659 177.457 129.772 177.57C129.885 177.677 130.082 177.73 130.362 177.73H131.032V178.5H130.212C129.705 178.5 129.325 178.383 129.072 178.15C128.819 177.917 128.692 177.533 128.692 177V173.77H127.982V173.02H128.692V171.64H129.602V173.02H131.032V173.77H129.602ZM134.474 178.59C134.054 178.59 133.678 178.52 133.344 178.38C133.011 178.233 132.748 178.033 132.554 177.78C132.361 177.52 132.254 177.223 132.234 176.89H133.174C133.201 177.163 133.328 177.387 133.554 177.56C133.788 177.733 134.091 177.82 134.464 177.82C134.811 177.82 135.084 177.743 135.284 177.59C135.484 177.437 135.584 177.243 135.584 177.01C135.584 176.77 135.478 176.593 135.264 176.48C135.051 176.36 134.721 176.243 134.274 176.13C133.868 176.023 133.534 175.917 133.274 175.81C133.021 175.697 132.801 175.533 132.614 175.32C132.434 175.1 132.344 174.813 132.344 174.46C132.344 174.18 132.428 173.923 132.594 173.69C132.761 173.457 132.998 173.273 133.304 173.14C133.611 173 133.961 172.93 134.354 172.93C134.961 172.93 135.451 173.083 135.824 173.39C136.198 173.697 136.398 174.117 136.424 174.65H135.514C135.494 174.363 135.378 174.133 135.164 173.96C134.958 173.787 134.678 173.7 134.324 173.7C133.998 173.7 133.738 173.77 133.544 173.91C133.351 174.05 133.254 174.233 133.254 174.46C133.254 174.64 133.311 174.79 133.424 174.91C133.544 175.023 133.691 175.117 133.864 175.19C134.044 175.257 134.291 175.333 134.604 175.42C134.998 175.527 135.318 175.633 135.564 175.74C135.811 175.84 136.021 175.993 136.194 176.2C136.374 176.407 136.468 176.677 136.474 177.01C136.474 177.31 136.391 177.58 136.224 177.82C136.058 178.06 135.821 178.25 135.514 178.39C135.214 178.523 134.868 178.59 134.474 178.59ZM28.8622 190.74C28.8622 190.18 28.9756 189.69 29.2022 189.27C29.4289 188.843 29.7389 188.513 30.1322 188.28C30.5322 188.047 30.9756 187.93 31.4622 187.93C31.9422 187.93 32.3589 188.033 32.7122 188.24C33.0656 188.447 33.3289 188.707 33.5022 189.02V188.02H34.4222V193.5H33.5022V192.48C33.3222 192.8 33.0522 193.067 32.6922 193.28C32.3389 193.487 31.9256 193.59 31.4522 193.59C30.9656 193.59 30.5256 193.47 30.1322 193.23C29.7389 192.99 29.4289 192.653 29.2022 192.22C28.9756 191.787 28.8622 191.293 28.8622 190.74ZM33.5022 190.75C33.5022 190.337 33.4189 189.977 33.2522 189.67C33.0856 189.363 32.8589 189.13 32.5722 188.97C32.2922 188.803 31.9822 188.72 31.6422 188.72C31.3022 188.72 30.9922 188.8 30.7122 188.96C30.4322 189.12 30.2089 189.353 30.0422 189.66C29.8756 189.967 29.7922 190.327 29.7922 190.74C29.7922 191.16 29.8756 191.527 30.0422 191.84C30.2089 192.147 30.4322 192.383 30.7122 192.55C30.9922 192.71 31.3022 192.79 31.6422 192.79C31.9822 192.79 32.2922 192.71 32.5722 192.55C32.8589 192.383 33.0856 192.147 33.2522 191.84C33.4189 191.527 33.5022 191.163 33.5022 190.75ZM39.03 187.92C39.6967 187.92 40.2367 188.123 40.65 188.53C41.0634 188.93 41.27 189.51 41.27 190.27V193.5H40.37V190.4C40.37 189.853 40.2334 189.437 39.96 189.15C39.6867 188.857 39.3134 188.71 38.84 188.71C38.36 188.71 37.9767 188.86 37.69 189.16C37.41 189.46 37.27 189.897 37.27 190.47V193.5H36.36V188.02H37.27V188.8C37.45 188.52 37.6934 188.303 38 188.15C38.3134 187.997 38.6567 187.92 39.03 187.92ZM42.8165 190.74C42.8165 190.18 42.9299 189.69 43.1565 189.27C43.3832 188.843 43.6932 188.513 44.0865 188.28C44.4865 188.047 44.9332 187.93 45.4265 187.93C45.8532 187.93 46.2499 188.03 46.6165 188.23C46.9832 188.423 47.2632 188.68 47.4565 189V186.1H48.3765V193.5H47.4565V192.47C47.2765 192.797 47.0099 193.067 46.6565 193.28C46.3032 193.487 45.8899 193.59 45.4165 193.59C44.9299 193.59 44.4865 193.47 44.0865 193.23C43.6932 192.99 43.3832 192.653 43.1565 192.22C42.9299 191.787 42.8165 191.293 42.8165 190.74ZM47.4565 190.75C47.4565 190.337 47.3732 189.977 47.2065 189.67C47.0399 189.363 46.8132 189.13 46.5265 188.97C46.2465 188.803 45.9365 188.72 45.5965 188.72C45.2565 188.72 44.9465 188.8 44.6665 188.96C44.3865 189.12 44.1632 189.353 43.9965 189.66C43.8299 189.967 43.7465 190.327 43.7465 190.74C43.7465 191.16 43.8299 191.527 43.9965 191.84C44.1632 192.147 44.3865 192.383 44.6665 192.55C44.9465 192.71 45.2565 192.79 45.5965 192.79C45.9365 192.79 46.2465 192.71 46.5265 192.55C46.8132 192.383 47.0399 192.147 47.2065 191.84C47.3732 191.527 47.4565 191.163 47.4565 190.75ZM55.3204 193.59C54.9004 193.59 54.5237 193.52 54.1904 193.38C53.857 193.233 53.5937 193.033 53.4004 192.78C53.207 192.52 53.1004 192.223 53.0804 191.89H54.0204C54.047 192.163 54.1737 192.387 54.4004 192.56C54.6337 192.733 54.937 192.82 55.3104 192.82C55.657 192.82 55.9304 192.743 56.1304 192.59C56.3304 192.437 56.4304 192.243 56.4304 192.01C56.4304 191.77 56.3237 191.593 56.1104 191.48C55.897 191.36 55.567 191.243 55.1204 191.13C54.7137 191.023 54.3804 190.917 54.1204 190.81C53.867 190.697 53.647 190.533 53.4604 190.32C53.2804 190.1 53.1904 189.813 53.1904 189.46C53.1904 189.18 53.2737 188.923 53.4404 188.69C53.607 188.457 53.8437 188.273 54.1504 188.14C54.457 188 54.807 187.93 55.2004 187.93C55.807 187.93 56.297 188.083 56.6704 188.39C57.0437 188.697 57.2437 189.117 57.2704 189.65H56.3604C56.3404 189.363 56.2237 189.133 56.0104 188.96C55.8037 188.787 55.5237 188.7 55.1704 188.7C54.8437 188.7 54.5837 188.77 54.3904 188.91C54.197 189.05 54.1004 189.233 54.1004 189.46C54.1004 189.64 54.157 189.79 54.2704 189.91C54.3904 190.023 54.537 190.117 54.7104 190.19C54.8904 190.257 55.137 190.333 55.4504 190.42C55.8437 190.527 56.1637 190.633 56.4104 190.74C56.657 190.84 56.867 190.993 57.0404 191.2C57.2204 191.407 57.3137 191.677 57.3204 192.01C57.3204 192.31 57.237 192.58 57.0704 192.82C56.9037 193.06 56.667 193.25 56.3604 193.39C56.0604 193.523 55.7137 193.59 55.3204 193.59ZM63.865 188.02V193.5H62.955V192.69C62.7816 192.97 62.5383 193.19 62.225 193.35C61.9183 193.503 61.5783 193.58 61.205 193.58C60.7783 193.58 60.395 193.493 60.055 193.32C59.715 193.14 59.445 192.873 59.245 192.52C59.0516 192.167 58.955 191.737 58.955 191.23V188.02H59.855V191.11C59.855 191.65 59.9916 192.067 60.265 192.36C60.5383 192.647 60.9116 192.79 61.385 192.79C61.8716 192.79 62.255 192.64 62.535 192.34C62.815 192.04 62.955 191.603 62.955 191.03V188.02H63.865ZM66.7114 189.04C66.8981 188.713 67.1714 188.447 67.5314 188.24C67.8914 188.033 68.3014 187.93 68.7614 187.93C69.2548 187.93 69.6981 188.047 70.0914 188.28C70.4848 188.513 70.7948 188.843 71.0214 189.27C71.2481 189.69 71.3614 190.18 71.3614 190.74C71.3614 191.293 71.2481 191.787 71.0214 192.22C70.7948 192.653 70.4814 192.99 70.0814 193.23C69.6881 193.47 69.2481 193.59 68.7614 193.59C68.2881 193.59 67.8714 193.487 67.5114 193.28C67.1581 193.073 66.8914 192.81 66.7114 192.49V193.5H65.8014V186.1H66.7114V189.04ZM70.4314 190.74C70.4314 190.327 70.3481 189.967 70.1814 189.66C70.0148 189.353 69.7881 189.12 69.5014 188.96C69.2214 188.8 68.9114 188.72 68.5714 188.72C68.2381 188.72 67.9281 188.803 67.6414 188.97C67.3614 189.13 67.1348 189.367 66.9614 189.68C66.7948 189.987 66.7114 190.343 66.7114 190.75C66.7114 191.163 66.7948 191.527 66.9614 191.84C67.1348 192.147 67.3614 192.383 67.6414 192.55C67.9281 192.71 68.2381 192.79 68.5714 192.79C68.9114 192.79 69.2214 192.71 69.5014 192.55C69.7881 192.383 70.0148 192.147 70.1814 191.84C70.3481 191.527 70.4314 191.16 70.4314 190.74ZM79.5493 187.92C79.9759 187.92 80.3559 188.01 80.6893 188.19C81.0226 188.363 81.2859 188.627 81.4793 188.98C81.6726 189.333 81.7693 189.763 81.7693 190.27V193.5H80.8693V190.4C80.8693 189.853 80.7326 189.437 80.4593 189.15C80.1926 188.857 79.8293 188.71 79.3693 188.71C78.8959 188.71 78.5193 188.863 78.2393 189.17C77.9593 189.47 77.8193 189.907 77.8193 190.48V193.5H76.9193V190.4C76.9193 189.853 76.7826 189.437 76.5093 189.15C76.2426 188.857 75.8793 188.71 75.4193 188.71C74.9459 188.71 74.5693 188.863 74.2893 189.17C74.0093 189.47 73.8693 189.907 73.8693 190.48V193.5H72.9593V188.02H73.8693V188.81C74.0493 188.523 74.2893 188.303 74.5893 188.15C74.8959 187.997 75.2326 187.92 75.5993 187.92C76.0593 187.92 76.4659 188.023 76.8193 188.23C77.1726 188.437 77.4359 188.74 77.6093 189.14C77.7626 188.753 78.0159 188.453 78.3693 188.24C78.7226 188.027 79.1159 187.92 79.5493 187.92ZM84.132 187.13C83.9587 187.13 83.812 187.07 83.692 186.95C83.572 186.83 83.512 186.683 83.512 186.51C83.512 186.337 83.572 186.19 83.692 186.07C83.812 185.95 83.9587 185.89 84.132 185.89C84.2987 185.89 84.4387 185.95 84.552 186.07C84.672 186.19 84.732 186.337 84.732 186.51C84.732 186.683 84.672 186.83 84.552 186.95C84.4387 187.07 84.2987 187.13 84.132 187.13ZM84.572 188.02V193.5H83.662V188.02H84.572ZM87.6329 188.77V192C87.6329 192.267 87.6896 192.457 87.8029 192.57C87.9163 192.677 88.1129 192.73 88.3929 192.73H89.0629V193.5H88.2429C87.7363 193.5 87.3563 193.383 87.1029 193.15C86.8496 192.917 86.7229 192.533 86.7229 192V188.77H86.0129V188.02H86.7229V186.64H87.6329V188.02H89.0629V188.77H87.6329ZM94.5415 189.04C94.7282 188.713 95.0015 188.447 95.3615 188.24C95.7215 188.033 96.1315 187.93 96.5915 187.93C97.0849 187.93 97.5282 188.047 97.9215 188.28C98.3149 188.513 98.6249 188.843 98.8515 189.27C99.0782 189.69 99.1915 190.18 99.1915 190.74C99.1915 191.293 99.0782 191.787 98.8515 192.22C98.6249 192.653 98.3115 192.99 97.9115 193.23C97.5182 193.47 97.0782 193.59 96.5915 193.59C96.1182 193.59 95.7015 193.487 95.3415 193.28C94.9882 193.073 94.7215 192.81 94.5415 192.49V193.5H93.6315V186.1H94.5415V189.04ZM98.2615 190.74C98.2615 190.327 98.1782 189.967 98.0115 189.66C97.8449 189.353 97.6182 189.12 97.3315 188.96C97.0515 188.8 96.7415 188.72 96.4015 188.72C96.0682 188.72 95.7582 188.803 95.4715 188.97C95.1915 189.13 94.9649 189.367 94.7915 189.68C94.6249 189.987 94.5415 190.343 94.5415 190.75C94.5415 191.163 94.6249 191.527 94.7915 191.84C94.9649 192.147 95.1915 192.383 95.4715 192.55C95.7582 192.71 96.0682 192.79 96.4015 192.79C96.7415 192.79 97.0515 192.71 97.3315 192.55C97.6182 192.383 97.8449 192.147 98.0115 191.84C98.1782 191.527 98.2615 191.16 98.2615 190.74ZM101.259 187.13C101.086 187.13 100.939 187.07 100.819 186.95C100.699 186.83 100.639 186.683 100.639 186.51C100.639 186.337 100.699 186.19 100.819 186.07C100.939 185.95 101.086 185.89 101.259 185.89C101.426 185.89 101.566 185.95 101.679 186.07C101.799 186.19 101.859 186.337 101.859 186.51C101.859 186.683 101.799 186.83 101.679 186.95C101.566 187.07 101.426 187.13 101.259 187.13ZM101.699 188.02V193.5H100.789V188.02H101.699ZM103.31 190.74C103.31 190.18 103.424 189.69 103.65 189.27C103.877 188.843 104.187 188.513 104.58 188.28C104.98 188.047 105.427 187.93 105.92 187.93C106.347 187.93 106.744 188.03 107.11 188.23C107.477 188.423 107.757 188.68 107.95 189V186.1H108.87V193.5H107.95V192.47C107.77 192.797 107.504 193.067 107.15 193.28C106.797 193.487 106.384 193.59 105.91 193.59C105.424 193.59 104.98 193.47 104.58 193.23C104.187 192.99 103.877 192.653 103.65 192.22C103.424 191.787 103.31 191.293 103.31 190.74ZM107.95 190.75C107.95 190.337 107.867 189.977 107.7 189.67C107.534 189.363 107.307 189.13 107.02 188.97C106.74 188.803 106.43 188.72 106.09 188.72C105.75 188.72 105.44 188.8 105.16 188.96C104.88 189.12 104.657 189.353 104.49 189.66C104.324 189.967 104.24 190.327 104.24 190.74C104.24 191.16 104.324 191.527 104.49 191.84C104.657 192.147 104.88 192.383 105.16 192.55C105.44 192.71 105.75 192.79 106.09 192.79C106.43 192.79 106.74 192.71 107.02 192.55C107.307 192.383 107.534 192.147 107.7 191.84C107.867 191.527 107.95 191.163 107.95 190.75ZM112.748 193.59C112.328 193.59 111.951 193.52 111.618 193.38C111.285 193.233 111.021 193.033 110.828 192.78C110.635 192.52 110.528 192.223 110.508 191.89H111.448C111.475 192.163 111.601 192.387 111.828 192.56C112.061 192.733 112.365 192.82 112.738 192.82C113.085 192.82 113.358 192.743 113.558 192.59C113.758 192.437 113.858 192.243 113.858 192.01C113.858 191.77 113.751 191.593 113.538 191.48C113.325 191.36 112.995 191.243 112.548 191.13C112.141 191.023 111.808 190.917 111.548 190.81C111.295 190.697 111.075 190.533 110.888 190.32C110.708 190.1 110.618 189.813 110.618 189.46C110.618 189.18 110.701 188.923 110.868 188.69C111.035 188.457 111.271 188.273 111.578 188.14C111.885 188 112.235 187.93 112.628 187.93C113.235 187.93 113.725 188.083 114.098 188.39C114.471 188.697 114.671 189.117 114.698 189.65H113.788C113.768 189.363 113.651 189.133 113.438 188.96C113.231 188.787 112.951 188.7 112.598 188.7C112.271 188.7 112.011 188.77 111.818 188.91C111.625 189.05 111.528 189.233 111.528 189.46C111.528 189.64 111.585 189.79 111.698 189.91C111.818 190.023 111.965 190.117 112.138 190.19C112.318 190.257 112.565 190.333 112.878 190.42C113.271 190.527 113.591 190.633 113.838 190.74C114.085 190.84 114.295 190.993 114.468 191.2C114.648 191.407 114.741 191.677 114.748 192.01C114.748 192.31 114.665 192.58 114.498 192.82C114.331 193.06 114.095 193.25 113.788 193.39C113.488 193.523 113.141 193.59 112.748 193.59ZM120.609 188.77V192C120.609 192.267 120.665 192.457 120.779 192.57C120.892 192.677 121.089 192.73 121.369 192.73H122.039V193.5H121.219C120.712 193.5 120.332 193.383 120.079 193.15C119.825 192.917 119.699 192.533 119.699 192V188.77H118.989V188.02H119.699V186.64H120.609V188.02H122.039V188.77H120.609ZM125.931 193.59C125.418 193.59 124.951 193.473 124.531 193.24C124.118 193.007 123.791 192.677 123.551 192.25C123.318 191.817 123.201 191.317 123.201 190.75C123.201 190.19 123.321 189.697 123.561 189.27C123.808 188.837 124.141 188.507 124.561 188.28C124.981 188.047 125.451 187.93 125.971 187.93C126.491 187.93 126.961 188.047 127.381 188.28C127.801 188.507 128.131 188.833 128.371 189.26C128.618 189.687 128.741 190.183 128.741 190.75C128.741 191.317 128.615 191.817 128.361 192.25C128.115 192.677 127.778 193.007 127.351 193.24C126.925 193.473 126.451 193.59 125.931 193.59ZM125.931 192.79C126.258 192.79 126.565 192.713 126.851 192.56C127.138 192.407 127.368 192.177 127.541 191.87C127.721 191.563 127.811 191.19 127.811 190.75C127.811 190.31 127.725 189.937 127.551 189.63C127.378 189.323 127.151 189.097 126.871 188.95C126.591 188.797 126.288 188.72 125.961 188.72C125.628 188.72 125.321 188.797 125.041 188.95C124.768 189.097 124.548 189.323 124.381 189.63C124.215 189.937 124.131 190.31 124.131 190.75C124.131 191.197 124.211 191.573 124.371 191.88C124.538 192.187 124.758 192.417 125.031 192.57C125.305 192.717 125.605 192.79 125.931 192.79ZM35.7952 204.03C35.9752 203.717 36.2419 203.457 36.5952 203.25C36.9552 203.037 37.3719 202.93 37.8452 202.93C38.3319 202.93 38.7719 203.047 39.1652 203.28C39.5652 203.513 39.8786 203.843 40.1052 204.27C40.3319 204.69 40.4452 205.18 40.4452 205.74C40.4452 206.293 40.3319 206.787 40.1052 207.22C39.8786 207.653 39.5652 207.99 39.1652 208.23C38.7719 208.47 38.3319 208.59 37.8452 208.59C37.3786 208.59 36.9652 208.487 36.6052 208.28C36.2519 208.067 35.9819 207.803 35.7952 207.49V211.1H34.8852V203.02H35.7952V204.03ZM39.5152 205.74C39.5152 205.327 39.4319 204.967 39.2652 204.66C39.0986 204.353 38.8719 204.12 38.5852 203.96C38.3052 203.8 37.9952 203.72 37.6552 203.72C37.3219 203.72 37.0119 203.803 36.7252 203.97C36.4452 204.13 36.2186 204.367 36.0452 204.68C35.8786 204.987 35.7952 205.343 35.7952 205.75C35.7952 206.163 35.8786 206.527 36.0452 206.84C36.2186 207.147 36.4452 207.383 36.7252 207.55C37.0119 207.71 37.3219 207.79 37.6552 207.79C37.9952 207.79 38.3052 207.71 38.5852 207.55C38.8719 207.383 39.0986 207.147 39.2652 206.84C39.4319 206.527 39.5152 206.16 39.5152 205.74ZM42.953 203.91C43.113 203.597 43.3397 203.353 43.633 203.18C43.933 203.007 44.2964 202.92 44.723 202.92V203.86H44.483C43.463 203.86 42.953 204.413 42.953 205.52V208.5H42.043V203.02H42.953V203.91ZM48.5635 208.59C48.0502 208.59 47.5835 208.473 47.1635 208.24C46.7502 208.007 46.4235 207.677 46.1835 207.25C45.9502 206.817 45.8335 206.317 45.8335 205.75C45.8335 205.19 45.9535 204.697 46.1935 204.27C46.4402 203.837 46.7735 203.507 47.1935 203.28C47.6135 203.047 48.0835 202.93 48.6035 202.93C49.1235 202.93 49.5935 203.047 50.0135 203.28C50.4335 203.507 50.7635 203.833 51.0035 204.26C51.2502 204.687 51.3735 205.183 51.3735 205.75C51.3735 206.317 51.2468 206.817 50.9935 207.25C50.7468 207.677 50.4102 208.007 49.9835 208.24C49.5568 208.473 49.0835 208.59 48.5635 208.59ZM48.5635 207.79C48.8902 207.79 49.1968 207.713 49.4835 207.56C49.7702 207.407 50.0002 207.177 50.1735 206.87C50.3535 206.563 50.4435 206.19 50.4435 205.75C50.4435 205.31 50.3568 204.937 50.1835 204.63C50.0102 204.323 49.7835 204.097 49.5035 203.95C49.2235 203.797 48.9202 203.72 48.5935 203.72C48.2602 203.72 47.9535 203.797 47.6735 203.95C47.4002 204.097 47.1802 204.323 47.0135 204.63C46.8468 204.937 46.7635 205.31 46.7635 205.75C46.7635 206.197 46.8435 206.573 47.0035 206.88C47.1702 207.187 47.3902 207.417 47.6635 207.57C47.9368 207.717 48.2368 207.79 48.5635 207.79ZM53.88 204.03C54.06 203.717 54.3267 203.457 54.68 203.25C55.04 203.037 55.4567 202.93 55.93 202.93C56.4167 202.93 56.8567 203.047 57.25 203.28C57.65 203.513 57.9633 203.843 58.19 204.27C58.4167 204.69 58.53 205.18 58.53 205.74C58.53 206.293 58.4167 206.787 58.19 207.22C57.9633 207.653 57.65 207.99 57.25 208.23C56.8567 208.47 56.4167 208.59 55.93 208.59C55.4633 208.59 55.05 208.487 54.69 208.28C54.3367 208.067 54.0667 207.803 53.88 207.49V211.1H52.97V203.02H53.88V204.03ZM57.6 205.74C57.6 205.327 57.5167 204.967 57.35 204.66C57.1833 204.353 56.9567 204.12 56.67 203.96C56.39 203.8 56.08 203.72 55.74 203.72C55.4067 203.72 55.0967 203.803 54.81 203.97C54.53 204.13 54.3033 204.367 54.13 204.68C53.9633 204.987 53.88 205.343 53.88 205.75C53.88 206.163 53.9633 206.527 54.13 206.84C54.3033 207.147 54.53 207.383 54.81 207.55C55.0967 207.71 55.4067 207.79 55.74 207.79C56.08 207.79 56.39 207.71 56.67 207.55C56.9567 207.383 57.1833 207.147 57.35 206.84C57.5167 206.527 57.6 206.16 57.6 205.74ZM65.1278 205.55C65.1278 205.723 65.1178 205.907 65.0978 206.1H60.7178C60.7511 206.64 60.9345 207.063 61.2678 207.37C61.6078 207.67 62.0178 207.82 62.4978 207.82C62.8911 207.82 63.2178 207.73 63.4778 207.55C63.7445 207.363 63.9311 207.117 64.0378 206.81H65.0178C64.8711 207.337 64.5778 207.767 64.1378 208.1C63.6978 208.427 63.1511 208.59 62.4978 208.59C61.9778 208.59 61.5111 208.473 61.0978 208.24C60.6911 208.007 60.3711 207.677 60.1378 207.25C59.9045 206.817 59.7878 206.317 59.7878 205.75C59.7878 205.183 59.9011 204.687 60.1278 204.26C60.3545 203.833 60.6711 203.507 61.0778 203.28C61.4911 203.047 61.9645 202.93 62.4978 202.93C63.0178 202.93 63.4778 203.043 63.8778 203.27C64.2778 203.497 64.5845 203.81 64.7978 204.21C65.0178 204.603 65.1278 205.05 65.1278 205.55ZM64.1878 205.36C64.1878 205.013 64.1111 204.717 63.9578 204.47C63.8045 204.217 63.5945 204.027 63.3278 203.9C63.0678 203.767 62.7778 203.7 62.4578 203.7C61.9978 203.7 61.6045 203.847 61.2778 204.14C60.9578 204.433 60.7745 204.84 60.7278 205.36H64.1878ZM67.639 203.91C67.799 203.597 68.0257 203.353 68.319 203.18C68.619 203.007 68.9823 202.92 69.409 202.92V203.86H69.169C68.149 203.86 67.639 204.413 67.639 205.52V208.5H66.729V203.02H67.639V203.91ZM71.9695 203.77V207C71.9695 207.267 72.0261 207.457 72.1395 207.57C72.2528 207.677 72.4495 207.73 72.7295 207.73H73.3995V208.5H72.5795C72.0728 208.5 71.6928 208.383 71.4395 208.15C71.1861 207.917 71.0595 207.533 71.0595 207V203.77H70.3495V203.02H71.0595V201.64H71.9695V203.02H73.3995V203.77H71.9695ZM79.622 203.02L76.322 211.08H75.382L76.462 208.44L74.252 203.02H75.262L76.982 207.46L78.682 203.02H79.622ZM86.3928 208.59C85.8795 208.59 85.4128 208.473 84.9928 208.24C84.5795 208.007 84.2528 207.677 84.0128 207.25C83.7795 206.817 83.6628 206.317 83.6628 205.75C83.6628 205.19 83.7828 204.697 84.0228 204.27C84.2695 203.837 84.6028 203.507 85.0228 203.28C85.4428 203.047 85.9128 202.93 86.4328 202.93C86.9528 202.93 87.4228 203.047 87.8428 203.28C88.2628 203.507 88.5928 203.833 88.8328 204.26C89.0795 204.687 89.2028 205.183 89.2028 205.75C89.2028 206.317 89.0761 206.817 88.8228 207.25C88.5761 207.677 88.2395 208.007 87.8128 208.24C87.3861 208.473 86.9128 208.59 86.3928 208.59ZM86.3928 207.79C86.7195 207.79 87.0261 207.713 87.3128 207.56C87.5995 207.407 87.8295 207.177 88.0028 206.87C88.1828 206.563 88.2728 206.19 88.2728 205.75C88.2728 205.31 88.1861 204.937 88.0128 204.63C87.8395 204.323 87.6128 204.097 87.3328 203.95C87.0528 203.797 86.7495 203.72 86.4228 203.72C86.0895 203.72 85.7828 203.797 85.5028 203.95C85.2295 204.097 85.0095 204.323 84.8428 204.63C84.6761 204.937 84.5928 205.31 84.5928 205.75C84.5928 206.197 84.6728 206.573 84.8328 206.88C84.9995 207.187 85.2195 207.417 85.4928 207.57C85.7661 207.717 86.0661 207.79 86.3928 207.79ZM98.0993 203.02L96.3893 208.5H95.4493L94.1293 204.15L92.8093 208.5H91.8693L90.1493 203.02H91.0793L92.3393 207.62L93.6993 203.02H94.6293L95.9593 207.63L97.1993 203.02H98.0993ZM102.072 202.92C102.739 202.92 103.279 203.123 103.692 203.53C104.106 203.93 104.312 204.51 104.312 205.27V208.5H103.412V205.4C103.412 204.853 103.276 204.437 103.002 204.15C102.729 203.857 102.356 203.71 101.882 203.71C101.402 203.71 101.019 203.86 100.732 204.16C100.452 204.46 100.312 204.897 100.312 205.47V208.5H99.4024V203.02H100.312V203.8C100.492 203.52 100.736 203.303 101.042 203.15C101.356 202.997 101.699 202.92 102.072 202.92ZM111.199 205.55C111.199 205.723 111.189 205.907 111.169 206.1H106.789C106.822 206.64 107.006 207.063 107.339 207.37C107.679 207.67 108.089 207.82 108.569 207.82C108.962 207.82 109.289 207.73 109.549 207.55C109.816 207.363 110.002 207.117 110.109 206.81H111.089C110.942 207.337 110.649 207.767 110.209 208.1C109.769 208.427 109.222 208.59 108.569 208.59C108.049 208.59 107.582 208.473 107.169 208.24C106.762 208.007 106.442 207.677 106.209 207.25C105.976 206.817 105.859 206.317 105.859 205.75C105.859 205.183 105.972 204.687 106.199 204.26C106.426 203.833 106.742 203.507 107.149 203.28C107.562 203.047 108.036 202.93 108.569 202.93C109.089 202.93 109.549 203.043 109.949 203.27C110.349 203.497 110.656 203.81 110.869 204.21C111.089 204.603 111.199 205.05 111.199 205.55ZM110.259 205.36C110.259 205.013 110.182 204.717 110.029 204.47C109.876 204.217 109.666 204.027 109.399 203.9C109.139 203.767 108.849 203.7 108.529 203.7C108.069 203.7 107.676 203.847 107.349 204.14C107.029 204.433 106.846 204.84 106.799 205.36H110.259ZM113.71 203.91C113.87 203.597 114.097 203.353 114.39 203.18C114.69 203.007 115.053 202.92 115.48 202.92V203.86H115.24C114.22 203.86 113.71 204.413 113.71 205.52V208.5H112.8V203.02H113.71V203.91ZM118.871 208.59C118.451 208.59 118.074 208.52 117.741 208.38C117.407 208.233 117.144 208.033 116.951 207.78C116.757 207.52 116.651 207.223 116.631 206.89H117.571C117.597 207.163 117.724 207.387 117.951 207.56C118.184 207.733 118.487 207.82 118.861 207.82C119.207 207.82 119.481 207.743 119.681 207.59C119.881 207.437 119.981 207.243 119.981 207.01C119.981 206.77 119.874 206.593 119.661 206.48C119.447 206.36 119.117 206.243 118.671 206.13C118.264 206.023 117.931 205.917 117.671 205.81C117.417 205.697 117.197 205.533 117.011 205.32C116.831 205.1 116.741 204.813 116.741 204.46C116.741 204.18 116.824 203.923 116.991 203.69C117.157 203.457 117.394 203.273 117.701 203.14C118.007 203 118.357 202.93 118.751 202.93C119.357 202.93 119.847 203.083 120.221 203.39C120.594 203.697 120.794 204.117 120.821 204.65H119.911C119.891 204.363 119.774 204.133 119.561 203.96C119.354 203.787 119.074 203.7 118.721 203.7C118.394 203.7 118.134 203.77 117.941 203.91C117.747 204.05 117.651 204.233 117.651 204.46C117.651 204.64 117.707 204.79 117.821 204.91C117.941 205.023 118.087 205.117 118.261 205.19C118.441 205.257 118.687 205.333 119.001 205.42C119.394 205.527 119.714 205.633 119.961 205.74C120.207 205.84 120.417 205.993 120.591 206.2C120.771 206.407 120.864 206.677 120.871 207.01C120.871 207.31 120.787 207.58 120.621 207.82C120.454 208.06 120.217 208.25 119.911 208.39C119.611 208.523 119.264 208.59 118.871 208.59ZM122.845 208.56C122.672 208.56 122.525 208.5 122.405 208.38C122.285 208.26 122.225 208.113 122.225 207.94C122.225 207.767 122.285 207.62 122.405 207.5C122.525 207.38 122.672 207.32 122.845 207.32C123.012 207.32 123.152 207.38 123.265 207.5C123.385 207.62 123.445 207.767 123.445 207.94C123.445 208.113 123.385 208.26 123.265 208.38C123.152 208.5 123.012 208.56 122.845 208.56Z" fill="black"/>
<circle cx="79" cy="73.5" r="40" fill="#EC7E00" fill-opacity="0.08"/>
<path d="M82.3322 89.1206C81.493 89.0913 81.0763 89.0504 80.1419 88.9056C79.0791 88.7409 77.994 88.4225 76.5779 87.86C76.3431 87.7667 75.6916 87.5162 75.1301 87.3032C74.5686 87.0904 74.0089 86.8778 73.8864 86.8309C73.7639 86.784 73.3129 86.6131 72.8841 86.4511C70.4779 85.542 67.9325 84.4903 65.979 83.5979C65.5502 83.402 65.0907 83.1924 64.9581 83.132C64.4145 82.8844 62.2704 81.8107 61.8211 81.5611C60.1789 80.6486 59.4254 80.0611 59.0881 79.4303C59.013 79.2897 58.9999 79.2129 59 78.9161C59.0001 78.5856 59.0074 78.5536 59.1364 78.3101C59.4242 77.767 60.0064 77.1523 60.6587 76.7028C61.173 76.3484 61.1714 76.3508 61.1714 75.938C61.1714 75.8201 61.1881 75.5537 61.2086 75.3458C61.229 75.138 61.2628 74.7944 61.2837 74.5823C61.3326 74.0855 61.4227 73.4095 61.5432 72.6358C61.8169 70.8782 62.4156 68.7713 63.0823 67.2186C64.3481 64.2709 66.3227 61.9154 68.7373 60.4725L69.0487 60.2864L69.8559 60.2675C71.0973 60.2382 72.2306 60.3654 73.3489 60.6594C74.187 60.8799 75.0904 61.2775 75.5756 61.6395C77.4927 63.0701 79.0932 66.2269 80.3503 71.0565C80.6522 72.2168 81.1095 74.4455 81.2959 75.6657C81.3175 75.8071 81.3494 76.0138 81.367 76.1248C81.4599 76.7148 81.4961 76.9744 81.6058 77.8326C81.6588 78.2472 81.6835 78.4576 81.7747 79.265C81.8725 80.1327 82.0074 81.8348 82.0562 82.8174C82.0742 83.1816 82.0957 83.3335 82.1333 83.3644C82.174 83.3979 82.3559 83.3655 82.958 83.2179C83.3828 83.1137 83.8209 82.9997 83.9316 82.9645L84.1327 82.9004L84.1208 82.5702C84.0763 81.3351 83.8051 78.6778 83.5175 76.6574C83.3434 75.4352 83.2449 74.8447 82.9998 73.5539C81.9317 67.9308 80.2732 63.7002 78.1979 61.3055C77.0167 59.9424 75.8673 59.2336 73.9694 58.6978C73.8518 58.6645 73.7638 58.6242 73.7737 58.6082C73.7837 58.5922 73.8633 58.5701 73.9505 58.559C74.0377 58.5479 74.4349 58.4724 74.8331 58.3911C76.3393 58.0838 76.5188 58.0744 77.4132 58.2562C78.6512 58.5076 79.7203 58.8642 80.8151 59.3907C81.303 59.6253 82.0027 60.0003 82.2579 60.1638C83.4594 60.9341 83.8321 61.2216 84.5432 61.9267C86.9758 64.3385 88.8769 68.3677 89.8648 73.205C90.0176 73.9524 90.0764 74.2819 90.2028 75.0965C90.3783 76.2271 90.55 77.8709 90.5974 78.8735C90.6164 79.2772 90.6346 79.4048 90.6749 79.4201C90.7404 79.445 91.5555 78.9041 91.9976 78.5423L92.3263 78.2734L92.3014 77.9061C92.2603 77.3005 92.0774 75.7974 91.946 74.9863C91.1574 70.1176 89.7237 66.1585 87.6634 63.1602C86.4556 61.4026 84.9137 59.9459 83.4809 59.2092C83.1517 59.0399 83.1696 59.0509 83.1905 59.0302C83.2114 59.0095 83.9919 59.2887 84.3926 59.4603C86.1215 60.2005 87.7663 61.4009 89.0802 62.8817C91.2548 65.3322 92.652 68.4241 93.4303 72.5072C93.5158 72.9556 93.671 74.0589 93.7275 74.619C93.8261 75.5972 93.8407 75.7753 93.8407 75.9931C93.8407 76.4288 93.8188 76.396 94.7255 77.3155C96.809 79.4285 97.8687 80.7249 98.4825 81.9117C99.072 83.0516 99.1571 84.0102 98.7417 84.8309C98.1411 86.0175 96.3056 86.9534 93.3395 87.5852C93.1353 87.6286 92.6091 87.7526 92.1701 87.8606C88.183 88.8417 85.2196 89.2211 82.3322 89.1206Z" fill="#EC7E00"/>
</svg>
