<svg width="328" height="46" viewBox="0 0 328 46" fill="none" xmlns="http://www.w3.org/2000/svg">
<path d="M10.9442 36.9919H25.2802V45.4399H0.000226736V0.51194H10.9442V36.9919ZM41.4442 9.27994V18.3679H56.1002V26.8159H41.4442V36.6719H58.0202V45.4399H30.5002V0.51194H58.0202V9.27994H41.4442ZM94.9492 14.7199C94.1386 13.2266 92.9652 12.0959 91.4292 11.3279C89.9359 10.5173 88.1652 10.1119 86.1172 10.1119C82.5759 10.1119 79.7386 11.2853 77.6052 13.6319C75.4719 15.9359 74.4052 19.0293 74.4052 22.9119C74.4052 27.0506 75.5146 30.2933 77.7332 32.6399C79.9946 34.9439 83.0879 36.0959 87.0132 36.0959C89.7012 36.0959 91.9626 35.4133 93.7972 34.0479C95.6746 32.6826 97.0399 30.7199 97.8932 28.1599H84.0052V20.0959H107.813V30.2719C107.003 33.0026 105.616 35.5413 103.653 37.8879C101.733 40.2346 99.2799 42.1333 96.2932 43.5839C93.3066 45.0346 89.9359 45.7599 86.1812 45.7599C81.7439 45.7599 77.7759 44.7999 74.2772 42.8799C70.8212 40.9173 68.1119 38.2079 66.1492 34.7519C64.2292 31.2959 63.2692 27.3493 63.2692 22.9119C63.2692 18.4746 64.2292 14.5279 66.1492 11.0719C68.1119 7.57327 70.8212 4.86394 74.2772 2.94394C77.7332 0.981272 81.6799 -6.10352e-05 86.1172 -6.10352e-05C91.4932 -6.10352e-05 96.0159 1.30127 99.6852 3.90394C103.397 6.50661 105.851 10.1119 107.045 14.7199H94.9492ZM141.843 37.5039H125.075L122.387 45.4399H110.931L127.187 0.51194H139.859L156.115 45.4399H144.531L141.843 37.5039ZM139.027 29.0559L133.459 12.6079L127.955 29.0559H139.027ZM193.383 0.51194V9.27994H181.479V45.4399H170.535V9.27994H158.631V0.51194H193.383ZM209.627 0.51194V27.3919C209.627 30.0799 210.289 32.1493 211.611 33.5999C212.934 35.0506 214.875 35.7759 217.435 35.7759C219.995 35.7759 221.958 35.0506 223.323 33.5999C224.689 32.1493 225.371 30.0799 225.371 27.3919V0.51194H236.315V27.3279C236.315 31.3386 235.462 34.7306 233.755 37.5039C232.049 40.2773 229.745 42.3679 226.843 43.7759C223.985 45.1839 220.785 45.8879 217.243 45.8879C213.702 45.8879 210.523 45.2053 207.707 43.8399C204.934 42.4319 202.737 40.3413 201.115 37.5679C199.494 34.7519 198.683 31.3386 198.683 27.3279V0.51194H209.627ZM266.912 45.4399L257.568 28.4799H254.944V45.4399H244V0.51194H262.368C265.91 0.51194 268.918 1.13061 271.392 2.36794C273.91 3.60527 275.787 5.31194 277.024 7.48794C278.262 9.62127 278.88 12.0106 278.88 14.6559C278.88 17.6426 278.027 20.3093 276.32 22.6559C274.656 25.0026 272.182 26.6666 268.896 27.6479L279.264 45.4399H266.912ZM254.944 20.7359H261.728C263.734 20.7359 265.227 20.2453 266.208 19.2639C267.232 18.2826 267.744 16.8959 267.744 15.1039C267.744 13.3973 267.232 12.0533 266.208 11.0719C265.227 10.0906 263.734 9.59994 261.728 9.59994H254.944V20.7359ZM313.718 37.5039H296.95L294.262 45.4399H282.806L299.062 0.51194H311.734L327.99 45.4399H316.406L313.718 37.5039ZM310.902 29.0559L305.334 12.6079L299.83 29.0559H310.902Z" fill="#162238"/>
</svg>
