<svg width="320" height="320" viewBox="0 0 320 320" fill="none" xmlns="http://www.w3.org/2000/svg">
<path d="M167.241 262.485C165.47 262.189 164.468 261.631 160.938 258.971C159.692 258.032 157.916 256.714 156.993 256.043C156.069 255.372 155.313 254.788 155.313 254.744C155.313 254.701 155.908 253.909 156.634 252.986C158.281 250.895 159.107 249.497 159.646 247.891C160.033 246.738 160.066 246.445 160.062 244.141C160.058 241.858 160.022 241.532 159.643 240.391C159.03 238.547 158.235 237.329 156.678 235.846C155.61 234.83 154.992 234.387 153.866 233.832C152.349 233.086 150.363 232.5 149.35 232.5C148.8 232.5 148.75 232.464 148.749 232.07C148.747 231.122 148.268 228.542 147.871 227.339C146.326 222.667 141.13 219.179 136.044 219.402L134.61 219.464L134.264 218.066C132.821 212.242 128.027 208.291 122.344 208.241C120.485 208.225 119.199 208.496 117.739 209.212C117.225 209.463 116.799 209.656 116.791 209.639C116.783 209.623 116.546 209.082 116.264 208.437C114.12 203.542 109.731 200.469 104.885 200.469C103.14 200.469 102.026 200.751 100.157 201.666C98.9891 202.237 98.4363 202.629 97.5679 203.501C96.3779 204.695 94.7388 206.708 92.9857 209.129L91.8876 210.645L88.8926 207.737C85.2273 204.178 82.7748 202.295 79.8504 200.795C77.4016 199.54 77.4595 199.565 67.8426 195.53C63.8629 193.861 60.4251 192.376 60.2032 192.231C59.7204 191.914 59.0666 190.582 59.0645 189.91C59.0635 189.645 59.866 187.316 60.8473 184.733C62.7876 179.627 67.0507 168.102 68.7526 163.359C69.3385 161.727 70.3241 159.02 70.9432 157.344C72.8035 152.304 75.2945 145.504 75.9698 143.62C76.3188 142.647 76.7791 141.642 76.9929 141.388C77.7182 140.526 79.1151 140.225 80.2304 140.691C80.5232 140.813 82.191 141.752 83.9363 142.778C85.6816 143.803 88.0941 145.187 89.2973 145.853C102.116 152.947 104.372 154.123 106.34 154.739C108.765 155.498 109.578 155.548 119.037 155.528C127.197 155.51 127.834 155.528 127.77 155.771C127.689 156.083 124.845 160.292 123.013 162.812C122.294 163.801 121.129 165.408 120.424 166.385C119.718 167.362 118.965 168.381 118.75 168.651C118.535 168.921 118.289 169.255 118.204 169.393C118.118 169.532 117.787 170.038 117.468 170.518C116.558 171.89 116.194 173.313 116.288 175.133C116.539 179.994 120.29 184.12 125.86 185.661C127.277 186.053 130.944 186.208 132.627 185.947C137.718 185.156 143.756 181.833 147.729 177.634C148.327 177.002 149.719 175.553 150.822 174.414L152.829 172.344H156.796H160.764L162.687 173.883C164.451 175.295 167.413 177.553 177.266 184.996C179.243 186.489 181.985 188.599 183.36 189.686C185.717 191.547 189.393 194.4 197.735 200.842C208.505 209.159 218.034 216.669 218.449 217.167C219.154 218.013 219.983 219.794 220.187 220.897C220.524 222.717 219.812 225.043 218.441 226.6C218.007 227.093 217.397 227.532 216.6 227.926C215.459 228.49 215.34 228.516 213.829 228.516C212.32 228.516 212.198 228.49 211.086 227.935C210.446 227.616 209.114 226.715 208.125 225.933C207.137 225.152 204.817 223.342 202.969 221.912C201.121 220.482 198.426 218.395 196.98 217.273C195.534 216.152 193.302 214.426 192.021 213.437C183.969 207.225 181.658 205.414 180.399 204.334C178.434 202.649 177.567 202.457 176.369 203.445C175.996 203.752 175.717 204.176 175.544 204.697C175.257 205.56 175.316 206.04 175.803 206.83C176.073 207.268 183.413 213.088 194.599 221.734C196.312 223.057 198.456 224.72 199.365 225.428C200.273 226.136 201.908 227.389 202.998 228.212C205.084 229.788 205.488 230.21 206.136 231.491C206.868 232.935 207.078 233.961 206.997 235.692C206.934 237.024 206.849 237.427 206.441 238.318C204.906 241.672 201.31 242.936 197.856 241.334C196.972 240.924 196.186 240.356 192.086 237.165C190.612 236.017 188.545 234.41 187.493 233.594C186.442 232.777 183.244 230.281 180.387 228.047C172.149 221.605 169.351 219.479 168.596 219.09C167.645 218.6 166.295 218.664 165.691 219.229C164.771 220.088 164.561 221.409 165.196 222.35C165.599 222.948 165.864 223.167 170.69 226.875C172.647 228.379 174.892 230.105 175.679 230.712C176.466 231.317 178.762 233.08 180.782 234.627C187.272 239.601 188.815 240.791 189.499 241.352C190.821 242.435 191.563 244.139 191.563 246.094C191.563 248.694 190.236 250.852 187.969 251.936C187.023 252.389 186.836 252.422 185.235 252.422C183.697 252.422 183.422 252.378 182.623 252.003C181.855 251.643 178.83 249.422 171.172 243.594C170.227 242.875 168.976 241.853 168.393 241.324C166.477 239.586 165.386 239.327 164.176 240.324C163.14 241.178 163.038 242.502 163.929 243.518C164.427 244.084 164.846 244.418 170.253 248.559C172.067 249.949 173.741 251.335 173.973 251.639C175.005 252.993 175.473 255.007 175.161 256.756C174.617 259.797 172.424 262.02 169.498 262.494C168.399 262.673 168.365 262.673 167.241 262.485Z" fill="#022644" stroke="#022644"/>
<path d="M175.468 143.721C168.804 140.132 169.327 140.243 158.593 140.162C149.429 140.094 148.65 140.14 145.674 140.921C144.726 141.169 143.887 141.334 143.811 141.287C143.729 141.236 143.671 120.829 143.671 92.3153V43.4303L144.093 42.9281C144.544 42.3925 145.307 42 145.897 42C146.26 42 148.463 43.2475 152.108 45.5162C153.183 46.185 155.362 47.5194 156.952 48.4825C158.542 49.4453 161.777 51.4156 164.14 52.8606C166.503 54.3053 169.491 56.1319 170.78 56.9197C177.046 60.7472 178.725 61.7978 179.186 62.1784L179.687 62.5909L179.651 69.7566C179.631 73.6975 179.613 92.4081 179.612 111.336C179.609 138.764 179.569 145.749 179.413 145.745C179.306 145.743 177.53 144.831 175.468 143.721Z" fill="#FFC100" stroke="#FFC100"/>
<path d="M127.674 148.607C127.613 148.545 123.365 148.454 118.234 148.405C110.403 148.329 108.831 148.277 108.437 148.082C107.894 147.811 107.913 148.173 108.191 143.046C108.402 139.167 108.41 106.942 108.202 98.9596C108.063 93.6156 108.072 93.1437 108.323 92.6334C108.649 91.9681 108.827 91.8481 113.671 89.0312C115.777 87.8071 118.659 86.1224 120.078 85.2878C121.496 84.4531 124.132 82.9043 125.937 81.8465C127.742 80.7884 130.589 79.1115 132.265 78.1199C136.843 75.4112 136.92 75.3724 137.331 75.5599C137.683 75.7199 137.683 75.7215 137.786 81.0084C137.843 83.9171 137.937 99.2106 137.994 114.994L138.098 143.691L135.845 144.816C134.607 145.434 132.639 146.565 131.473 147.329C129.517 148.611 129.292 148.719 128.569 148.719C128.138 148.719 127.736 148.668 127.674 148.607Z" fill="#F9A600" stroke="#F9A600"/>
<path d="M201.175 153.917C199.133 153.627 197.033 152.753 191.054 149.703C187.843 148.065 185.185 146.644 185.148 146.545C185.11 146.447 185.097 133.311 185.119 117.355L185.159 88.3438L186.878 89.4044C192.582 92.9238 206.63 101.389 208.675 102.54C210.377 103.498 211.178 104.039 211.368 104.363C211.619 104.79 211.65 106.372 211.795 126.219C211.882 137.987 211.953 148.621 211.954 149.85L211.956 152.085L211.374 152.328C210.435 152.721 206.818 153.613 205.143 153.865C203.436 154.122 202.688 154.132 201.175 153.917Z" fill="#022644" stroke="#022644"/>
<path d="M220.547 211.219C219.086 210.015 217.082 208.411 216.093 207.656C215.105 206.9 212.574 204.934 210.468 203.285C202.992 197.431 195.365 191.591 190.509 188.001C185.994 184.663 183.509 182.773 177.89 178.398C172.144 173.924 169.551 171.92 167.422 170.309C166.132 169.333 164.526 168.091 163.851 167.549L162.625 166.563L160.257 166.562C158.956 166.562 156.168 166.518 154.062 166.464L150.234 166.365L147.904 168.924C144.176 173.021 141.184 175.921 139.797 176.784C135.472 179.474 130.367 180.592 126.565 179.68C123.684 178.99 122.188 177.486 122.187 175.279C122.185 173.688 122.519 173.053 125.287 169.394C126.691 167.536 129.185 164.153 130.827 161.875C135.22 155.786 135.918 154.893 137.361 153.512C140.212 150.785 144.579 148.537 148.75 147.652C150.142 147.356 151.112 147.286 155.156 147.191C157.777 147.129 161.89 147.09 164.297 147.105C170.884 147.143 171.947 147.429 178.491 150.918C184.218 153.972 190.384 157.007 192.768 157.946C195.68 159.093 197.567 159.514 200.312 159.629C205.097 159.83 208.442 158.973 214.14 156.084C223.849 151.163 229.724 147.991 234.737 144.966C236.011 144.198 237.292 143.469 237.584 143.347C238.705 142.879 239.889 143.2 240.891 144.244C241.501 144.88 241.986 145.92 244.364 151.682C247.319 158.839 252.159 170.352 254.07 174.766C255.037 177 256.159 179.602 256.562 180.547C256.965 181.492 258.079 184.032 259.038 186.191C260.849 190.268 261.104 191.13 260.786 192.094C260.403 193.253 259.645 193.825 257.031 194.922C256.022 195.345 243.406 200.889 240.361 202.248C235.215 204.542 231.584 206.643 229.053 208.788C228.414 209.329 227.328 210.225 226.64 210.778C225.953 211.331 224.974 212.156 224.465 212.611C223.957 213.065 223.464 213.431 223.372 213.424C223.279 213.416 222.007 212.424 220.547 211.219Z" fill="#F78E00" stroke="#F78E00"/>
<path d="M97.5395 227.883C96.3661 227.567 95.5367 227.106 94.6526 226.28C92.7583 224.508 92.0467 221.815 92.8158 219.325C93.1805 218.144 93.1955 218.122 100.375 208.61C102.075 206.357 104.909 205.723 107.48 207.021C109.019 207.797 110.134 209.02 111.09 210.977C111.905 212.645 111.908 212.656 111.851 213.943C111.776 215.651 111.522 216.13 109.259 218.84C108.249 220.05 106.55 222.089 105.484 223.371C102.736 226.676 102.408 226.998 101.177 227.596C99.9467 228.193 98.9751 228.27 97.5395 227.883Z" fill="#F78E00" stroke="#F78E00"/>
<path d="M124.264 252.117C121.564 251.273 119.695 248.616 119.689 245.614C119.687 244.264 120.003 243.254 120.818 242.011C121.523 240.934 125.441 235.882 127.405 233.516C128.048 232.742 129.388 231.009 130.384 229.665C131.379 228.321 132.497 226.942 132.868 226.6C133.84 225.704 135.007 225.312 136.704 225.312C137.974 225.312 138.172 225.357 139.202 225.872C142.672 227.608 143.96 231.674 142.161 235.207C141.797 235.922 139.661 238.847 134.63 245.521C130.603 250.863 130.198 251.271 128.195 252.021C127.187 252.398 125.309 252.444 124.264 252.117Z" fill="#F78E00" stroke="#F78E00"/>
<path d="M139.878 260.155C138.268 259.817 136.587 258.412 135.809 256.753C135.442 255.97 135.391 255.665 135.391 254.297C135.391 252.817 135.419 252.683 135.92 251.758C136.211 251.222 137.336 249.674 138.42 248.318C139.504 246.963 141.568 244.371 143.007 242.558C145.608 239.28 146.235 238.671 147.404 238.286C148.336 237.979 150.058 238.148 151.111 238.648C152.21 239.17 153.476 240.486 154.017 241.669C154.366 242.431 154.426 242.782 154.435 244.13C154.446 245.638 154.422 245.751 153.868 246.875C153.328 247.97 151.644 250.242 146.746 256.484C145.303 258.322 144.723 258.938 144.057 259.338C142.727 260.138 141.212 260.434 139.878 260.155Z" fill="#F78E00" stroke="#F78E00"/>
<path d="M109.51 241.2C108.224 240.762 107.177 239.922 106.38 238.69C105.504 237.334 105.233 236.319 105.247 234.453C105.256 233.214 105.332 232.7 105.617 231.971C106.006 230.975 105.953 231.046 112.022 223.404C114.294 220.544 116.487 217.776 116.896 217.254C117.948 215.911 118.946 215.037 119.973 214.561C120.732 214.209 121.074 214.149 122.347 214.145C123.716 214.141 123.918 214.181 124.87 214.65C125.591 215.004 126.202 215.477 126.881 216.203C128.931 218.395 129.414 220.899 128.263 223.37C127.954 224.033 118.59 236.667 116.83 238.795C116.489 239.207 115.76 239.865 115.208 240.259C113.393 241.554 111.476 241.871 109.51 241.2Z" fill="#F78E00" stroke="#F78E00"/>
</svg>
