<svg width="158" height="256" viewBox="0 0 158 256" fill="none" xmlns="http://www.w3.org/2000/svg">
<rect x="0.75" y="0.75" width="156.5" height="254.5" rx="6.25" stroke="#297CCB" stroke-opacity="0.3" stroke-width="1.5"/>
<path d="M22.052 139.884C22.052 140.535 21.9027 141.132 21.604 141.676C21.3053 142.209 20.8467 142.641 20.228 142.972C19.6093 143.303 18.8413 143.468 17.924 143.468H16.228V147.5H13.492V136.268H17.924C18.82 136.268 19.5773 136.423 20.196 136.732C20.8147 137.041 21.2787 137.468 21.588 138.012C21.8973 138.556 22.052 139.18 22.052 139.884ZM17.716 141.292C18.2387 141.292 18.628 141.169 18.884 140.924C19.14 140.679 19.268 140.332 19.268 139.884C19.268 139.436 19.14 139.089 18.884 138.844C18.628 138.599 18.2387 138.476 17.716 138.476H16.228V141.292H17.716ZM26.5124 140.06C26.8324 139.569 27.2324 139.185 27.7124 138.908C28.1924 138.62 28.7257 138.476 29.3124 138.476V141.372H28.5604C27.8777 141.372 27.3657 141.521 27.0244 141.82C26.683 142.108 26.5124 142.62 26.5124 143.356V147.5H23.7764V138.572H26.5124V140.06ZM34.9841 147.628C34.1095 147.628 33.3201 147.441 32.6161 147.068C31.9228 146.695 31.3735 146.161 30.9681 145.468C30.5735 144.775 30.3761 143.964 30.3761 143.036C30.3761 142.119 30.5788 141.313 30.9841 140.62C31.3895 139.916 31.9441 139.377 32.6481 139.004C33.3521 138.631 34.1415 138.444 35.0161 138.444C35.8908 138.444 36.6801 138.631 37.3841 139.004C38.0881 139.377 38.6428 139.916 39.0481 140.62C39.4535 141.313 39.6561 142.119 39.6561 143.036C39.6561 143.953 39.4481 144.764 39.0321 145.468C38.6268 146.161 38.0668 146.695 37.3521 147.068C36.6481 147.441 35.8588 147.628 34.9841 147.628ZM34.9841 145.26C35.5068 145.26 35.9495 145.068 36.3121 144.684C36.6855 144.3 36.8721 143.751 36.8721 143.036C36.8721 142.321 36.6908 141.772 36.3281 141.388C35.9761 141.004 35.5388 140.812 35.0161 140.812C34.4828 140.812 34.0401 141.004 33.6881 141.388C33.3361 141.761 33.1601 142.311 33.1601 143.036C33.1601 143.751 33.3308 144.3 33.6721 144.684C34.0241 145.068 34.4615 145.26 34.9841 145.26ZM44.1436 139.836C44.4103 139.42 44.7783 139.084 45.2476 138.828C45.717 138.572 46.2663 138.444 46.8956 138.444C47.6316 138.444 48.2983 138.631 48.8956 139.004C49.493 139.377 49.9623 139.911 50.3036 140.604C50.6556 141.297 50.8316 142.103 50.8316 143.02C50.8316 143.937 50.6556 144.748 50.3036 145.452C49.9623 146.145 49.493 146.684 48.8956 147.068C48.2983 147.441 47.6316 147.628 46.8956 147.628C46.277 147.628 45.7276 147.5 45.2476 147.244C44.7783 146.988 44.4103 146.657 44.1436 146.252V151.756H41.4076V138.572H44.1436V139.836ZM48.0476 143.02C48.0476 142.337 47.8556 141.804 47.4716 141.42C47.0983 141.025 46.6343 140.828 46.0796 140.828C45.5356 140.828 45.0716 141.025 44.6876 141.42C44.3143 141.815 44.1276 142.353 44.1276 143.036C44.1276 143.719 44.3143 144.257 44.6876 144.652C45.0716 145.047 45.5356 145.244 46.0796 145.244C46.6236 145.244 47.0876 145.047 47.4716 144.652C47.8556 144.247 48.0476 143.703 48.0476 143.02ZM60.983 142.892C60.983 143.148 60.967 143.415 60.935 143.692H54.743C54.7857 144.247 54.9617 144.673 55.271 144.972C55.591 145.26 55.9803 145.404 56.439 145.404C57.1217 145.404 57.5963 145.116 57.863 144.54H60.775C60.6257 145.127 60.3537 145.655 59.959 146.124C59.575 146.593 59.0897 146.961 58.503 147.228C57.9163 147.495 57.2603 147.628 56.535 147.628C55.6603 147.628 54.8817 147.441 54.199 147.068C53.5163 146.695 52.983 146.161 52.599 145.468C52.215 144.775 52.023 143.964 52.023 143.036C52.023 142.108 52.2097 141.297 52.583 140.604C52.967 139.911 53.5003 139.377 54.183 139.004C54.8657 138.631 55.6497 138.444 56.535 138.444C57.399 138.444 58.167 138.625 58.839 138.988C59.511 139.351 60.0337 139.868 60.407 140.54C60.791 141.212 60.983 141.996 60.983 142.892ZM58.183 142.172C58.183 141.703 58.023 141.329 57.703 141.052C57.383 140.775 56.983 140.636 56.503 140.636C56.0443 140.636 55.655 140.769 55.335 141.036C55.0257 141.303 54.8337 141.681 54.759 142.172H58.183ZM65.4624 140.06C65.7824 139.569 66.1824 139.185 66.6624 138.908C67.1424 138.62 67.6757 138.476 68.2624 138.476V141.372H67.5104C66.8277 141.372 66.3157 141.521 65.9744 141.82C65.633 142.108 65.4624 142.62 65.4624 143.356V147.5H62.7264V138.572H65.4624V140.06ZM74.8461 145.18V147.5H73.4541C72.4621 147.5 71.6888 147.26 71.1341 146.78C70.5795 146.289 70.3021 145.495 70.3021 144.396V140.844H69.2141V138.572H70.3021V136.396H73.0381V138.572H74.8301V140.844H73.0381V144.428C73.0381 144.695 73.1021 144.887 73.2301 145.004C73.3581 145.121 73.5715 145.18 73.8701 145.18H74.8461ZM85.7901 138.572L80.1901 151.74H77.2461L79.2941 147.196L75.6621 138.572H78.7181L80.7821 144.156L82.8301 138.572H85.7901ZM96.0821 147.612C95.0261 147.612 94.0555 147.367 93.1701 146.876C92.2955 146.385 91.5968 145.703 91.0741 144.828C90.5621 143.943 90.3061 142.951 90.3061 141.852C90.3061 140.753 90.5621 139.767 91.0741 138.892C91.5968 138.017 92.2955 137.335 93.1701 136.844C94.0555 136.353 95.0261 136.108 96.0821 136.108C97.1381 136.108 98.1035 136.353 98.9781 136.844C99.8635 137.335 100.557 138.017 101.058 138.892C101.57 139.767 101.826 140.753 101.826 141.852C101.826 142.951 101.57 143.943 101.058 144.828C100.546 145.703 99.8528 146.385 98.9781 146.876C98.1035 147.367 97.1381 147.612 96.0821 147.612ZM96.0821 145.116C96.9781 145.116 97.6928 144.817 98.2261 144.22C98.7701 143.623 99.0421 142.833 99.0421 141.852C99.0421 140.86 98.7701 140.071 98.2261 139.484C97.6928 138.887 96.9781 138.588 96.0821 138.588C95.1755 138.588 94.4501 138.881 93.9061 139.468C93.3728 140.055 93.1061 140.849 93.1061 141.852C93.1061 142.844 93.3728 143.639 93.9061 144.236C94.4501 144.823 95.1755 145.116 96.0821 145.116ZM116.464 138.572L114.048 147.5H111.024L109.616 141.708L108.16 147.5H105.152L102.72 138.572H105.456L106.72 144.956L108.224 138.572H111.12L112.64 144.924L113.888 138.572H116.464ZM123.248 138.476C124.293 138.476 125.125 138.817 125.744 139.5C126.373 140.172 126.688 141.1 126.688 142.284V147.5H123.968V142.652C123.968 142.055 123.813 141.591 123.504 141.26C123.194 140.929 122.778 140.764 122.256 140.764C121.733 140.764 121.317 140.929 121.008 141.26C120.698 141.591 120.544 142.055 120.544 142.652V147.5H117.808V138.572H120.544V139.756C120.821 139.361 121.194 139.052 121.664 138.828C122.133 138.593 122.661 138.476 123.248 138.476ZM137.305 142.892C137.305 143.148 137.289 143.415 137.257 143.692H131.065C131.108 144.247 131.284 144.673 131.593 144.972C131.913 145.26 132.302 145.404 132.761 145.404C133.444 145.404 133.918 145.116 134.185 144.54H137.097C136.948 145.127 136.676 145.655 136.281 146.124C135.897 146.593 135.412 146.961 134.825 147.228C134.238 147.495 133.582 147.628 132.857 147.628C131.982 147.628 131.204 147.441 130.521 147.068C129.838 146.695 129.305 146.161 128.921 145.468C128.537 144.775 128.345 143.964 128.345 143.036C128.345 142.108 128.532 141.297 128.905 140.604C129.289 139.911 129.822 139.377 130.505 139.004C131.188 138.631 131.972 138.444 132.857 138.444C133.721 138.444 134.489 138.625 135.161 138.988C135.833 139.351 136.356 139.868 136.729 140.54C137.113 141.212 137.305 141.996 137.305 142.892ZM134.505 142.172C134.505 141.703 134.345 141.329 134.025 141.052C133.705 140.775 133.305 140.636 132.825 140.636C132.366 140.636 131.977 140.769 131.657 141.036C131.348 141.303 131.156 141.681 131.081 142.172H134.505ZM141.784 140.06C142.104 139.569 142.504 139.185 142.984 138.908C143.464 138.62 143.998 138.476 144.584 138.476V141.372H143.832C143.15 141.372 142.638 141.521 142.296 141.82C141.955 142.108 141.784 142.62 141.784 143.356V147.5H139.048V138.572H141.784V140.06Z" fill="black"/>
<path d="M34.2185 165.53V172.5H33.3085V165.53H34.2185ZM46.5354 167.02L44.8254 172.5H43.8854L42.5654 168.15L41.2454 172.5H40.3054L38.5854 167.02H39.5154L40.7754 171.62L42.1354 167.02H43.0654L44.3954 171.63L45.6354 167.02H46.5354ZM47.4986 169.74C47.4986 169.18 47.6119 168.69 47.8386 168.27C48.0652 167.843 48.3752 167.513 48.7686 167.28C49.1686 167.047 49.6119 166.93 50.0986 166.93C50.5786 166.93 50.9952 167.033 51.3486 167.24C51.7019 167.447 51.9652 167.707 52.1386 168.02V167.02H53.0586V172.5H52.1386V171.48C51.9586 171.8 51.6886 172.067 51.3286 172.28C50.9752 172.487 50.5619 172.59 50.0886 172.59C49.6019 172.59 49.1619 172.47 48.7686 172.23C48.3752 171.99 48.0652 171.653 47.8386 171.22C47.6119 170.787 47.4986 170.293 47.4986 169.74ZM52.1386 169.75C52.1386 169.337 52.0552 168.977 51.8886 168.67C51.7219 168.363 51.4952 168.13 51.2086 167.97C50.9286 167.803 50.6186 167.72 50.2786 167.72C49.9386 167.72 49.6286 167.8 49.3486 167.96C49.0686 168.12 48.8452 168.353 48.6786 168.66C48.5119 168.967 48.4286 169.327 48.4286 169.74C48.4286 170.16 48.5119 170.527 48.6786 170.84C48.8452 171.147 49.0686 171.383 49.3486 171.55C49.6286 171.71 49.9386 171.79 50.2786 171.79C50.6186 171.79 50.9286 171.71 51.2086 171.55C51.4952 171.383 51.7219 171.147 51.8886 170.84C52.0552 170.527 52.1386 170.163 52.1386 169.75ZM57.6664 166.92C58.333 166.92 58.873 167.123 59.2864 167.53C59.6997 167.93 59.9064 168.51 59.9064 169.27V172.5H59.0064V169.4C59.0064 168.853 58.8697 168.437 58.5964 168.15C58.323 167.857 57.9497 167.71 57.4764 167.71C56.9964 167.71 56.613 167.86 56.3264 168.16C56.0464 168.46 55.9064 168.897 55.9064 169.47V172.5H54.9964V167.02H55.9064V167.8C56.0864 167.52 56.3297 167.303 56.6364 167.15C56.9497 166.997 57.293 166.92 57.6664 166.92ZM62.9029 167.77V171C62.9029 171.267 62.9595 171.457 63.0729 171.57C63.1862 171.677 63.3829 171.73 63.6629 171.73H64.3329V172.5H63.5129C63.0062 172.5 62.6262 172.383 62.3729 172.15C62.1195 171.917 61.9929 171.533 61.9929 171V167.77H61.2829V167.02H61.9929V165.64H62.9029V167.02H64.3329V167.77H62.9029ZM70.0114 167.77V171C70.0114 171.267 70.0681 171.457 70.1814 171.57C70.2948 171.677 70.4914 171.73 70.7714 171.73H71.4414V172.5H70.6214C70.1148 172.5 69.7348 172.383 69.4814 172.15C69.2281 171.917 69.1014 171.533 69.1014 171V167.77H68.3914V167.02H69.1014V165.64H70.0114V167.02H71.4414V167.77H70.0114ZM75.334 172.59C74.8207 172.59 74.354 172.473 73.934 172.24C73.5207 172.007 73.194 171.677 72.954 171.25C72.7207 170.817 72.604 170.317 72.604 169.75C72.604 169.19 72.724 168.697 72.964 168.27C73.2107 167.837 73.544 167.507 73.964 167.28C74.384 167.047 74.854 166.93 75.374 166.93C75.894 166.93 76.364 167.047 76.784 167.28C77.204 167.507 77.534 167.833 77.774 168.26C78.0207 168.687 78.144 169.183 78.144 169.75C78.144 170.317 78.0174 170.817 77.764 171.25C77.5174 171.677 77.1807 172.007 76.754 172.24C76.3274 172.473 75.854 172.59 75.334 172.59ZM75.334 171.79C75.6607 171.79 75.9674 171.713 76.254 171.56C76.5407 171.407 76.7707 171.177 76.944 170.87C77.124 170.563 77.214 170.19 77.214 169.75C77.214 169.31 77.1274 168.937 76.954 168.63C76.7807 168.323 76.554 168.097 76.274 167.95C75.994 167.797 75.6907 167.72 75.364 167.72C75.0307 167.72 74.724 167.797 74.444 167.95C74.1707 168.097 73.9507 168.323 73.784 168.63C73.6174 168.937 73.534 169.31 73.534 169.75C73.534 170.197 73.614 170.573 73.774 170.88C73.9407 171.187 74.1607 171.417 74.434 171.57C74.7074 171.717 75.0074 171.79 75.334 171.79ZM83.7165 168.03C83.8965 167.717 84.1632 167.457 84.5165 167.25C84.8765 167.037 85.2932 166.93 85.7665 166.93C86.2532 166.93 86.6932 167.047 87.0865 167.28C87.4865 167.513 87.7999 167.843 88.0265 168.27C88.2532 168.69 88.3665 169.18 88.3665 169.74C88.3665 170.293 88.2532 170.787 88.0265 171.22C87.7999 171.653 87.4865 171.99 87.0865 172.23C86.6932 172.47 86.2532 172.59 85.7665 172.59C85.2999 172.59 84.8865 172.487 84.5265 172.28C84.1732 172.067 83.9032 171.803 83.7165 171.49V175.1H82.8065V167.02H83.7165V168.03ZM87.4365 169.74C87.4365 169.327 87.3532 168.967 87.1865 168.66C87.0199 168.353 86.7932 168.12 86.5065 167.96C86.2265 167.8 85.9165 167.72 85.5765 167.72C85.2432 167.72 84.9332 167.803 84.6465 167.97C84.3665 168.13 84.1399 168.367 83.9665 168.68C83.7999 168.987 83.7165 169.343 83.7165 169.75C83.7165 170.163 83.7999 170.527 83.9665 170.84C84.1399 171.147 84.3665 171.383 84.6465 171.55C84.9332 171.71 85.2432 171.79 85.5765 171.79C85.9165 171.79 86.2265 171.71 86.5065 171.55C86.7932 171.383 87.0199 171.147 87.1865 170.84C87.3532 170.527 87.4365 170.16 87.4365 169.74ZM92.3543 172.59C91.841 172.59 91.3743 172.473 90.9543 172.24C90.541 172.007 90.2143 171.677 89.9743 171.25C89.741 170.817 89.6243 170.317 89.6243 169.75C89.6243 169.19 89.7443 168.697 89.9843 168.27C90.231 167.837 90.5643 167.507 90.9843 167.28C91.4043 167.047 91.8743 166.93 92.3943 166.93C92.9143 166.93 93.3843 167.047 93.8043 167.28C94.2243 167.507 94.5543 167.833 94.7943 168.26C95.041 168.687 95.1643 169.183 95.1643 169.75C95.1643 170.317 95.0377 170.817 94.7843 171.25C94.5377 171.677 94.201 172.007 93.7743 172.24C93.3477 172.473 92.8743 172.59 92.3543 172.59ZM92.3543 171.79C92.681 171.79 92.9877 171.713 93.2743 171.56C93.561 171.407 93.791 171.177 93.9643 170.87C94.1443 170.563 94.2343 170.19 94.2343 169.75C94.2343 169.31 94.1477 168.937 93.9743 168.63C93.801 168.323 93.5743 168.097 93.2943 167.95C93.0143 167.797 92.711 167.72 92.3843 167.72C92.051 167.72 91.7443 167.797 91.4643 167.95C91.191 168.097 90.971 168.323 90.8043 168.63C90.6377 168.937 90.5543 169.31 90.5543 169.75C90.5543 170.197 90.6343 170.573 90.7943 170.88C90.961 171.187 91.181 171.417 91.4543 171.57C91.7277 171.717 92.0277 171.79 92.3543 171.79ZM98.7008 172.59C98.2808 172.59 97.9041 172.52 97.5708 172.38C97.2375 172.233 96.9741 172.033 96.7808 171.78C96.5875 171.52 96.4808 171.223 96.4608 170.89H97.4008C97.4275 171.163 97.5541 171.387 97.7808 171.56C98.0141 171.733 98.3175 171.82 98.6908 171.82C99.0375 171.82 99.3108 171.743 99.5108 171.59C99.7108 171.437 99.8108 171.243 99.8108 171.01C99.8108 170.77 99.7041 170.593 99.4908 170.48C99.2775 170.36 98.9475 170.243 98.5008 170.13C98.0941 170.023 97.7608 169.917 97.5008 169.81C97.2475 169.697 97.0275 169.533 96.8408 169.32C96.6608 169.1 96.5708 168.813 96.5708 168.46C96.5708 168.18 96.6541 167.923 96.8208 167.69C96.9875 167.457 97.2241 167.273 97.5308 167.14C97.8375 167 98.1875 166.93 98.5808 166.93C99.1875 166.93 99.6775 167.083 100.051 167.39C100.424 167.697 100.624 168.117 100.651 168.65H99.7408C99.7208 168.363 99.6041 168.133 99.3908 167.96C99.1841 167.787 98.9041 167.7 98.5508 167.7C98.2241 167.7 97.9641 167.77 97.7708 167.91C97.5775 168.05 97.4808 168.233 97.4808 168.46C97.4808 168.64 97.5375 168.79 97.6508 168.91C97.7708 169.023 97.9175 169.117 98.0908 169.19C98.2708 169.257 98.5175 169.333 98.8308 169.42C99.2241 169.527 99.5441 169.633 99.7908 169.74C100.037 169.84 100.247 169.993 100.421 170.2C100.601 170.407 100.694 170.677 100.701 171.01C100.701 171.31 100.617 171.58 100.451 171.82C100.284 172.06 100.047 172.25 99.7408 172.39C99.4408 172.523 99.0941 172.59 98.7008 172.59ZM103.495 167.77V171C103.495 171.267 103.552 171.457 103.665 171.57C103.779 171.677 103.975 171.73 104.255 171.73H104.925V172.5H104.105C103.599 172.5 103.219 172.383 102.965 172.15C102.712 171.917 102.585 171.533 102.585 171V167.77H101.875V167.02H102.585V165.64H103.495V167.02H104.925V167.77H103.495ZM116.084 166.92C116.511 166.92 116.891 167.01 117.224 167.19C117.557 167.363 117.821 167.627 118.014 167.98C118.207 168.333 118.304 168.763 118.304 169.27V172.5H117.404V169.4C117.404 168.853 117.267 168.437 116.994 168.15C116.727 167.857 116.364 167.71 115.904 167.71C115.431 167.71 115.054 167.863 114.774 168.17C114.494 168.47 114.354 168.907 114.354 169.48V172.5H113.454V169.4C113.454 168.853 113.317 168.437 113.044 168.15C112.777 167.857 112.414 167.71 111.954 167.71C111.481 167.71 111.104 167.863 110.824 168.17C110.544 168.47 110.404 168.907 110.404 169.48V172.5H109.494V167.02H110.404V167.81C110.584 167.523 110.824 167.303 111.124 167.15C111.431 166.997 111.767 166.92 112.134 166.92C112.594 166.92 113.001 167.023 113.354 167.23C113.707 167.437 113.971 167.74 114.144 168.14C114.297 167.753 114.551 167.453 114.904 167.24C115.257 167.027 115.651 166.92 116.084 166.92ZM124.917 167.02L121.617 175.08H120.677L121.757 172.44L119.547 167.02H120.557L122.277 171.46L123.977 167.02H124.917ZM12.9503 184.75C12.9503 184.183 13.0636 183.69 13.2903 183.27C13.517 182.843 13.8303 182.513 14.2303 182.28C14.637 182.047 15.1003 181.93 15.6203 181.93C16.2936 181.93 16.847 182.093 17.2803 182.42C17.7203 182.747 18.0103 183.2 18.1503 183.78H17.1703C17.077 183.447 16.8936 183.183 16.6203 182.99C16.3536 182.797 16.0203 182.7 15.6203 182.7C15.1003 182.7 14.6803 182.88 14.3603 183.24C14.0403 183.593 13.8803 184.097 13.8803 184.75C13.8803 185.41 14.0403 185.92 14.3603 186.28C14.6803 186.64 15.1003 186.82 15.6203 186.82C16.0203 186.82 16.3536 186.727 16.6203 186.54C16.887 186.353 17.0703 186.087 17.1703 185.74H18.1503C18.0036 186.3 17.7103 186.75 17.2703 187.09C16.8303 187.423 16.2803 187.59 15.6203 187.59C15.1003 187.59 14.637 187.473 14.2303 187.24C13.8303 187.007 13.517 186.677 13.2903 186.25C13.0636 185.823 12.9503 185.323 12.9503 184.75ZM22.1545 187.59C21.6412 187.59 21.1745 187.473 20.7545 187.24C20.3412 187.007 20.0145 186.677 19.7745 186.25C19.5412 185.817 19.4245 185.317 19.4245 184.75C19.4245 184.19 19.5445 183.697 19.7845 183.27C20.0312 182.837 20.3645 182.507 20.7845 182.28C21.2045 182.047 21.6745 181.93 22.1945 181.93C22.7145 181.93 23.1845 182.047 23.6045 182.28C24.0245 182.507 24.3545 182.833 24.5945 183.26C24.8412 183.687 24.9645 184.183 24.9645 184.75C24.9645 185.317 24.8379 185.817 24.5845 186.25C24.3379 186.677 24.0012 187.007 23.5745 187.24C23.1479 187.473 22.6745 187.59 22.1545 187.59ZM22.1545 186.79C22.4812 186.79 22.7879 186.713 23.0745 186.56C23.3612 186.407 23.5912 186.177 23.7645 185.87C23.9445 185.563 24.0345 185.19 24.0345 184.75C24.0345 184.31 23.9479 183.937 23.7745 183.63C23.6012 183.323 23.3745 183.097 23.0945 182.95C22.8145 182.797 22.5112 182.72 22.1845 182.72C21.8512 182.72 21.5445 182.797 21.2645 182.95C20.9912 183.097 20.7712 183.323 20.6045 183.63C20.4379 183.937 20.3545 184.31 20.3545 184.75C20.3545 185.197 20.4345 185.573 20.5945 185.88C20.7612 186.187 20.9812 186.417 21.2545 186.57C21.5279 186.717 21.8279 186.79 22.1545 186.79ZM29.231 181.92C29.8977 181.92 30.4377 182.123 30.851 182.53C31.2643 182.93 31.471 183.51 31.471 184.27V187.5H30.571V184.4C30.571 183.853 30.4343 183.437 30.161 183.15C29.8877 182.857 29.5143 182.71 29.041 182.71C28.561 182.71 28.1777 182.86 27.891 183.16C27.611 183.46 27.471 183.897 27.471 184.47V187.5H26.561V182.02H27.471V182.8C27.651 182.52 27.8943 182.303 28.201 182.15C28.5143 181.997 28.8577 181.92 29.231 181.92ZM35.2975 187.59C34.8775 187.59 34.5008 187.52 34.1675 187.38C33.8342 187.233 33.5708 187.033 33.3775 186.78C33.1842 186.52 33.0775 186.223 33.0575 185.89H33.9975C34.0242 186.163 34.1508 186.387 34.3775 186.56C34.6108 186.733 34.9142 186.82 35.2875 186.82C35.6342 186.82 35.9075 186.743 36.1075 186.59C36.3075 186.437 36.4075 186.243 36.4075 186.01C36.4075 185.77 36.3008 185.593 36.0875 185.48C35.8742 185.36 35.5442 185.243 35.0975 185.13C34.6908 185.023 34.3575 184.917 34.0975 184.81C33.8442 184.697 33.6242 184.533 33.4375 184.32C33.2575 184.1 33.1675 183.813 33.1675 183.46C33.1675 183.18 33.2508 182.923 33.4175 182.69C33.5842 182.457 33.8208 182.273 34.1275 182.14C34.4342 182 34.7842 181.93 35.1775 181.93C35.7842 181.93 36.2742 182.083 36.6475 182.39C37.0208 182.697 37.2208 183.117 37.2475 183.65H36.3375C36.3175 183.363 36.2008 183.133 35.9875 182.96C35.7808 182.787 35.5008 182.7 35.1475 182.7C34.8208 182.7 34.5608 182.77 34.3675 182.91C34.1742 183.05 34.0775 183.233 34.0775 183.46C34.0775 183.64 34.1342 183.79 34.2475 183.91C34.3675 184.023 34.5142 184.117 34.6875 184.19C34.8675 184.257 35.1142 184.333 35.4275 184.42C35.8208 184.527 36.1408 184.633 36.3875 184.74C36.6342 184.84 36.8442 184.993 37.0175 185.2C37.1975 185.407 37.2908 185.677 37.2975 186.01C37.2975 186.31 37.2142 186.58 37.0475 186.82C36.8808 187.06 36.6442 187.25 36.3375 187.39C36.0375 187.523 35.6908 187.59 35.2975 187.59ZM40.0921 182.77V186C40.0921 186.267 40.1488 186.457 40.2621 186.57C40.3754 186.677 40.5721 186.73 40.8521 186.73H41.5221V187.5H40.7021C40.1954 187.5 39.8154 187.383 39.5621 187.15C39.3088 186.917 39.1821 186.533 39.1821 186V182.77H38.4721V182.02H39.1821V180.64H40.0921V182.02H41.5221V182.77H40.0921ZM43.9347 182.91C44.0947 182.597 44.3214 182.353 44.6147 182.18C44.9147 182.007 45.278 181.92 45.7047 181.92V182.86H45.4647C44.4447 182.86 43.9347 183.413 43.9347 184.52V187.5H43.0247V182.02H43.9347V182.91ZM52.0152 182.02V187.5H51.1052V186.69C50.9318 186.97 50.6885 187.19 50.3752 187.35C50.0685 187.503 49.7285 187.58 49.3552 187.58C48.9285 187.58 48.5452 187.493 48.2052 187.32C47.8652 187.14 47.5952 186.873 47.3952 186.52C47.2018 186.167 47.1052 185.737 47.1052 185.23V182.02H48.0052V185.11C48.0052 185.65 48.1418 186.067 48.4152 186.36C48.6885 186.647 49.0618 186.79 49.5352 186.79C50.0218 186.79 50.4052 186.64 50.6852 186.34C50.9652 186.04 51.1052 185.603 51.1052 185.03V182.02H52.0152ZM53.6116 184.75C53.6116 184.183 53.725 183.69 53.9516 183.27C54.1783 182.843 54.4916 182.513 54.8916 182.28C55.2983 182.047 55.7616 181.93 56.2816 181.93C56.955 181.93 57.5083 182.093 57.9416 182.42C58.3816 182.747 58.6716 183.2 58.8116 183.78H57.8316C57.7383 183.447 57.555 183.183 57.2816 182.99C57.015 182.797 56.6816 182.7 56.2816 182.7C55.7616 182.7 55.3416 182.88 55.0216 183.24C54.7016 183.593 54.5416 184.097 54.5416 184.75C54.5416 185.41 54.7016 185.92 55.0216 186.28C55.3416 186.64 55.7616 186.82 56.2816 186.82C56.6816 186.82 57.015 186.727 57.2816 186.54C57.5483 186.353 57.7316 186.087 57.8316 185.74H58.8116C58.665 186.3 58.3716 186.75 57.9316 187.09C57.4916 187.423 56.9416 187.59 56.2816 187.59C55.7616 187.59 55.2983 187.473 54.8916 187.24C54.4916 187.007 54.1783 186.677 53.9516 186.25C53.725 185.823 53.6116 185.323 53.6116 184.75ZM61.5359 182.77V186C61.5359 186.267 61.5925 186.457 61.7059 186.57C61.8192 186.677 62.0159 186.73 62.2959 186.73H62.9659V187.5H62.1459C61.6392 187.5 61.2592 187.383 61.0059 187.15C60.7525 186.917 60.6259 186.533 60.6259 186V182.77H59.9159V182.02H60.6259V180.64H61.5359V182.02H62.9659V182.77H61.5359ZM64.9384 181.13C64.7651 181.13 64.6184 181.07 64.4984 180.95C64.3784 180.83 64.3184 180.683 64.3184 180.51C64.3184 180.337 64.3784 180.19 64.4984 180.07C64.6184 179.95 64.7651 179.89 64.9384 179.89C65.1051 179.89 65.2451 179.95 65.3584 180.07C65.4784 180.19 65.5384 180.337 65.5384 180.51C65.5384 180.683 65.4784 180.83 65.3584 180.95C65.2451 181.07 65.1051 181.13 64.9384 181.13ZM65.3784 182.02V187.5H64.4684V182.02H65.3784ZM69.7194 187.59C69.206 187.59 68.7394 187.473 68.3194 187.24C67.906 187.007 67.5794 186.677 67.3394 186.25C67.106 185.817 66.9894 185.317 66.9894 184.75C66.9894 184.19 67.1094 183.697 67.3494 183.27C67.596 182.837 67.9294 182.507 68.3494 182.28C68.7694 182.047 69.2394 181.93 69.7594 181.93C70.2794 181.93 70.7494 182.047 71.1694 182.28C71.5894 182.507 71.9194 182.833 72.1594 183.26C72.406 183.687 72.5294 184.183 72.5294 184.75C72.5294 185.317 72.4027 185.817 72.1494 186.25C71.9027 186.677 71.566 187.007 71.1394 187.24C70.7127 187.473 70.2394 187.59 69.7194 187.59ZM69.7194 186.79C70.046 186.79 70.3527 186.713 70.6394 186.56C70.926 186.407 71.156 186.177 71.3294 185.87C71.5094 185.563 71.5994 185.19 71.5994 184.75C71.5994 184.31 71.5127 183.937 71.3394 183.63C71.166 183.323 70.9394 183.097 70.6594 182.95C70.3794 182.797 70.076 182.72 69.7494 182.72C69.416 182.72 69.1094 182.797 68.8294 182.95C68.556 183.097 68.336 183.323 68.1694 183.63C68.0027 183.937 67.9194 184.31 67.9194 184.75C67.9194 185.197 67.9994 185.573 68.1594 185.88C68.326 186.187 68.546 186.417 68.8194 186.57C69.0927 186.717 69.3927 186.79 69.7194 186.79ZM76.7959 181.92C77.4625 181.92 78.0025 182.123 78.4159 182.53C78.8292 182.93 79.0359 183.51 79.0359 184.27V187.5H78.1359V184.4C78.1359 183.853 77.9992 183.437 77.7259 183.15C77.4525 182.857 77.0792 182.71 76.6059 182.71C76.1259 182.71 75.7425 182.86 75.4559 183.16C75.1759 183.46 75.0359 183.897 75.0359 184.47V187.5H74.1259V182.02H75.0359V182.8C75.2159 182.52 75.4592 182.303 75.7659 182.15C76.0792 181.997 76.4225 181.92 76.7959 181.92ZM84.8984 183.03C85.0784 182.717 85.345 182.457 85.6984 182.25C86.0584 182.037 86.475 181.93 86.9484 181.93C87.435 181.93 87.875 182.047 88.2684 182.28C88.6684 182.513 88.9817 182.843 89.2084 183.27C89.435 183.69 89.5484 184.18 89.5484 184.74C89.5484 185.293 89.435 185.787 89.2084 186.22C88.9817 186.653 88.6684 186.99 88.2684 187.23C87.875 187.47 87.435 187.59 86.9484 187.59C86.4817 187.59 86.0684 187.487 85.7084 187.28C85.355 187.067 85.085 186.803 84.8984 186.49V190.1H83.9884V182.02H84.8984V183.03ZM88.6184 184.74C88.6184 184.327 88.535 183.967 88.3684 183.66C88.2017 183.353 87.975 183.12 87.6884 182.96C87.4084 182.8 87.0984 182.72 86.7584 182.72C86.425 182.72 86.115 182.803 85.8284 182.97C85.5484 183.13 85.3217 183.367 85.1484 183.68C84.9817 183.987 84.8984 184.343 84.8984 184.75C84.8984 185.163 84.9817 185.527 85.1484 185.84C85.3217 186.147 85.5484 186.383 85.8284 186.55C86.115 186.71 86.425 186.79 86.7584 186.79C87.0984 186.79 87.4084 186.71 87.6884 186.55C87.975 186.383 88.2017 186.147 88.3684 185.84C88.535 185.527 88.6184 185.16 88.6184 184.74ZM92.0562 182.91C92.2162 182.597 92.4428 182.353 92.7362 182.18C93.0362 182.007 93.3995 181.92 93.8262 181.92V182.86H93.5862C92.5662 182.86 92.0562 183.413 92.0562 184.52V187.5H91.1462V182.02H92.0562V182.91ZM97.6666 187.59C97.1533 187.59 96.6866 187.473 96.2666 187.24C95.8533 187.007 95.5266 186.677 95.2866 186.25C95.0533 185.817 94.9366 185.317 94.9366 184.75C94.9366 184.19 95.0566 183.697 95.2966 183.27C95.5433 182.837 95.8766 182.507 96.2966 182.28C96.7166 182.047 97.1866 181.93 97.7066 181.93C98.2266 181.93 98.6966 182.047 99.1166 182.28C99.5366 182.507 99.8666 182.833 100.107 183.26C100.353 183.687 100.477 184.183 100.477 184.75C100.477 185.317 100.35 185.817 100.097 186.25C99.85 186.677 99.5133 187.007 99.0866 187.24C98.66 187.473 98.1866 187.59 97.6666 187.59ZM97.6666 186.79C97.9933 186.79 98.3 186.713 98.5866 186.56C98.8733 186.407 99.1033 186.177 99.2766 185.87C99.4566 185.563 99.5466 185.19 99.5466 184.75C99.5466 184.31 99.46 183.937 99.2866 183.63C99.1133 183.323 98.8866 183.097 98.6066 182.95C98.3266 182.797 98.0233 182.72 97.6966 182.72C97.3633 182.72 97.0566 182.797 96.7766 182.95C96.5033 183.097 96.2833 183.323 96.1166 183.63C95.95 183.937 95.8666 184.31 95.8666 184.75C95.8666 185.197 95.9466 185.573 96.1066 185.88C96.2733 186.187 96.4933 186.417 96.7666 186.57C97.04 186.717 97.34 186.79 97.6666 186.79ZM102.563 181.13C102.39 181.13 102.243 181.07 102.123 180.95C102.01 180.83 101.953 180.683 101.953 180.51C101.953 180.337 102.01 180.19 102.123 180.07C102.243 179.95 102.39 179.89 102.563 179.89C102.736 179.89 102.88 179.95 102.993 180.07C103.113 180.19 103.173 180.337 103.173 180.51C103.173 180.683 103.113 180.83 102.993 180.95C102.88 181.07 102.736 181.13 102.563 181.13ZM103.013 188.69C103.013 189.177 102.89 189.533 102.643 189.76C102.396 189.987 102.036 190.1 101.563 190.1H101.033V189.33H101.413C101.666 189.33 101.843 189.28 101.943 189.18C102.05 189.08 102.103 188.91 102.103 188.67V182.02H103.013V188.69ZM109.954 184.55C109.954 184.723 109.944 184.907 109.924 185.1H105.544C105.577 185.64 105.76 186.063 106.094 186.37C106.434 186.67 106.844 186.82 107.324 186.82C107.717 186.82 108.044 186.73 108.304 186.55C108.57 186.363 108.757 186.117 108.864 185.81H109.844C109.697 186.337 109.404 186.767 108.964 187.1C108.524 187.427 107.977 187.59 107.324 187.59C106.804 187.59 106.337 187.473 105.924 187.24C105.517 187.007 105.197 186.677 104.964 186.25C104.73 185.817 104.614 185.317 104.614 184.75C104.614 184.183 104.727 183.687 104.954 183.26C105.18 182.833 105.497 182.507 105.904 182.28C106.317 182.047 106.79 181.93 107.324 181.93C107.844 181.93 108.304 182.043 108.704 182.27C109.104 182.497 109.41 182.81 109.624 183.21C109.844 183.603 109.954 184.05 109.954 184.55ZM109.014 184.36C109.014 184.013 108.937 183.717 108.784 183.47C108.63 183.217 108.42 183.027 108.154 182.9C107.894 182.767 107.604 182.7 107.284 182.7C106.824 182.7 106.43 182.847 106.104 183.14C105.784 183.433 105.6 183.84 105.554 184.36H109.014ZM111.215 184.75C111.215 184.183 111.328 183.69 111.555 183.27C111.781 182.843 112.095 182.513 112.495 182.28C112.901 182.047 113.365 181.93 113.885 181.93C114.558 181.93 115.111 182.093 115.545 182.42C115.985 182.747 116.275 183.2 116.415 183.78H115.435C115.341 183.447 115.158 183.183 114.885 182.99C114.618 182.797 114.285 182.7 113.885 182.7C113.365 182.7 112.945 182.88 112.625 183.24C112.305 183.593 112.145 184.097 112.145 184.75C112.145 185.41 112.305 185.92 112.625 186.28C112.945 186.64 113.365 186.82 113.885 186.82C114.285 186.82 114.618 186.727 114.885 186.54C115.151 186.353 115.335 186.087 115.435 185.74H116.415C116.268 186.3 115.975 186.75 115.535 187.09C115.095 187.423 114.545 187.59 113.885 187.59C113.365 187.59 112.901 187.473 112.495 187.24C112.095 187.007 111.781 186.677 111.555 186.25C111.328 185.823 111.215 185.323 111.215 184.75ZM119.139 182.77V186C119.139 186.267 119.196 186.457 119.309 186.57C119.422 186.677 119.619 186.73 119.899 186.73H120.569V187.5H119.749C119.242 187.5 118.862 187.383 118.609 187.15C118.356 186.917 118.229 186.533 118.229 186V182.77H117.519V182.02H118.229V180.64H119.139V182.02H120.569V182.77H119.139ZM124.798 184.74C124.798 184.18 124.911 183.69 125.138 183.27C125.364 182.843 125.674 182.513 126.068 182.28C126.468 182.047 126.911 181.93 127.398 181.93C127.878 181.93 128.294 182.033 128.648 182.24C129.001 182.447 129.264 182.707 129.438 183.02V182.02H130.358V187.5H129.438V186.48C129.258 186.8 128.988 187.067 128.628 187.28C128.274 187.487 127.861 187.59 127.388 187.59C126.901 187.59 126.461 187.47 126.068 187.23C125.674 186.99 125.364 186.653 125.138 186.22C124.911 185.787 124.798 185.293 124.798 184.74ZM129.438 184.75C129.438 184.337 129.354 183.977 129.188 183.67C129.021 183.363 128.794 183.13 128.508 182.97C128.228 182.803 127.918 182.72 127.578 182.72C127.238 182.72 126.928 182.8 126.648 182.96C126.368 183.12 126.144 183.353 125.978 183.66C125.811 183.967 125.728 184.327 125.728 184.74C125.728 185.16 125.811 185.527 125.978 185.84C126.144 186.147 126.368 186.383 126.648 186.55C126.928 186.71 127.238 186.79 127.578 186.79C127.918 186.79 128.228 186.71 128.508 186.55C128.794 186.383 129.021 186.147 129.188 185.84C129.354 185.527 129.438 185.163 129.438 184.75ZM134.965 181.92C135.632 181.92 136.172 182.123 136.585 182.53C136.999 182.93 137.205 183.51 137.205 184.27V187.5H136.305V184.4C136.305 183.853 136.169 183.437 135.895 183.15C135.622 182.857 135.249 182.71 134.775 182.71C134.295 182.71 133.912 182.86 133.625 183.16C133.345 183.46 133.205 183.897 133.205 184.47V187.5H132.295V182.02H133.205V182.8C133.385 182.52 133.629 182.303 133.935 182.15C134.249 181.997 134.592 181.92 134.965 181.92ZM138.752 184.74C138.752 184.18 138.865 183.69 139.092 183.27C139.319 182.843 139.629 182.513 140.022 182.28C140.422 182.047 140.869 181.93 141.362 181.93C141.789 181.93 142.185 182.03 142.552 182.23C142.919 182.423 143.199 182.68 143.392 183V180.1H144.312V187.5H143.392V186.47C143.212 186.797 142.945 187.067 142.592 187.28C142.239 187.487 141.825 187.59 141.352 187.59C140.865 187.59 140.422 187.47 140.022 187.23C139.629 186.99 139.319 186.653 139.092 186.22C138.865 185.787 138.752 185.293 138.752 184.74ZM143.392 184.75C143.392 184.337 143.309 183.977 143.142 183.67C142.975 183.363 142.749 183.13 142.462 182.97C142.182 182.803 141.872 182.72 141.532 182.72C141.192 182.72 140.882 182.8 140.602 182.96C140.322 183.12 140.099 183.353 139.932 183.66C139.765 183.967 139.682 184.327 139.682 184.74C139.682 185.16 139.765 185.527 139.932 185.84C140.099 186.147 140.322 186.383 140.602 186.55C140.882 186.71 141.192 186.79 141.532 186.79C141.872 186.79 142.182 186.71 142.462 186.55C142.749 186.383 142.975 186.147 143.142 185.84C143.309 185.527 143.392 185.163 143.392 184.75ZM17.1054 197.91C17.2654 197.597 17.4921 197.353 17.7854 197.18C18.0854 197.007 18.4487 196.92 18.8754 196.92V197.86H18.6354C17.6154 197.86 17.1054 198.413 17.1054 199.52V202.5H16.1954V197.02H17.1054V197.91ZM25.3259 199.55C25.3259 199.723 25.3159 199.907 25.2959 200.1H20.9159C20.9492 200.64 21.1325 201.063 21.4659 201.37C21.8059 201.67 22.2159 201.82 22.6959 201.82C23.0892 201.82 23.4159 201.73 23.6759 201.55C23.9425 201.363 24.1292 201.117 24.2359 200.81H25.2159C25.0692 201.337 24.7759 201.767 24.3359 202.1C23.8959 202.427 23.3492 202.59 22.6959 202.59C22.1759 202.59 21.7092 202.473 21.2959 202.24C20.8892 202.007 20.5692 201.677 20.3359 201.25C20.1025 200.817 19.9859 200.317 19.9859 199.75C19.9859 199.183 20.0992 198.687 20.3259 198.26C20.5525 197.833 20.8692 197.507 21.2759 197.28C21.6892 197.047 22.1625 196.93 22.6959 196.93C23.2159 196.93 23.6759 197.043 24.0759 197.27C24.4759 197.497 24.7825 197.81 24.9959 198.21C25.2159 198.603 25.3259 199.05 25.3259 199.55ZM24.3859 199.36C24.3859 199.013 24.3092 198.717 24.1559 198.47C24.0025 198.217 23.7925 198.027 23.5259 197.9C23.2659 197.767 22.9759 197.7 22.6559 197.7C22.1959 197.7 21.8025 197.847 21.4759 198.14C21.1559 198.433 20.9725 198.84 20.9259 199.36H24.3859ZM26.587 199.75C26.587 199.183 26.7004 198.69 26.927 198.27C27.1537 197.843 27.467 197.513 27.867 197.28C28.2737 197.047 28.737 196.93 29.257 196.93C29.9304 196.93 30.4837 197.093 30.917 197.42C31.357 197.747 31.647 198.2 31.787 198.78H30.807C30.7137 198.447 30.5304 198.183 30.257 197.99C29.9904 197.797 29.657 197.7 29.257 197.7C28.737 197.7 28.317 197.88 27.997 198.24C27.677 198.593 27.517 199.097 27.517 199.75C27.517 200.41 27.677 200.92 27.997 201.28C28.317 201.64 28.737 201.82 29.257 201.82C29.657 201.82 29.9904 201.727 30.257 201.54C30.5237 201.353 30.707 201.087 30.807 200.74H31.787C31.6404 201.3 31.347 201.75 30.907 202.09C30.467 202.423 29.917 202.59 29.257 202.59C28.737 202.59 28.2737 202.473 27.867 202.24C27.467 202.007 27.1537 201.677 26.927 201.25C26.7004 200.823 26.587 200.323 26.587 199.75ZM38.4013 199.55C38.4013 199.723 38.3913 199.907 38.3713 200.1H33.9913C34.0246 200.64 34.2079 201.063 34.5413 201.37C34.8813 201.67 35.2913 201.82 35.7713 201.82C36.1646 201.82 36.4913 201.73 36.7513 201.55C37.0179 201.363 37.2046 201.117 37.3113 200.81H38.2913C38.1446 201.337 37.8513 201.767 37.4113 202.1C36.9713 202.427 36.4246 202.59 35.7713 202.59C35.2513 202.59 34.7846 202.473 34.3713 202.24C33.9646 202.007 33.6446 201.677 33.4113 201.25C33.1779 200.817 33.0613 200.317 33.0613 199.75C33.0613 199.183 33.1746 198.687 33.4013 198.26C33.6279 197.833 33.9446 197.507 34.3513 197.28C34.7646 197.047 35.2379 196.93 35.7713 196.93C36.2913 196.93 36.7513 197.043 37.1513 197.27C37.5513 197.497 37.8579 197.81 38.0713 198.21C38.2913 198.603 38.4013 199.05 38.4013 199.55ZM37.4613 199.36C37.4613 199.013 37.3846 198.717 37.2313 198.47C37.0779 198.217 36.8679 198.027 36.6013 197.9C36.3413 197.767 36.0513 197.7 35.7313 197.7C35.2713 197.7 34.8779 197.847 34.5513 198.14C34.2313 198.433 34.0479 198.84 34.0013 199.36H37.4613ZM40.4724 196.13C40.2991 196.13 40.1524 196.07 40.0324 195.95C39.9124 195.83 39.8524 195.683 39.8524 195.51C39.8524 195.337 39.9124 195.19 40.0324 195.07C40.1524 194.95 40.2991 194.89 40.4724 194.89C40.6391 194.89 40.7791 194.95 40.8924 195.07C41.0124 195.19 41.0724 195.337 41.0724 195.51C41.0724 195.683 41.0124 195.83 40.8924 195.95C40.7791 196.07 40.6391 196.13 40.4724 196.13ZM40.9124 197.02V202.5H40.0024V197.02H40.9124ZM44.9034 201.66L46.6034 197.02H47.5734L45.4234 202.5H44.3634L42.2134 197.02H43.1934L44.9034 201.66ZM53.8688 199.55C53.8688 199.723 53.8588 199.907 53.8388 200.1H49.4588C49.4922 200.64 49.6755 201.063 50.0088 201.37C50.3488 201.67 50.7588 201.82 51.2388 201.82C51.6322 201.82 51.9588 201.73 52.2188 201.55C52.4855 201.363 52.6722 201.117 52.7788 200.81H53.7588C53.6122 201.337 53.3188 201.767 52.8788 202.1C52.4388 202.427 51.8922 202.59 51.2388 202.59C50.7188 202.59 50.2522 202.473 49.8388 202.24C49.4322 202.007 49.1122 201.677 48.8788 201.25C48.6455 200.817 48.5288 200.317 48.5288 199.75C48.5288 199.183 48.6422 198.687 48.8688 198.26C49.0955 197.833 49.4122 197.507 49.8188 197.28C50.2322 197.047 50.7055 196.93 51.2388 196.93C51.7588 196.93 52.2188 197.043 52.6188 197.27C53.0188 197.497 53.3255 197.81 53.5388 198.21C53.7588 198.603 53.8688 199.05 53.8688 199.55ZM52.9288 199.36C52.9288 199.013 52.8522 198.717 52.6988 198.47C52.5455 198.217 52.3355 198.027 52.0688 197.9C51.8088 197.767 51.5188 197.7 51.1988 197.7C50.7388 197.7 50.3455 197.847 50.0188 198.14C49.6988 198.433 49.5155 198.84 49.4688 199.36H52.9288ZM58.196 199.75C58.196 199.183 58.3094 198.69 58.536 198.27C58.7627 197.843 59.076 197.513 59.476 197.28C59.8827 197.047 60.346 196.93 60.866 196.93C61.5394 196.93 62.0927 197.093 62.526 197.42C62.966 197.747 63.256 198.2 63.396 198.78H62.416C62.3227 198.447 62.1394 198.183 61.866 197.99C61.5994 197.797 61.266 197.7 60.866 197.7C60.346 197.7 59.926 197.88 59.606 198.24C59.286 198.593 59.126 199.097 59.126 199.75C59.126 200.41 59.286 200.92 59.606 201.28C59.926 201.64 60.346 201.82 60.866 201.82C61.266 201.82 61.5994 201.727 61.866 201.54C62.1327 201.353 62.316 201.087 62.416 200.74H63.396C63.2494 201.3 62.956 201.75 62.516 202.09C62.076 202.423 61.526 202.59 60.866 202.59C60.346 202.59 59.8827 202.473 59.476 202.24C59.076 202.007 58.7627 201.677 58.536 201.25C58.3094 200.823 58.196 200.323 58.196 199.75ZM67.4002 202.59C66.8869 202.59 66.4202 202.473 66.0002 202.24C65.5869 202.007 65.2602 201.677 65.0202 201.25C64.7869 200.817 64.6702 200.317 64.6702 199.75C64.6702 199.19 64.7902 198.697 65.0302 198.27C65.2769 197.837 65.6102 197.507 66.0302 197.28C66.4502 197.047 66.9202 196.93 67.4402 196.93C67.9602 196.93 68.4302 197.047 68.8502 197.28C69.2702 197.507 69.6002 197.833 69.8402 198.26C70.0869 198.687 70.2102 199.183 70.2102 199.75C70.2102 200.317 70.0836 200.817 69.8302 201.25C69.5836 201.677 69.2469 202.007 68.8202 202.24C68.3936 202.473 67.9202 202.59 67.4002 202.59ZM67.4002 201.79C67.7269 201.79 68.0336 201.713 68.3202 201.56C68.6069 201.407 68.8369 201.177 69.0102 200.87C69.1902 200.563 69.2802 200.19 69.2802 199.75C69.2802 199.31 69.1936 198.937 69.0202 198.63C68.8469 198.323 68.6202 198.097 68.3402 197.95C68.0602 197.797 67.7569 197.72 67.4302 197.72C67.0969 197.72 66.7902 197.797 66.5102 197.95C66.2369 198.097 66.0169 198.323 65.8502 198.63C65.6836 198.937 65.6002 199.31 65.6002 199.75C65.6002 200.197 65.6802 200.573 65.8402 200.88C66.0069 201.187 66.2269 201.417 66.5002 201.57C66.7736 201.717 67.0736 201.79 67.4002 201.79ZM74.4767 196.92C75.1434 196.92 75.6834 197.123 76.0967 197.53C76.5101 197.93 76.7167 198.51 76.7167 199.27V202.5H75.8167V199.4C75.8167 198.853 75.6801 198.437 75.4067 198.15C75.1334 197.857 74.7601 197.71 74.2867 197.71C73.8067 197.71 73.4234 197.86 73.1367 198.16C72.8567 198.46 72.7167 198.897 72.7167 199.47V202.5H71.8067V197.02H72.7167V197.8C72.8967 197.52 73.1401 197.303 73.4467 197.15C73.7601 196.997 74.1034 196.92 74.4767 196.92ZM79.7132 197.77V201C79.7132 201.267 79.7699 201.457 79.8832 201.57C79.9965 201.677 80.1932 201.73 80.4732 201.73H81.1432V202.5H80.3232C79.8165 202.5 79.4365 202.383 79.1832 202.15C78.9299 201.917 78.8032 201.533 78.8032 201V197.77H78.0932V197.02H78.8032V195.64H79.7132V197.02H81.1432V197.77H79.7132ZM83.5558 197.91C83.7158 197.597 83.9425 197.353 84.2358 197.18C84.5358 197.007 84.8991 196.92 85.3258 196.92V197.86H85.0858C84.0658 197.86 83.5558 198.413 83.5558 199.52V202.5H82.6458V197.02H83.5558V197.91ZM86.4362 199.74C86.4362 199.18 86.5496 198.69 86.7762 198.27C87.0029 197.843 87.3129 197.513 87.7062 197.28C88.1062 197.047 88.5496 196.93 89.0362 196.93C89.5162 196.93 89.9329 197.033 90.2862 197.24C90.6396 197.447 90.9029 197.707 91.0762 198.02V197.02H91.9962V202.5H91.0762V201.48C90.8962 201.8 90.6262 202.067 90.2662 202.28C89.9129 202.487 89.4996 202.59 89.0262 202.59C88.5396 202.59 88.0996 202.47 87.7062 202.23C87.3129 201.99 87.0029 201.653 86.7762 201.22C86.5496 200.787 86.4362 200.293 86.4362 199.74ZM91.0762 199.75C91.0762 199.337 90.9929 198.977 90.8262 198.67C90.6596 198.363 90.4329 198.13 90.1462 197.97C89.8662 197.803 89.5562 197.72 89.2162 197.72C88.8762 197.72 88.5662 197.8 88.2862 197.96C88.0062 198.12 87.7829 198.353 87.6162 198.66C87.4496 198.967 87.3662 199.327 87.3662 199.74C87.3662 200.16 87.4496 200.527 87.6162 200.84C87.7829 201.147 88.0062 201.383 88.2862 201.55C88.5662 201.71 88.8762 201.79 89.2162 201.79C89.5562 201.79 89.8662 201.71 90.1462 201.55C90.4329 201.383 90.6596 201.147 90.8262 200.84C90.9929 200.527 91.0762 200.163 91.0762 199.75ZM93.5941 199.75C93.5941 199.183 93.7074 198.69 93.9341 198.27C94.1607 197.843 94.4741 197.513 94.8741 197.28C95.2807 197.047 95.7441 196.93 96.2641 196.93C96.9374 196.93 97.4907 197.093 97.9241 197.42C98.3641 197.747 98.6541 198.2 98.7941 198.78H97.8141C97.7207 198.447 97.5374 198.183 97.2641 197.99C96.9974 197.797 96.6641 197.7 96.2641 197.7C95.7441 197.7 95.3241 197.88 95.0041 198.24C94.6841 198.593 94.5241 199.097 94.5241 199.75C94.5241 200.41 94.6841 200.92 95.0041 201.28C95.3241 201.64 95.7441 201.82 96.2641 201.82C96.6641 201.82 96.9974 201.727 97.2641 201.54C97.5307 201.353 97.7141 201.087 97.8141 200.74H98.7941C98.6474 201.3 98.3541 201.75 97.9141 202.09C97.4741 202.423 96.9241 202.59 96.2641 202.59C95.7441 202.59 95.2807 202.473 94.8741 202.24C94.4741 202.007 94.1607 201.677 93.9341 201.25C93.7074 200.823 93.5941 200.323 93.5941 199.75ZM101.518 197.77V201C101.518 201.267 101.575 201.457 101.688 201.57C101.802 201.677 101.998 201.73 102.278 201.73H102.948V202.5H102.128C101.622 202.5 101.242 202.383 100.988 202.15C100.735 201.917 100.608 201.533 100.608 201V197.77H99.8983V197.02H100.608V195.64H101.518V197.02H102.948V197.77H101.518ZM106.841 202.59C106.328 202.59 105.861 202.473 105.441 202.24C105.028 202.007 104.701 201.677 104.461 201.25C104.228 200.817 104.111 200.317 104.111 199.75C104.111 199.19 104.231 198.697 104.471 198.27C104.718 197.837 105.051 197.507 105.471 197.28C105.891 197.047 106.361 196.93 106.881 196.93C107.401 196.93 107.871 197.047 108.291 197.28C108.711 197.507 109.041 197.833 109.281 198.26C109.528 198.687 109.651 199.183 109.651 199.75C109.651 200.317 109.524 200.817 109.271 201.25C109.024 201.677 108.688 202.007 108.261 202.24C107.834 202.473 107.361 202.59 106.841 202.59ZM106.841 201.79C107.168 201.79 107.474 201.713 107.761 201.56C108.048 201.407 108.278 201.177 108.451 200.87C108.631 200.563 108.721 200.19 108.721 199.75C108.721 199.31 108.634 198.937 108.461 198.63C108.288 198.323 108.061 198.097 107.781 197.95C107.501 197.797 107.198 197.72 106.871 197.72C106.538 197.72 106.231 197.797 105.951 197.95C105.678 198.097 105.458 198.323 105.291 198.63C105.124 198.937 105.041 199.31 105.041 199.75C105.041 200.197 105.121 200.573 105.281 200.88C105.448 201.187 105.668 201.417 105.941 201.57C106.214 201.717 106.514 201.79 106.841 201.79ZM112.157 197.91C112.317 197.597 112.544 197.353 112.837 197.18C113.137 197.007 113.501 196.92 113.927 196.92V197.86H113.687C112.667 197.86 112.157 198.413 112.157 199.52V202.5H111.247V197.02H112.157V197.91ZM119.354 198.04C119.54 197.713 119.814 197.447 120.174 197.24C120.534 197.033 120.944 196.93 121.404 196.93C121.897 196.93 122.34 197.047 122.734 197.28C123.127 197.513 123.437 197.843 123.664 198.27C123.89 198.69 124.004 199.18 124.004 199.74C124.004 200.293 123.89 200.787 123.664 201.22C123.437 201.653 123.124 201.99 122.724 202.23C122.33 202.47 121.89 202.59 121.404 202.59C120.93 202.59 120.514 202.487 120.154 202.28C119.8 202.073 119.534 201.81 119.354 201.49V202.5H118.444V195.1H119.354V198.04ZM123.074 199.74C123.074 199.327 122.99 198.967 122.824 198.66C122.657 198.353 122.43 198.12 122.144 197.96C121.864 197.8 121.554 197.72 121.214 197.72C120.88 197.72 120.57 197.803 120.284 197.97C120.004 198.13 119.777 198.367 119.604 198.68C119.437 198.987 119.354 199.343 119.354 199.75C119.354 200.163 119.437 200.527 119.604 200.84C119.777 201.147 120.004 201.383 120.284 201.55C120.57 201.71 120.88 201.79 121.214 201.79C121.554 201.79 121.864 201.71 122.144 201.55C122.43 201.383 122.657 201.147 122.824 200.84C122.99 200.527 123.074 200.16 123.074 199.74ZM126.072 196.13C125.898 196.13 125.752 196.07 125.632 195.95C125.512 195.83 125.452 195.683 125.452 195.51C125.452 195.337 125.512 195.19 125.632 195.07C125.752 194.95 125.898 194.89 126.072 194.89C126.238 194.89 126.378 194.95 126.492 195.07C126.612 195.19 126.672 195.337 126.672 195.51C126.672 195.683 126.612 195.83 126.492 195.95C126.378 196.07 126.238 196.13 126.072 196.13ZM126.512 197.02V202.5H125.602V197.02H126.512ZM128.123 199.74C128.123 199.18 128.236 198.69 128.463 198.27C128.689 197.843 128.999 197.513 129.393 197.28C129.793 197.047 130.239 196.93 130.733 196.93C131.159 196.93 131.556 197.03 131.923 197.23C132.289 197.423 132.569 197.68 132.763 198V195.1H133.683V202.5H132.763V201.47C132.583 201.797 132.316 202.067 131.963 202.28C131.609 202.487 131.196 202.59 130.723 202.59C130.236 202.59 129.793 202.47 129.393 202.23C128.999 201.99 128.689 201.653 128.463 201.22C128.236 200.787 128.123 200.293 128.123 199.74ZM132.763 199.75C132.763 199.337 132.679 198.977 132.513 198.67C132.346 198.363 132.119 198.13 131.833 197.97C131.553 197.803 131.243 197.72 130.903 197.72C130.563 197.72 130.253 197.8 129.973 197.96C129.693 198.12 129.469 198.353 129.303 198.66C129.136 198.967 129.053 199.327 129.053 199.74C129.053 200.16 129.136 200.527 129.303 200.84C129.469 201.147 129.693 201.383 129.973 201.55C130.253 201.71 130.563 201.79 130.903 201.79C131.243 201.79 131.553 201.71 131.833 201.55C132.119 201.383 132.346 201.147 132.513 200.84C132.679 200.527 132.763 200.163 132.763 199.75ZM137.56 202.59C137.14 202.59 136.764 202.52 136.43 202.38C136.097 202.233 135.834 202.033 135.64 201.78C135.447 201.52 135.34 201.223 135.32 200.89H136.26C136.287 201.163 136.414 201.387 136.64 201.56C136.874 201.733 137.177 201.82 137.55 201.82C137.897 201.82 138.17 201.743 138.37 201.59C138.57 201.437 138.67 201.243 138.67 201.01C138.67 200.77 138.564 200.593 138.35 200.48C138.137 200.36 137.807 200.243 137.36 200.13C136.954 200.023 136.62 199.917 136.36 199.81C136.107 199.697 135.887 199.533 135.7 199.32C135.52 199.1 135.43 198.813 135.43 198.46C135.43 198.18 135.514 197.923 135.68 197.69C135.847 197.457 136.084 197.273 136.39 197.14C136.697 197 137.047 196.93 137.44 196.93C138.047 196.93 138.537 197.083 138.91 197.39C139.284 197.697 139.484 198.117 139.51 198.65H138.6C138.58 198.363 138.464 198.133 138.25 197.96C138.044 197.787 137.764 197.7 137.41 197.7C137.084 197.7 136.824 197.77 136.63 197.91C136.437 198.05 136.34 198.233 136.34 198.46C136.34 198.64 136.397 198.79 136.51 198.91C136.63 199.023 136.777 199.117 136.95 199.19C137.13 199.257 137.377 199.333 137.69 199.42C138.084 199.527 138.404 199.633 138.65 199.74C138.897 199.84 139.107 199.993 139.28 200.2C139.46 200.407 139.554 200.677 139.56 201.01C139.56 201.31 139.477 201.58 139.31 201.82C139.144 202.06 138.907 202.25 138.6 202.39C138.3 202.523 137.954 202.59 137.56 202.59ZM141.535 202.56C141.362 202.56 141.215 202.5 141.095 202.38C140.975 202.26 140.915 202.113 140.915 201.94C140.915 201.767 140.975 201.62 141.095 201.5C141.215 201.38 141.362 201.32 141.535 201.32C141.702 201.32 141.842 201.38 141.955 201.5C142.075 201.62 142.135 201.767 142.135 201.94C142.135 202.113 142.075 202.26 141.955 202.38C141.842 202.5 141.702 202.56 141.535 202.56Z" fill="black"/>
<circle cx="79" cy="79.5" r="40" fill="#297CCB" fill-opacity="0.2"/>
<path opacity="0.4" d="M64.9746 93.3029V70.6788C64.9746 67.8313 66.3913 66.4004 69.2105 66.4004H78.0363C80.8555 66.4004 82.258 67.8313 82.258 70.6788V93.3029" fill="#297CCB"/>
<path d="M77.2293 74.8862H70.2168C69.636 74.8862 69.1543 74.4046 69.1543 73.8237C69.1543 73.2429 69.636 72.7612 70.2168 72.7612H77.2293C77.8101 72.7612 78.2918 73.2429 78.2918 73.8237C78.2918 74.4046 77.8101 74.8862 77.2293 74.8862Z" fill="#297CCB"/>
<path d="M77.2293 80.1987H70.2168C69.636 80.1987 69.1543 79.7171 69.1543 79.1362C69.1543 78.5554 69.636 78.0737 70.2168 78.0737H77.2293C77.8101 78.0737 78.2918 78.5554 78.2918 79.1362C78.2918 79.7171 77.8101 80.1987 77.2293 80.1987Z" fill="#297CCB"/>
<path d="M73.6875 94.3652C73.1067 94.3652 72.625 93.8836 72.625 93.3027V87.9902C72.625 87.4094 73.1067 86.9277 73.6875 86.9277C74.2683 86.9277 74.75 87.4094 74.75 87.9902V93.3027C74.75 93.8836 74.2683 94.3652 73.6875 94.3652Z" fill="#297CCB"/>
<path d="M94.5837 92.2402H91.3678V87.9902C92.7136 87.551 93.6911 86.2902 93.6911 84.8027V81.9693C93.6911 80.1135 92.1753 78.5977 90.3195 78.5977C88.4636 78.5977 86.9478 80.1135 86.9478 81.9693V84.8027C86.9478 86.276 87.9111 87.5226 89.2286 87.976V92.2402H63.417C62.8362 92.2402 62.3545 92.7218 62.3545 93.3027C62.3545 93.8835 62.8362 94.3652 63.417 94.3652H90.2345C90.2628 94.3652 90.277 94.3793 90.3053 94.3793C90.3336 94.3793 90.3479 94.3652 90.3762 94.3652H94.5837C95.1645 94.3652 95.6462 93.8835 95.6462 93.3027C95.6462 92.7218 95.1645 92.2402 94.5837 92.2402Z" fill="#297CCB"/>
</svg>
